<svg width="122" height="122" viewBox="0 0 122 122" fill="none" xmlns="http://www.w3.org/2000/svg">
<rect width="122" height="122" rx="61" fill="#F5F5F5"/>
<rect x="29.0557" y="33.0811" width="54.384" height="68.6021" rx="2.51546" fill="#EBEBEB" stroke="#A4A4A4" stroke-width="0.824324" stroke-miterlimit="10"/>
<path d="M35.0342 29.992V87.0302C35.0342 92.0296 39.0841 96.0795 44.0836 96.0795H83.2053C86.6389 96.0795 89.4185 93.3 89.4185 89.8664V29.992C89.4185 28.6022 88.2928 27.4766 86.903 27.4766H37.5496C36.1598 27.4766 35.0342 28.6022 35.0342 29.992Z" fill="white" stroke="#A4A4A4" stroke-width="0.824324" stroke-miterlimit="10"/>
<rect x="51.167" y="23.9175" width="22.1172" height="7.12081" rx="1.25773" fill="#D1D1D1" stroke="#A4A4A4" stroke-width="0.824324" stroke-miterlimit="10"/>
<path d="M57.7031 21.0201C57.7031 18.5162 59.733 16.4863 62.2369 16.4863C64.7408 16.4863 66.7707 18.5162 66.7707 21.0201V23.9052H57.7031V21.0201Z" fill="#D1D1D1" stroke="#A4A4A4" stroke-width="0.824324" stroke-miterlimit="10"/>
<circle cx="62.2254" cy="20.6009" r="2.05356" fill="white"/>
<path d="M89.7363 33.0811H92.8713C94.2605 33.0811 95.3867 34.2073 95.3867 35.5965V47.6423C95.3867 49.0316 94.2605 50.1578 92.8713 50.1578H89.7363V33.0811Z" fill="#EBEBEB" stroke="#A4A4A4" stroke-width="0.824324" stroke-miterlimit="10"/>
<path d="M89.7363 72.5078H92.8713C94.2605 72.5078 95.3867 73.634 95.3867 75.0233V87.0691C95.3867 88.4583 94.2605 89.5846 92.8713 89.5846H89.7363V72.5078Z" fill="#EBEBEB" stroke="#A4A4A4" stroke-width="0.824324" stroke-miterlimit="10"/>
<path d="M49.4906 48.9396H45.457" stroke="#A4A4A4" stroke-width="0.824324" stroke-linecap="round" stroke-linejoin="round"/>
<path fill-rule="evenodd" clip-rule="evenodd" d="M45.1486 48.7423C43.9547 47.8986 43.2387 46.4256 43.4908 44.8041C43.7637 43.0516 45.2246 41.6526 46.9866 41.4462C49.4323 41.1591 51.5076 43.063 51.5076 45.4509C51.5076 46.8122 50.8313 48.0135 49.798 48.7436C49.6124 48.8747 49.4908 49.0777 49.4908 49.3049V51.1651C49.4908 52.0935 48.7385 52.8458 47.8101 52.8458H47.1378C46.2094 52.8458 45.4572 52.0935 45.4572 51.1651V49.3076C45.4572 49.0784 45.3348 48.874 45.1486 48.7423Z" stroke="#A4A4A4" stroke-width="0.824324" stroke-linecap="round" stroke-linejoin="round"/>
<path d="M52.8516 42.0895L53.6516 41.2896" stroke="#A4A4A4" stroke-width="0.824324" stroke-linecap="round" stroke-linejoin="round"/>
<path d="M42.0959 48.812L41.2959 49.612" stroke="#A4A4A4" stroke-width="0.824324" stroke-linecap="round" stroke-linejoin="round"/>
<path d="M42.7678 41.4172L41.9678 40.6172" stroke="#A4A4A4" stroke-width="0.824324" stroke-linecap="round" stroke-linejoin="round"/>
<path d="M52.8516 48.812L53.6516 49.612" stroke="#A4A4A4" stroke-width="0.824324" stroke-linecap="round" stroke-linejoin="round"/>
<path d="M53.5234 45.4504H54.6596" stroke="#A4A4A4" stroke-width="0.824324" stroke-linecap="round" stroke-linejoin="round"/>
<path d="M40.2871 45.4504H41.4232" stroke="#A4A4A4" stroke-width="0.824324" stroke-linecap="round" stroke-linejoin="round"/>
<path d="M45.457 50.8288H49.4032" stroke="#A4A4A4" stroke-width="0.824324" stroke-linecap="round" stroke-linejoin="round"/>
<rect x="58.7217" y="42.2944" width="24.0115" height="3.05112" rx="0.628866" fill="#EBEBEB"/>
<rect x="58.7207" y="48.2446" width="13.8558" height="3.05112" rx="0.628866" fill="#EBEBEB"/>
<path d="M44.083 96.0799L86.9276 96.0612C89.8833 96.0612 92.2793 93.6715 92.2793 90.7158C92.2793 88.0933 90.3801 85.9049 87.8835 85.4584L87.7137 85.427L45.9067 78.1572C50.0383 79 53.1387 82.6474 53.1387 87.0306C53.1387 92.0301 49.0887 96.0799 44.083 96.0799Z" fill="#D1D1D1" stroke="#A4A4A4" stroke-width="0.824324" stroke-miterlimit="10"/>
<circle cx="89.7365" cy="28.6222" r="10.1056" fill="#EBEBEB" stroke="#A4A4A4" stroke-width="0.824324" stroke-miterlimit="10"/>
<path fill-rule="evenodd" clip-rule="evenodd" d="M83.2471 36.3685C83.5306 33.2897 85.9553 30.8309 89.0187 30.4949C87.3865 30.1622 86.1584 28.7186 86.1584 26.9882C86.1584 25.0115 87.7608 23.4092 89.7374 23.4092C91.714 23.4092 93.3164 25.0115 93.3164 26.9882C93.3164 28.7186 92.0882 30.1623 90.456 30.495C93.5192 30.8309 95.9438 33.2895 96.2275 36.3681C94.4718 37.8408 92.208 38.7276 89.7371 38.7276C87.2664 38.7276 85.0028 37.841 83.2471 36.3685Z" fill="#A4A4A4"/>
<path d="M89.0187 30.4949L89.0636 30.9047C89.2655 30.8825 89.4211 30.7167 89.4304 30.5139C89.4397 30.311 89.3 30.1316 89.101 30.0911L89.0187 30.4949ZM83.2471 36.3685L82.8366 36.3307C82.8243 36.4653 82.8786 36.5974 82.9822 36.6843L83.2471 36.3685ZM90.456 30.495L90.3737 30.0911C90.1748 30.1317 90.035 30.3111 90.0443 30.5139C90.0536 30.7167 90.2093 30.8825 90.4111 30.9047L90.456 30.495ZM96.2275 36.3681L96.4924 36.6839C96.596 36.597 96.6503 36.4649 96.6379 36.3303L96.2275 36.3681ZM89.0187 30.4949L88.9738 30.0852C85.716 30.4425 83.1381 33.0564 82.8366 36.3307L83.2471 36.3685L83.6575 36.4063C83.923 33.5229 86.1947 31.2193 89.0636 30.9047L89.0187 30.4949ZM86.1584 26.9882H85.7462C85.7462 28.9184 87.1161 30.5277 88.9364 30.8988L89.0187 30.4949L89.101 30.0911C87.657 29.7967 86.5706 28.5188 86.5706 26.9882H86.1584ZM89.7374 23.4092V22.997C87.5331 22.997 85.7462 24.7839 85.7462 26.9882H86.1584H86.5706C86.5706 25.2392 87.9884 23.8213 89.7374 23.8213V23.4092ZM93.3164 26.9882H93.7285C93.7285 24.7839 91.9416 22.997 89.7374 22.997V23.4092V23.8213C91.4864 23.8213 92.9042 25.2392 92.9042 26.9882H93.3164ZM90.456 30.495L90.5384 30.8988C92.3587 30.5278 93.7285 28.9184 93.7285 26.9882H93.3164H92.9042C92.9042 28.5189 91.8178 29.7967 90.3737 30.0911L90.456 30.495ZM96.2275 36.3681L96.6379 36.3303C96.3363 33.0562 93.7585 30.4426 90.501 30.0853L90.456 30.495L90.4111 30.9047C93.2799 31.2193 95.5514 33.5227 95.8171 36.4059L96.2275 36.3681ZM96.2275 36.3681L95.9626 36.0523C94.2783 37.4651 92.1075 38.3154 89.7371 38.3154V38.7276V39.1398C92.3084 39.1398 94.6652 38.2165 96.4924 36.6839L96.2275 36.3681ZM89.7371 38.7276V38.3154C87.3668 38.3154 85.1962 37.4652 83.5119 36.0527L83.2471 36.3685L82.9822 36.6843C84.8094 38.2167 87.1659 39.1398 89.7371 39.1398V38.7276Z" fill="#A4A4A4"/>
<circle cx="32.2628" cy="76.841" r="10.1056" fill="white" stroke="#A4A4A4" stroke-width="0.824324" stroke-miterlimit="10"/>
<path fill-rule="evenodd" clip-rule="evenodd" d="M25.7725 84.5874C26.0559 81.5089 28.48 79.0504 31.5428 78.7139C29.9113 78.3807 28.6838 76.9374 28.6838 75.2074C28.6838 73.2308 30.2862 71.6284 32.2628 71.6284C34.2394 71.6284 35.8418 73.2308 35.8418 75.2074C35.8418 76.9374 34.6143 78.3807 32.9827 78.7139C36.0454 79.0505 38.4695 81.509 38.753 84.5874C36.9972 86.06 34.7335 86.9467 32.2627 86.9467C29.7919 86.9467 27.5282 86.06 25.7725 84.5874Z" fill="#A4A4A4"/>
<path d="M31.5428 78.7139L31.5878 79.1236C31.7896 79.1015 31.9452 78.9357 31.9545 78.7329C31.9639 78.5301 31.8242 78.3507 31.6253 78.3101L31.5428 78.7139ZM25.7725 84.5874L25.362 84.5496C25.3496 84.6842 25.404 84.8163 25.5076 84.9032L25.7725 84.5874ZM32.9827 78.7139L32.9002 78.3101C32.7013 78.3507 32.5616 78.5301 32.571 78.7329C32.5803 78.9357 32.7359 79.1015 32.9377 79.1236L32.9827 78.7139ZM38.753 84.5874L39.0178 84.9032C39.1214 84.8163 39.1758 84.6842 39.1634 84.5496L38.753 84.5874ZM31.5428 78.7139L31.4978 78.3042C28.2407 78.6621 25.6635 81.2757 25.362 84.5496L25.7725 84.5874L26.1829 84.6252C26.4483 81.7421 28.7194 79.4388 31.5878 79.1236L31.5428 78.7139ZM28.6838 75.2074H28.2716C28.2716 77.1371 29.6407 78.7461 31.4603 79.1178L31.5428 78.7139L31.6253 78.3101C30.1818 78.0153 29.096 76.7377 29.096 75.2074H28.6838ZM32.2628 71.6284V71.2163C30.0585 71.2163 28.2716 73.0031 28.2716 75.2074H28.6838H29.096C29.096 73.4584 30.5138 72.0406 32.2628 72.0406V71.6284ZM35.8418 75.2074H36.2539C36.2539 73.0031 34.467 71.2163 32.2628 71.2163V71.6284V72.0406C34.0118 72.0406 35.4296 73.4584 35.4296 75.2074H35.8418ZM32.9827 78.7139L33.0652 79.1178C34.8848 78.7462 36.2539 77.1371 36.2539 75.2074H35.8418H35.4296C35.4296 76.7377 34.3437 78.0153 32.9002 78.3101L32.9827 78.7139ZM38.753 84.5874L39.1634 84.5496C38.862 81.2758 36.2848 78.6621 33.0277 78.3042L32.9827 78.7139L32.9377 79.1236C35.8061 79.4388 38.0771 81.7422 38.3425 84.6252L38.753 84.5874ZM38.753 84.5874L38.4881 84.2716C36.8038 85.6843 34.6331 86.5345 32.2627 86.5345V86.9467V87.3589C34.834 87.3589 37.1906 86.4357 39.0178 84.9032L38.753 84.5874ZM32.2627 86.9467V86.5345C29.8923 86.5345 27.7216 85.6842 26.0373 84.2716L25.7725 84.5874L25.5076 84.9032C27.3348 86.4357 29.6915 87.3589 32.2627 87.3589V86.9467Z" fill="#A4A4A4"/>
<path d="M18.8499 38.5295C18.8499 38.5295 13.904 38.5463 13.904 43.4754C13.904 38.5463 8.95801 38.5295 8.95801 38.5295C8.95801 38.5295 13.904 38.5126 13.904 33.5835C13.904 38.5126 18.8499 38.5295 18.8499 38.5295Z" fill="white" stroke="#A4A4A4" stroke-width="0.824324" stroke-linecap="round" stroke-linejoin="round"/>
<path d="M116.343 78.6135C116.343 78.6135 111.397 78.6303 111.397 83.5594C111.397 78.6303 106.451 78.6135 106.451 78.6135C106.451 78.6135 111.397 78.5966 111.397 73.6675C111.397 78.5966 116.343 78.6135 116.343 78.6135Z" fill="white" stroke="#A4A4A4" stroke-width="0.824324" stroke-linecap="round" stroke-linejoin="round"/>
<circle cx="48.4259" cy="66.0133" r="2.81262" fill="#EBEBEB"/>
<circle cx="62.2257" cy="66.0133" r="2.81262" fill="#EBEBEB"/>
<circle cx="76.0265" cy="66.0133" r="2.81262" fill="#EBEBEB"/>
</svg>
