<svg width="21" height="20" viewBox="0 0 21 20" fill="none" xmlns="http://www.w3.org/2000/svg">
<path d="M12.9181 12.6311L11.2584 16.1186C11.227 16.1845 11.18 16.2418 11.1215 16.2855C11.063 16.3293 10.9947 16.3581 10.9226 16.3695C10.8504 16.381 10.7766 16.3747 10.7074 16.3512C10.6383 16.3277 10.5759 16.2878 10.5256 16.2348L7.8691 13.4306C7.79813 13.3557 7.70361 13.3075 7.60135 13.2941L3.7711 12.7931C3.69874 12.7835 3.62978 12.7565 3.57017 12.7144C3.51056 12.6723 3.46209 12.6163 3.42895 12.5512C3.39581 12.4862 3.37898 12.4141 3.37992 12.3411C3.38086 12.2681 3.39954 12.1965 3.43435 12.1323L5.28085 8.7393C5.32994 8.64856 5.34636 8.54371 5.32735 8.4423L4.6201 4.64505C4.60667 4.57318 4.61096 4.49911 4.63259 4.42927C4.65422 4.35942 4.69255 4.2959 4.74425 4.2442C4.79595 4.1925 4.85947 4.15417 4.92932 4.13254C4.99916 4.11091 5.07323 4.10662 5.1451 4.12005L8.94235 4.8273C9.04376 4.84631 9.14861 4.82989 9.23935 4.7808L12.6324 2.9343C12.6966 2.89948 12.7683 2.88082 12.8413 2.87992C12.9144 2.87902 12.9865 2.89591 13.0516 2.92913C13.1166 2.96236 13.1726 3.01092 13.2147 3.07062C13.2568 3.13032 13.2837 3.19937 13.2931 3.2718L13.7941 7.1013C13.8076 7.20356 13.8558 7.29808 13.9306 7.36905L16.7349 10.0256C16.7878 10.0758 16.8278 10.1382 16.8513 10.2074C16.8747 10.2766 16.881 10.3504 16.8696 10.4225C16.8581 10.4947 16.8293 10.5629 16.7856 10.6214C16.7419 10.6799 16.6845 10.7269 16.6186 10.7583L13.1311 12.4181C13.0377 12.4625 12.9625 12.5377 12.9181 12.6311ZM13.5159 14.0763L14.5764 13.0158L17.7586 16.1973L16.6974 17.2586L13.5159 14.0763Z" fill="white"/>
</svg>
