<svg width="16" height="16" viewBox="0 0 16 16" fill="none" xmlns="http://www.w3.org/2000/svg">
<path d="M2.59961 4.99989L7.66661 1.62189C7.76521 1.5561 7.88108 1.521 7.99961 1.521C8.11814 1.521 8.23401 1.5561 8.33261 1.62189L13.3996 4.99989V13.3999C13.3996 13.559 13.3364 13.7116 13.2239 13.8242C13.1114 13.9367 12.9587 13.9999 12.7996 13.9999H3.19961C3.04048 13.9999 2.88787 13.9367 2.77535 13.8242C2.66282 13.7116 2.59961 13.559 2.59961 13.3999V4.99989ZM3.79961 5.64189V12.7999H12.1996V5.64189L7.99961 2.84229L3.79961 5.64189ZM7.99961 7.39989C7.68135 7.39989 7.37613 7.27346 7.15108 7.04841C6.92604 6.82337 6.79961 6.51815 6.79961 6.19989C6.79961 5.88163 6.92604 5.5764 7.15108 5.35136C7.37613 5.12631 7.68135 4.99989 7.99961 4.99989C8.31787 4.99989 8.62309 5.12631 8.84814 5.35136C9.07318 5.5764 9.19961 5.88163 9.19961 6.19989C9.19961 6.51815 9.07318 6.82337 8.84814 7.04841C8.62309 7.27346 8.31787 7.39989 7.99961 7.39989Z" fill="#FA7319"/>
</svg>
