<svg width="16" height="16" viewBox="0 0 16 16" fill="none" xmlns="http://www.w3.org/2000/svg">
<path d="M4.7001 2H11.3001C11.3932 2 11.4851 2.02169 11.5684 2.06334C11.6517 2.105 11.7242 2.16548 11.7801 2.24L13.4001 4.4V13.4C13.4001 13.5591 13.3369 13.7117 13.2244 13.8243C13.1118 13.9368 12.9592 14 12.8001 14H3.2001C3.04097 14 2.88836 13.9368 2.77583 13.8243C2.66331 13.7117 2.6001 13.5591 2.6001 13.4V4.4L4.2201 2.24C4.27599 2.16548 4.34846 2.105 4.43177 2.06334C4.51508 2.02169 4.60695 2 4.7001 2ZM12.2001 5.6H3.8001V12.8H12.2001V5.6ZM11.9001 4.4L11.0001 3.2H5.0001L4.1001 4.4H11.9001ZM6.2001 6.8V8C6.2001 8.47739 6.38974 8.93523 6.72731 9.27279C7.06487 9.61036 7.52271 9.8 8.0001 9.8C8.47749 9.8 8.93532 9.61036 9.27289 9.27279C9.61046 8.93523 9.8001 8.47739 9.8001 8V6.8H11.0001V8C11.0001 8.79565 10.684 9.55871 10.1214 10.1213C9.55881 10.6839 8.79575 11 8.0001 11C7.20445 11 6.44139 10.6839 5.87878 10.1213C5.31617 9.55871 5.0001 8.79565 5.0001 8V6.8H6.2001Z" fill="#47C2FF"/>
</svg>
