<svg width="16" height="16" viewBox="0 0 16 16" fill="none" xmlns="http://www.w3.org/2000/svg">
<path d="M12.8499 9.9198L13.5711 10.3524C13.6156 10.379 13.6524 10.4167 13.678 10.4619C13.7036 10.507 13.717 10.5579 13.717 10.6098C13.717 10.6617 13.7036 10.7126 13.678 10.7577C13.6524 10.8028 13.6156 10.8406 13.5711 10.8672L8.30911 14.0244C8.21579 14.0805 8.10897 14.1101 8.00011 14.1101C7.89124 14.1101 7.78443 14.0805 7.69111 14.0244L2.42911 10.8672C2.38462 10.8406 2.34779 10.8028 2.32222 10.7577C2.29664 10.7126 2.2832 10.6617 2.2832 10.6098C2.2832 10.5579 2.29664 10.507 2.32222 10.4619C2.34779 10.4167 2.38462 10.379 2.42911 10.3524L3.15031 9.9198L8.00011 12.8298L12.8499 9.9198ZM12.8499 7.0998L13.5711 7.5324C13.6156 7.55903 13.6524 7.59675 13.678 7.64186C13.7036 7.68697 13.717 7.73794 13.717 7.7898C13.717 7.84165 13.7036 7.89262 13.678 7.93774C13.6524 7.98285 13.6156 8.02056 13.5711 8.0472L8.00011 11.3898L2.42911 8.0472C2.38462 8.02056 2.34779 7.98285 2.32222 7.93774C2.29664 7.89262 2.2832 7.84165 2.2832 7.7898C2.2832 7.73794 2.29664 7.68697 2.32222 7.64186C2.34779 7.59675 2.38462 7.55903 2.42911 7.5324L3.15031 7.0998L8.00011 10.0098L12.8499 7.0998ZM8.30851 1.5852L13.5711 4.7424C13.6156 4.76903 13.6524 4.80675 13.678 4.85186C13.7036 4.89697 13.717 4.94794 13.717 4.9998C13.717 5.05165 13.7036 5.10262 13.678 5.14774C13.6524 5.19285 13.6156 5.23056 13.5711 5.2572L8.00011 8.5998L2.42911 5.2572C2.38462 5.23056 2.34779 5.19285 2.32222 5.14774C2.29664 5.10262 2.2832 5.05165 2.2832 4.9998C2.2832 4.94794 2.29664 4.89697 2.32222 4.85186C2.34779 4.80675 2.38462 4.76903 2.42911 4.7424L7.69111 1.5852C7.78443 1.52913 7.89124 1.49951 8.00011 1.49951C8.10897 1.49951 8.21579 1.52913 8.30911 1.5852H8.30851ZM8.00011 2.799L4.33231 4.9998L8.00011 7.2006L11.6679 4.9998L8.00011 2.799Z" fill="#335CFF"/>
</svg>
