<svg width="16" height="16" viewBox="0 0 16 16" fill="none" xmlns="http://www.w3.org/2000/svg">
<path d="M5.5 3.5V2.5H6.5V3.5H9.5V2.5H10.5V3.5H12.5C12.7761 3.5 13 3.72386 13 4V6.5H12V4.5H10.5V5.5H9.5V4.5H6.5V5.5H5.5V4.5H4V11.5H7V12.5H3.5C3.22386 12.5 3 12.2761 3 12V4C3 3.72386 3.22386 3.5 3.5 3.5H5.5ZM10.5 8C9.39545 8 8.5 8.89545 8.5 10C8.5 11.1046 9.39545 12 10.5 12C11.6046 12 12.5 11.1046 12.5 10C12.5 8.89545 11.6046 8 10.5 8ZM7.5 10C7.5 8.34315 8.84315 7 10.5 7C12.1568 7 13.5 8.34315 13.5 10C13.5 11.6568 12.1568 13 10.5 13C8.84315 13 7.5 11.6568 7.5 10ZM10 8.5V10.2071L11.1465 11.3535L11.8535 10.6465L11 9.7929V8.5H10Z" fill="#47C2FF"/>
</svg>
