<svg width="16" height="16" viewBox="0 0 16 16" fill="none" xmlns="http://www.w3.org/2000/svg">
<path d="M4.72176 2.6001H13.4008C13.5599 2.6001 13.7125 2.66331 13.825 2.77583C13.9375 2.88836 14.0008 3.04097 14.0008 3.2001V12.8001C14.0008 12.9592 13.9375 13.1118 13.825 13.2244C13.7125 13.3369 13.5599 13.4001 13.4008 13.4001H4.72176C4.62301 13.4001 4.52578 13.3758 4.43869 13.3292C4.35161 13.2826 4.27737 13.2152 4.22256 13.1331L1.02276 8.3331C0.956981 8.2345 0.921875 8.11863 0.921875 8.0001C0.921875 7.88157 0.956981 7.7657 1.02276 7.6671L4.22256 2.8671C4.27737 2.78495 4.35161 2.7176 4.43869 2.67102C4.52578 2.62444 4.62301 2.60008 4.72176 2.6001ZM5.04276 3.8001L2.24316 8.0001L5.04276 12.2001H12.8008V3.8001H5.04276ZM8.60076 7.1517L10.2976 5.4543L11.1466 6.3033L9.44916 8.0001L11.1466 9.6969L10.2976 10.5459L8.60076 8.8485L6.90396 10.5459L6.05496 9.6969L7.75237 8.0001L6.05496 6.3033L6.90396 5.4543L8.60076 7.1517Z" fill="#335CFF"/>
</svg>
