<svg width="16" height="16" viewBox="0 0 16 16" fill="none" xmlns="http://www.w3.org/2000/svg">
<path d="M11 4.4H14V5.6H12.8V13.4C12.8 13.5591 12.7368 13.7117 12.6243 13.8243C12.5117 13.9368 12.3591 14 12.2 14H3.8C3.64087 14 3.48826 13.9368 3.37574 13.8243C3.26321 13.7117 3.2 13.5591 3.2 13.4V5.6H2V4.4H5V2.6C5 2.44087 5.06321 2.28826 5.17574 2.17574C5.28826 2.06321 5.44087 2 5.6 2H10.4C10.5591 2 10.7117 2.06321 10.8243 2.17574C10.9368 2.28826 11 2.44087 11 2.6V4.4ZM11.6 5.6H4.4V12.8H11.6V5.6ZM8.8484 9.2L9.9092 10.2608L9.0608 11.1092L8 10.0484L6.9392 11.1092L6.0908 10.2608L7.1516 9.2L6.0908 8.1392L6.9392 7.2908L8 8.3516L9.0608 7.2908L9.9092 8.1392L8.8484 9.2ZM6.2 3.2V4.4H9.8V3.2H6.2Z" fill="#FB3748"/>
</svg>
