<svg width="16" height="16" viewBox="0 0 16 16" fill="none" xmlns="http://www.w3.org/2000/svg">
<path d="M5 4H4V3H12V4H11V5C11 5.80771 10.5919 6.45734 10.078 6.98834C9.7266 7.3515 9.299 7.686 8.86545 8C9.299 8.314 9.7266 8.6485 10.078 9.01165C10.5919 9.54265 11 10.1923 11 11V12H12V13H4V12H5V11C5 10.1923 5.40808 9.54265 5.92195 9.01165C6.27341 8.6485 6.70101 8.314 7.13455 8C6.70101 7.686 6.27341 7.3515 5.92195 6.98834C5.40808 6.45734 5 5.80771 5 5V4ZM6 4V5C6 5.44229 6.21692 5.85516 6.64055 6.29291C7.004 6.66849 7.4774 7.0199 8 7.38905C8.5226 7.0199 8.996 6.66849 9.35945 6.29291C9.7831 5.85516 10 5.44229 10 5V4H6ZM8 8.61095C7.4774 8.9801 7.004 9.3315 6.64055 9.7071C6.21692 10.1448 6 10.5577 6 11V12H10V11C10 10.5577 9.7831 10.1448 9.35945 9.7071C8.996 9.3315 8.5226 8.9801 8 8.61095Z" fill="#FA7319"/>
</svg>
