<svg width="16" height="16" viewBox="0 0 16 16" fill="none" xmlns="http://www.w3.org/2000/svg">
<path d="M6.80039 7.4V5.6L9.80039 8L6.80039 10.4V8.6H1.40039V7.4H6.80039ZM2.27519 9.8H3.54959C3.96842 10.8314 4.73261 11.6853 5.71146 12.2156C6.69031 12.7458 7.82298 12.9195 8.91572 12.7068C10.0085 12.4942 10.9934 11.9085 11.702 11.0499C12.4106 10.1914 12.7989 9.11324 12.8004 8C12.801 6.8856 12.4139 5.8057 11.7053 4.94553C10.9968 4.08537 10.0111 3.49853 8.91717 3.28569C7.82328 3.07284 6.68942 3.24725 5.71006 3.77899C4.7307 4.31073 3.96687 5.16667 3.54959 6.2H2.27519C3.03959 3.7658 5.31359 2 8.00039 2C11.3142 2 14.0004 4.6862 14.0004 8C14.0004 11.3138 11.3142 14 8.00039 14C5.31359 14 3.03959 12.2342 2.27519 9.8Z" fill="#FB4BA3"/>
</svg>
