<svg width="20" height="20" viewBox="0 0 20 20" fill="none" xmlns="http://www.w3.org/2000/svg">
<path d="M11.1905 2.8988C12.4722 2.89819 13.7154 3.33701 14.7127 4.14208C15.7099 4.94714 16.4011 6.06978 16.6708 7.32277C16.9405 8.57575 16.7725 9.88334 16.1948 11.0274C15.6171 12.1715 14.6646 13.083 13.4962 13.6098C13.1227 14.4355 12.5545 15.1583 11.8404 15.7162C11.1262 16.274 10.2874 16.6504 9.39587 16.8129C8.50433 16.9754 7.58668 16.9193 6.72161 16.6493C5.85654 16.3792 5.06987 15.9034 4.42907 15.2626C3.78827 14.6218 3.31246 13.8352 3.04245 12.9701C2.77244 12.105 2.71628 11.1874 2.8788 10.2958C3.04132 9.4043 3.41766 8.56548 3.97554 7.85133C4.53343 7.13717 5.25621 6.569 6.0819 6.19552C6.52605 5.2128 7.24425 4.37907 8.15038 3.79432C9.05651 3.20957 10.1121 2.89864 11.1905 2.8988V2.8988ZM8.38897 7.10112C7.83712 7.10112 7.29067 7.20982 6.78082 7.421C6.27097 7.63219 5.80771 7.94173 5.41749 8.33195C5.02727 8.72217 4.71773 9.18543 4.50654 9.69528C4.29535 10.2051 4.18666 10.7516 4.18666 11.3034C4.18666 11.8553 4.29535 12.4017 4.50654 12.9116C4.71773 13.4214 5.02727 13.8847 5.41749 14.2749C5.80771 14.6651 6.27097 14.9747 6.78082 15.1859C7.29067 15.3971 7.83712 15.5057 8.38897 15.5057C9.5035 15.5057 10.5724 15.063 11.3605 14.2749C12.1485 13.4868 12.5913 12.418 12.5913 11.3034C12.5913 10.1889 12.1485 9.12004 11.3605 8.33195C10.5724 7.54386 9.5035 7.10112 8.38897 7.10112ZM9.08936 7.8015V8.50189H10.4901V9.90266H7.68859C7.60108 9.9025 7.51668 9.93511 7.45201 9.99407C7.38734 10.053 7.34709 10.1341 7.33918 10.2212C7.33127 10.3084 7.35629 10.3953 7.40929 10.465C7.46229 10.5346 7.53944 10.5819 7.62555 10.5974L7.68859 10.603H9.08936C9.55374 10.603 9.99911 10.7875 10.3275 11.1159C10.6558 11.4443 10.8403 11.8896 10.8403 12.354C10.8403 12.8184 10.6558 13.2638 10.3275 13.5921C9.99911 13.9205 9.55374 14.105 9.08936 14.105V14.8054H7.68859V14.105H6.28782V12.7042H9.08936C9.17687 12.7044 9.26127 12.6718 9.32594 12.6128C9.39061 12.5538 9.43086 12.4728 9.43876 12.3857C9.44667 12.2985 9.42166 12.2115 9.36866 12.1419C9.31566 12.0723 9.2385 12.025 9.15239 12.0094L9.08936 12.0038H7.68859C7.2242 12.0038 6.77884 11.8193 6.45047 11.491C6.1221 11.1626 5.93762 10.7172 5.93762 10.2529C5.93762 9.78847 6.1221 9.34311 6.45047 9.01474C6.77884 8.68637 7.2242 8.50189 7.68859 8.50189V7.8015H9.08936ZM11.1905 4.29958C10.5971 4.29888 10.0102 4.4242 9.46884 4.66725C8.92745 4.9103 8.44383 5.26553 8.04999 5.70945C8.84161 5.6614 9.63441 5.78194 10.376 6.06311C11.1175 6.34428 11.791 6.77967 12.3517 7.3405C12.9125 7.90132 13.3478 8.5748 13.6289 9.31639C13.91 10.058 14.0304 10.8508 13.9823 11.6424C14.6191 11.0762 15.0687 10.3299 15.2715 9.50226C15.4744 8.67466 15.4208 7.80495 15.118 7.00847C14.8152 6.212 14.2774 5.5264 13.576 5.0426C12.8745 4.55881 12.0426 4.29967 11.1905 4.29958V4.29958Z" fill="#5C5C5C"/>
</svg>
