<svg width="24" height="24" viewBox="0 0 24 24" fill="none" xmlns="http://www.w3.org/2000/svg">
<path d="M1.5 8.96667C1.5 6.35309 1.5 5.0463 2.00864 4.04804C2.45605 3.16995 3.16995 2.45605 4.04804 2.00864C5.0463 1.5 6.35309 1.5 8.96667 1.5H15.0333C17.6469 1.5 18.9537 1.5 19.952 2.00864C20.83 2.45605 21.544 3.16995 21.9914 4.04804C22.5 5.0463 22.5 6.35309 22.5 8.96667V15.0333C22.5 17.6469 22.5 18.9537 21.9914 19.952C21.544 20.83 20.83 21.544 19.952 21.9914C18.9537 22.5 17.6469 22.5 15.0333 22.5H8.96667C6.35309 22.5 5.0463 22.5 4.04804 21.9914C3.16995 21.544 2.45605 20.83 2.00864 19.952C1.5 18.9537 1.5 17.6469 1.5 15.0333V8.96667Z" fill="white"/>
<path fill-rule="evenodd" clip-rule="evenodd" d="M18 9.6087L17.9999 9.64057C17.9998 9.654 17.9997 9.66743 17.9996 9.68086C17.9999 9.69653 18 9.71232 18 9.72826C18 12.2305 16.0505 14.4453 14.746 15.9275C14.3675 16.3576 14.0433 16.7259 13.8367 17.0217C13.102 18.0739 12.7143 19.2138 12.6122 19.6522C12.6122 19.9824 12.3381 20.25 12 20.25C11.6619 20.25 11.3878 19.9824 11.3878 19.6522C11.2857 19.2138 10.898 18.0739 10.1633 17.0217C9.95672 16.7259 9.6325 16.3576 9.25397 15.9275C7.94945 14.4453 6 12.2305 6 9.72826C6 9.71232 6.00015 9.69653 6.00045 9.68086C6.00015 9.65683 6 9.63278 6 9.6087C6 6.37302 8.68628 3.75 12 3.75C15.3137 3.75 18 6.37302 18 9.6087ZM12 11.7609C13.2849 11.7609 14.3265 10.7438 14.3265 9.48913C14.3265 8.23448 13.2849 7.21739 12 7.21739C10.7151 7.21739 9.67347 8.23448 9.67347 9.48913C9.67347 10.7438 10.7151 11.7609 12 11.7609Z" fill="#34A851"/>
<path d="M17.3289 6.91392C16.5942 5.5316 15.312 4.47133 13.7627 4.00708L10.3167 7.92109C10.7404 7.48764 11.3379 7.21759 12 7.21759C13.2849 7.21759 14.3265 8.23469 14.3265 9.48933C14.3265 10.0012 14.1532 10.4735 13.8607 10.8533L17.3289 6.91392Z" fill="#4285F5"/>
<path d="M9.32354 16.0066C9.30057 15.9805 9.27737 15.9541 9.25396 15.9275C8.39407 14.9506 7.25396 13.6552 6.57666 12.1691L10.1582 8.10107C9.85428 8.48496 9.67346 8.96643 9.67346 9.48918C9.67346 10.7438 10.7151 11.7609 12 11.7609C12.6509 11.7609 13.2393 11.4999 13.6616 11.0793L9.32354 16.0066Z" fill="#F9BB0E"/>
<path d="M7.41966 5.82422C6.53406 6.84513 6 8.16604 6 9.60877C6 9.63285 6.00015 9.6569 6.00045 9.68093C6.00015 9.6966 6 9.71239 6 9.72833C6 10.5812 6.22647 11.4006 6.57667 12.1691L10.1521 8.10795L7.41966 5.82422Z" fill="#E74335"/>
<path d="M13.7627 4.00691C13.2053 3.83991 12.6134 3.75 12 3.75C10.1638 3.75 8.52027 4.5554 7.41968 5.82415L10.1521 8.10785L10.1581 8.10111C10.2078 8.03832 10.2608 7.97813 10.3168 7.9208L13.7627 4.00691Z" fill="#1A73E6"/>
</svg>
