<svg width="20" height="20" viewBox="0 0 20 20" fill="none" xmlns="http://www.w3.org/2000/svg">
<path d="M16 15.9999C16 16.1989 15.921 16.3896 15.7803 16.5303C15.6397 16.6709 15.4489 16.7499 15.25 16.7499H4.75C4.55109 16.7499 4.36032 16.6709 4.21967 16.5303C4.07902 16.3896 4 16.1989 4 15.9999V9.24994H1.75L9.49525 2.20894C9.63333 2.0833 9.81331 2.01367 10 2.01367C10.1867 2.01367 10.3667 2.0833 10.5048 2.20894L18.25 9.24994H16V15.9999ZM6.625 10.7499C6.625 11.645 6.98058 12.5035 7.61351 13.1364C8.24645 13.7694 9.10489 14.1249 10 14.1249C10.8951 14.1249 11.7535 13.7694 12.3865 13.1364C13.0194 12.5035 13.375 11.645 13.375 10.7499H11.875C11.875 11.2472 11.6775 11.7241 11.3258 12.0758C10.9742 12.4274 10.4973 12.6249 10 12.6249C9.50272 12.6249 9.02581 12.4274 8.67417 12.0758C8.32254 11.7241 8.125 11.2472 8.125 10.7499H6.625Z" fill="#1FC16B"/>
</svg>
