<svg width="10" height="8" viewBox="0 0 10 8" fill="none" xmlns="http://www.w3.org/2000/svg">
<path d="M1.52148 5.56519C1.52148 6.14147 1.98867 6.60865 2.56495 6.60865H5.69539C5.69539 7.0889 6.0847 7.47822 6.56495 7.47822H7.60842C8.08867 7.47822 8.47798 7.0889 8.47798 6.60865V5.56519H1.52148Z" fill="#F0F0F0"/>
<path d="M8.5648 0.521729V2.95651C8.5648 3.3401 8.25273 3.65217 7.86914 3.65217V4.69563C8.82811 4.69563 9.60827 3.91545 9.60827 2.95651V0.521729H8.5648Z" fill="#F0F0F0"/>
<path d="M1.08677 2.95651C1.08677 3.3401 0.774707 3.65217 0.391113 3.65217V4.69563C1.35008 4.69563 2.13024 3.91545 2.13024 2.95651V0.521729H1.08677V2.95651Z" fill="#F0F0F0"/>
<path d="M7 0.521729H8.04347V2.95651H7V0.521729Z" fill="#F0F0F0"/>
<path d="M5.43445 1.91304C5.43445 2.00895 5.35642 2.08695 5.26054 2.08695C5.16467 2.08695 5.08664 2.00892 5.08664 1.91304V0.521729H4.04317V1.91304C4.04317 2.00895 3.96514 2.08695 3.86926 2.08695C3.77339 2.08695 3.69536 2.00892 3.69536 1.91304V0.521729H2.65186V1.91304C2.65186 2.58432 3.19798 3.13045 3.86926 3.13045C4.12779 3.13045 4.36754 3.0492 4.56492 2.9112C4.76226 3.04917 5.00204 3.13045 5.26057 3.13045C5.31264 3.13045 5.36382 3.12679 5.41417 3.12038C5.34023 3.42504 5.06586 3.65217 4.73882 3.65217V4.69563C5.69779 4.69563 6.47795 3.91545 6.47795 2.95651V1.91304V0.521729H5.43448V1.91304H5.43445Z" fill="#F0F0F0"/>
<path d="M2.65186 3.65222H4.21707V4.69569H2.65186V3.65222Z" fill="#F0F0F0"/>
</svg>
