<svg width="24" height="24" viewBox="0 0 24 24" fill="none" xmlns="http://www.w3.org/2000/svg">
<path d="M5.92622 4.56693C9.69664 1.47667 15.2688 1.69171 18.7886 5.21205C22.537 8.96086 22.537 15.0396 18.7886 18.7884C15.0403 22.5372 8.96233 22.5372 5.21399 18.7884C4.0637 17.6395 3.22423 16.2171 2.77441 14.6548C2.32459 13.0924 2.27919 11.4413 2.64246 9.85654L2.71638 9.55606L4.57279 10.0457C4.11257 11.795 4.28453 13.6507 5.05837 15.2857C5.83221 16.9207 7.15827 18.2301 8.80283 18.983C10.4474 19.7359 12.3049 19.8841 14.048 19.4014C15.7911 18.9188 17.308 17.8363 18.3312 16.3446C19.3544 14.853 19.8184 13.0481 19.6413 11.2478C19.4642 9.44761 18.6574 7.76769 17.3631 6.50412C16.0688 5.24055 14.3701 4.47444 12.5664 4.34081C10.7626 4.20718 8.96961 4.7146 7.50331 5.77365L7.29117 5.93301L8.26737 6.90933L3.85576 7.92694L4.87323 3.51476L5.92526 4.56693H5.92622ZM12.9612 6.24021V8.16022H15.3609V10.0802H10.0816C9.96162 10.08 9.84595 10.1247 9.75732 10.2055C9.66869 10.2863 9.61353 10.3974 9.60269 10.5169C9.59186 10.6363 9.62613 10.7555 9.69877 10.8509C9.77141 10.9464 9.87715 11.0112 9.99516 11.0325L10.0816 11.0402H13.9211C14.5575 11.0402 15.1679 11.2931 15.6179 11.7432C16.068 12.1933 16.3208 12.8037 16.3208 13.4402C16.3208 14.0768 16.068 14.6872 15.6179 15.1373C15.1679 15.5874 14.5575 15.8402 13.9211 15.8402H12.9612V17.7603H11.0414V15.8402H8.64173V13.9202H13.9211C14.041 13.9205 14.1567 13.8758 14.2453 13.795C14.3339 13.7141 14.3891 13.6031 14.3999 13.4836C14.4108 13.3642 14.3765 13.245 14.3039 13.1495C14.2312 13.0541 14.1255 12.9893 14.0075 12.9679L13.9211 12.9602H10.0816C9.44511 12.9602 8.83474 12.7074 8.38471 12.2573C7.93467 11.8072 7.68185 11.1967 7.68185 10.5602C7.68185 9.9237 7.93467 9.31325 8.38471 8.86316C8.83474 8.41308 9.44511 8.16022 10.0816 8.16022H11.0414V6.24021H12.9612Z" fill="#5C5C5C"/>
</svg>
