<svg width="21" height="20" viewBox="0 0 21 20" fill="none" xmlns="http://www.w3.org/2000/svg">
<path d="M11.117 3.27683L17.9045 15.1688C17.9671 15.2783 18 15.4026 18 15.5291C18 15.6556 17.9671 15.7799 17.9045 15.8895C17.842 15.999 17.7521 16.09 17.6438 16.1533C17.5354 16.2165 17.4126 16.2498 17.2875 16.2498H3.7125C3.58743 16.2498 3.46456 16.2165 3.35625 16.1533C3.24794 16.09 3.15799 15.999 3.09546 15.8895C3.03292 15.7799 3 15.6556 3 15.5291C3 15.4026 3.03292 15.2783 3.09546 15.1688L9.88295 3.27683C9.94549 3.16728 10.0354 3.0763 10.1438 3.01305C10.2521 2.9498 10.3749 2.9165 10.5 2.9165C10.6251 2.9165 10.7479 2.9498 10.8562 3.01305C10.9646 3.0763 11.0545 3.16728 11.117 3.27683ZM9.78748 12.6462V14.0877H11.2125V12.6462H9.78748ZM9.78748 7.60117V11.2048H11.2125V7.60117H9.78748Z" fill="white"/>
</svg>
