<svg width="248" height="108" viewBox="0 0 248 108" fill="none" xmlns="http://www.w3.org/2000/svg">
<path d="M3.61593 105.714H0.552679C0.247443 105.714 0 105.962 0 106.267C0 106.572 0.247443 106.82 0.552679 106.82H243.532C245.999 106.82 248 104.819 248 102.351V6.27902C248 3.81115 245.999 1.81055 243.532 1.81055H236.247C234.648 1.81055 233.171 2.66509 232.374 4.05132L204.726 52.1257C203.929 53.5119 202.452 54.3665 200.853 54.3665H196.052C194.157 54.3665 192.468 53.1705 191.838 51.3827L175.426 4.79433C174.796 3.00649 173.107 1.81055 171.211 1.81055H158.549C156.562 1.81055 154.814 3.12205 154.259 5.02935L140.825 51.1477C140.27 53.055 138.527 54.3665 136.54 54.3665H118.064C116.26 54.3665 114.636 55.452 113.942 57.1182L100.581 89.2281C99.8877 90.8942 98.2601 91.9798 96.4555 91.9798H91.6154C89.8025 91.9798 88.1693 90.8846 87.4813 89.2074L74.325 57.1389C73.6369 55.4617 72.0037 54.3665 70.1909 54.3665H62.6597C60.6638 54.3665 58.91 53.0429 58.3626 51.1236L45.2222 5.05338C44.6748 3.13409 42.9209 1.81055 40.9251 1.81055H29.9249C27.7766 1.81055 25.9323 3.33933 25.534 5.4504L7.16916 102.769C6.84679 104.477 5.35439 105.714 3.61593 105.714Z" fill="url(#paint0_linear_673_15433)" fill-opacity="0.06"/>
<path d="M0 106.82H2.90199C5.05355 106.82 6.89963 105.286 7.29455 103.171L25.5396 5.45883C25.9345 3.34382 27.7806 1.81055 29.9322 1.81055H40.9154C42.9158 1.81055 44.6725 3.14009 45.2158 5.06532L58.3689 51.6708C58.9123 53.596 60.669 54.9256 62.6694 54.9256H70.1789C71.9977 54.9256 73.6351 56.028 74.3192 57.7133L87.487 90.1513C88.1711 91.8366 89.8085 92.9391 91.6274 92.9391H96.4434C98.2541 92.9391 99.8859 91.8463 100.575 90.1719L113.948 57.6928C114.638 56.0184 116.266 54.9256 118.076 54.9256C123.784 54.9256 131.984 54.9256 136.53 54.9256C138.521 54.9256 140.267 53.608 140.819 51.6946L154.265 5.04148C154.817 3.12812 156.568 1.81055 158.559 1.81055H171.2C173.101 1.81055 174.794 3.01323 175.42 4.80826L191.844 51.9279C192.47 53.7229 194.163 54.9256 196.063 54.9256H200.839C202.445 54.9256 203.928 54.0633 204.723 52.6671L232.377 4.06901C233.172 2.67282 234.655 1.81055 236.261 1.81055L248 1.81055" stroke="#335CFF" stroke-width="2.23423"/>
<defs>
<linearGradient id="paint0_linear_673_15433" x1="124" y1="41.4682" x2="124" y2="106.82" gradientUnits="userSpaceOnUse">
<stop stop-color="#CFD1D3"/>
<stop offset="1" stop-color="#E4E5E7" stop-opacity="0"/>
</linearGradient>
</defs>
</svg>
