<svg width="12" height="14" viewBox="0 0 12 14" fill="none" xmlns="http://www.w3.org/2000/svg">
<path d="M9.8185 9.21835L6.0001 13.0368L2.1817 9.21835C1.4265 8.46315 0.91221 7.50096 0.703855 6.45346C0.4955 5.40597 0.602442 4.32021 1.01116 3.33349C1.41987 2.34678 2.112 1.50342 3.00003 0.91006C3.88805 0.316703 4.93208 0 6.0001 0C7.06812 0 8.11215 0.316703 9.00017 0.91006C9.8882 1.50342 10.5803 2.34678 10.989 3.33349C11.3978 4.32021 11.5047 5.40597 11.2963 6.45346C11.088 7.50096 10.5737 8.46315 9.8185 9.21835ZM6.0001 7.79995C6.63662 7.79995 7.24707 7.5471 7.69716 7.09701C8.14724 6.64692 8.4001 6.03647 8.4001 5.39995C8.4001 4.76343 8.14724 4.15298 7.69716 3.7029C7.24707 3.25281 6.63662 2.99995 6.0001 2.99995C5.36358 2.99995 4.75313 3.25281 4.30304 3.7029C3.85296 4.15298 3.6001 4.76343 3.6001 5.39995C3.6001 6.03647 3.85296 6.64692 4.30304 7.09701C4.75313 7.5471 5.36358 7.79995 6.0001 7.79995ZM6.0001 6.59995C5.68184 6.59995 5.37662 6.47353 5.15157 6.24848C4.92653 6.02344 4.8001 5.71821 4.8001 5.39995C4.8001 5.08169 4.92653 4.77647 5.15157 4.55143C5.37662 4.32638 5.68184 4.19995 6.0001 4.19995C6.31836 4.19995 6.62358 4.32638 6.84863 4.55143C7.07367 4.77647 7.2001 5.08169 7.2001 5.39995C7.2001 5.71821 7.07367 6.02344 6.84863 6.24848C6.62358 6.47353 6.31836 6.59995 6.0001 6.59995Z" fill="#1FC16B"/>
</svg>
