<svg width="40" height="40" viewBox="0 0 40 40" fill="none" xmlns="http://www.w3.org/2000/svg">
<path d="M0 10C0 4.47715 4.47715 0 10 0H30C35.5228 0 40 4.47715 40 10V30C40 35.5228 35.5228 40 30 40H10C4.47715 40 0 35.5228 0 30V10Z" fill="#F7F7F7"/>
<path d="M27.5 16.25H28.25V23.75H27.5V26C27.5 26.1989 27.421 26.3897 27.2803 26.5303C27.1397 26.671 26.9489 26.75 26.75 26.75H13.25C13.0511 26.75 12.8603 26.671 12.7197 26.5303C12.579 26.3897 12.5 26.1989 12.5 26V14C12.5 13.8011 12.579 13.6103 12.7197 13.4697C12.8603 13.329 13.0511 13.25 13.25 13.25H26.75C26.9489 13.25 27.1397 13.329 27.2803 13.4697C27.421 13.6103 27.5 13.8011 27.5 14V16.25ZM26 23.75H21.5C20.5054 23.75 19.5516 23.3549 18.8483 22.6517C18.1451 21.9484 17.75 20.9946 17.75 20C17.75 19.0054 18.1451 18.0516 18.8483 17.3483C19.5516 16.6451 20.5054 16.25 21.5 16.25H26V14.75H14V25.25H26V23.75ZM26.75 22.25V17.75H21.5C20.9033 17.75 20.331 17.9871 19.909 18.409C19.4871 18.831 19.25 19.4033 19.25 20C19.25 20.5967 19.4871 21.169 19.909 21.591C20.331 22.0129 20.9033 22.25 21.5 22.25H26.75ZM21.5 19.25H23.75V20.75H21.5V19.25Z" fill="#171717"/>
<g filter="url(#filter0_d_2415_29100)">
<circle cx="26" cy="14" r="2" fill="#FB3748"/>
<circle cx="26" cy="14" r="3" stroke="white" stroke-width="2"/>
</g>
<defs>
<filter id="filter0_d_2415_29100" x="20" y="9" width="12" height="12" filterUnits="userSpaceOnUse" color-interpolation-filters="sRGB">
<feFlood flood-opacity="0" result="BackgroundImageFix"/>
<feColorMatrix in="SourceAlpha" type="matrix" values="0 0 0 0 0 0 0 0 0 0 0 0 0 0 0 0 0 0 127 0" result="hardAlpha"/>
<feOffset dy="1"/>
<feGaussianBlur stdDeviation="1"/>
<feComposite in2="hardAlpha" operator="out"/>
<feColorMatrix type="matrix" values="0 0 0 0 0.0392157 0 0 0 0 0.0509804 0 0 0 0 0.0784314 0 0 0 0.03 0"/>
<feBlend mode="normal" in2="BackgroundImageFix" result="effect1_dropShadow_2415_29100"/>
<feBlend mode="normal" in="SourceGraphic" in2="effect1_dropShadow_2415_29100" result="shape"/>
</filter>
</defs>
</svg>
