<svg width="16" height="16" viewBox="0 0 16 16" fill="none" xmlns="http://www.w3.org/2000/svg">
<path d="M7.99998 15.0368L4.18158 11.2184C3.42638 10.4631 2.91209 9.50096 2.70373 8.45346C2.49538 7.40597 2.60232 6.32021 3.01103 5.33349C3.41975 4.34678 4.11188 3.50342 4.99991 2.91006C5.88793 2.3167 6.93196 2 7.99998 2C9.06799 2 10.112 2.3167 11 2.91006C11.8881 3.50342 12.5802 4.34678 12.9889 5.33349C13.3976 6.32021 13.5046 7.40597 13.2962 8.45346C13.0879 9.50096 12.5736 10.4631 11.8184 11.2184L7.99998 15.0368ZM10.97 10.37C11.5573 9.78256 11.9573 9.03419 12.1193 8.21948C12.2813 7.40477 12.1981 6.56031 11.8802 5.79289C11.5623 5.02546 11.024 4.36954 10.3333 3.90805C9.64265 3.44657 8.83064 3.20026 7.99998 3.20026C7.16931 3.20026 6.3573 3.44657 5.66663 3.90805C4.97595 4.36954 4.43763 5.02546 4.11972 5.79289C3.80182 6.56031 3.71863 7.40477 3.88065 8.21948C4.04267 9.03419 4.44264 9.78256 5.02998 10.37L7.99998 13.34L10.97 10.37ZM7.99998 8.59995C7.68172 8.59995 7.37649 8.47353 7.15145 8.24848C6.92641 8.02344 6.79998 7.71821 6.79998 7.39995C6.79998 7.08169 6.92641 6.77647 7.15145 6.55143C7.37649 6.32638 7.68172 6.19995 7.99998 6.19995C8.31824 6.19995 8.62346 6.32638 8.84851 6.55143C9.07355 6.77647 9.19998 7.08169 9.19998 7.39995C9.19998 7.71821 9.07355 8.02344 8.84851 8.24848C8.62346 8.47353 8.31824 8.59995 7.99998 8.59995Z" fill="#335CFF"/>
</svg>
