<svg width="40" height="40" viewBox="0 0 40 40" fill="none" xmlns="http://www.w3.org/2000/svg">
<path d="M29.58 5.1504C27.8945 3.43985 26.0587 2.14915 24.0725 1.29705C22.0926 0.432377 19.956 0.00628374 17.7004 0C12.7819 0 8.60895 1.87972 5.16287 5.62661C1.72305 9.37974 0.00625572 14.1917 0 20.0627C0 25.7268 1.77317 30.4699 5.32578 34.2732C8.87838 38.0889 13.0889 40 17.9573 40C20.1314 40.0031 22.149 39.6117 24.0036 38.8345C25.8645 38.0513 27.7191 36.7794 29.5675 35V39.0288H39.0787V0.996274H29.58V5.1504ZM27.0612 28.1203C25.1063 30.213 22.644 31.2469 19.674 31.2531C16.7981 31.25 14.3733 30.188 12.4122 28.0577C10.4448 25.9336 9.46108 23.2205 9.46108 19.9311C9.46108 16.6541 10.4322 13.9787 12.3621 11.886C14.2981 9.79325 16.7229 8.75942 19.649 8.75942C22.644 8.75942 25.1189 9.78699 27.0738 11.8359C29.0286 13.8972 29.6614 16.2406 29.6552 19.5551C29.6552 22.9449 29.0224 26.0338 27.0612 28.1203Z" fill="#A4A4A4"/>
</svg>
