<svg width="21" height="20" viewBox="0 0 21 20" fill="none" xmlns="http://www.w3.org/2000/svg">
<path d="M6.75 15.25V10.75H14.25V15.25H15.75V6.871L13.629 4.75H5.25V15.25H6.75ZM4.5 3.25H14.25L17.25 6.25V16C17.25 16.1989 17.171 16.3897 17.0303 16.5303C16.8897 16.671 16.6989 16.75 16.5 16.75H4.5C4.30109 16.75 4.11032 16.671 3.96967 16.5303C3.82902 16.3897 3.75 16.1989 3.75 16V4C3.75 3.80109 3.82902 3.61032 3.96967 3.46967C4.11032 3.32902 4.30109 3.25 4.5 3.25ZM8.25 12.25V15.25H12.75V12.25H8.25Z" fill="#5C5C5C"/>
</svg>
