<svg width="52" height="52" viewBox="0 0 52 52" fill="none" xmlns="http://www.w3.org/2000/svg">
<g filter="url(#filter0_d_411_54627)">
<path d="M2 25C2 11.7452 12.7452 1 26 1C39.2548 1 50 11.7452 50 25C50 38.2548 39.2548 49 26 49C12.7452 49 2 38.2548 2 25Z" fill="white"/>
<path d="M26 1.5C38.9787 1.5 49.5 12.0213 49.5 25C49.5 37.9787 38.9787 48.5 26 48.5C13.0213 48.5 2.5 37.9787 2.5 25C2.5 12.0213 13.0213 1.5 26 1.5Z" stroke="#EBEBEB"/>
<path d="M23.2685 30.4C23.1615 31.1509 22.7872 31.8379 22.2143 32.335C21.6414 32.832 20.9085 33.1056 20.15 33.1056C19.3916 33.1056 18.6586 32.832 18.0857 32.335C17.5128 31.8379 17.1385 31.1509 17.0315 30.4H16.1V19.6C16.1 19.3613 16.1948 19.1324 16.3636 18.9636C16.5324 18.7948 16.7613 18.7 17 18.7H29.6C29.8387 18.7 30.0676 18.7948 30.2364 18.9636C30.4052 19.1324 30.5 19.3613 30.5 19.6V21.4H33.2L35.9 25.0504V30.4H34.0685C33.9615 31.1509 33.5872 31.8379 33.0143 32.335C32.4414 32.832 31.7085 33.1056 30.95 33.1056C30.1916 33.1056 29.4586 32.832 28.8857 32.335C28.3128 31.8379 27.9385 31.1509 27.8315 30.4H23.2685ZM28.7 20.5H17.9V27.745C18.2551 27.3825 18.6925 27.1111 19.1751 26.954C19.6576 26.7969 20.171 26.7587 20.6714 26.8427C21.1719 26.9266 21.6447 27.1303 22.0496 27.4362C22.4544 27.7422 22.7793 28.1415 22.9967 28.6H28.1033C28.2545 28.2823 28.457 27.9934 28.7 27.745V20.5ZM30.5 25.9H34.1V25.6435L32.2928 23.2H30.5V25.9ZM30.95 31.3C31.3082 31.3 31.6517 31.1577 31.9049 30.9045C32.1582 30.6512 32.3005 30.3077 32.3005 29.9496C32.3005 29.5914 32.1582 29.2479 31.9049 28.9946C31.6517 28.7414 31.3082 28.5991 30.95 28.5991C30.5918 28.5991 30.2484 28.7414 29.9951 28.9946C29.7418 29.2479 29.5996 29.5914 29.5996 29.9496C29.5996 30.3077 29.7418 30.6512 29.9951 30.9045C30.2484 31.1577 30.5918 31.3 30.95 31.3ZM21.5 29.95C21.5 29.7727 21.4651 29.5972 21.3972 29.4334C21.3294 29.2696 21.23 29.1208 21.1046 28.9954C20.9792 28.8701 20.8304 28.7706 20.6666 28.7028C20.5028 28.6349 20.3273 28.6 20.15 28.6C19.9727 28.6 19.7972 28.6349 19.6334 28.7028C19.4696 28.7706 19.3208 28.8701 19.1954 28.9954C19.0701 29.1208 18.9706 29.2696 18.9028 29.4334C18.8349 29.5972 18.8 29.7727 18.8 29.95C18.8 30.3081 18.9422 30.6514 19.1954 30.9046C19.4486 31.1578 19.792 31.3 20.15 31.3C20.508 31.3 20.8514 31.1578 21.1046 30.9046C21.3578 30.6514 21.5 30.3081 21.5 29.95Z" fill="#5C5C5C"/>
</g>
<defs>
<filter id="filter0_d_411_54627" x="0" y="0" width="52" height="52" filterUnits="userSpaceOnUse" color-interpolation-filters="sRGB">
<feFlood flood-opacity="0" result="BackgroundImageFix"/>
<feColorMatrix in="SourceAlpha" type="matrix" values="0 0 0 0 0 0 0 0 0 0 0 0 0 0 0 0 0 0 127 0" result="hardAlpha"/>
<feOffset dy="1"/>
<feGaussianBlur stdDeviation="1"/>
<feComposite in2="hardAlpha" operator="out"/>
<feColorMatrix type="matrix" values="0 0 0 0 0.0392157 0 0 0 0 0.0509804 0 0 0 0 0.0784314 0 0 0 0.03 0"/>
<feBlend mode="normal" in2="BackgroundImageFix" result="effect1_dropShadow_411_54627"/>
<feBlend mode="normal" in="SourceGraphic" in2="effect1_dropShadow_411_54627" result="shape"/>
</filter>
</defs>
</svg>
