<svg width="123" height="125" viewBox="0 0 123 125" fill="none" xmlns="http://www.w3.org/2000/svg">
<rect x="0.5" y="1" width="122" height="122" rx="61" fill="#F5F5F5"/>
<path d="M87.5861 88.5836V35.0209C87.5861 31.9335 85.0832 29.4306 81.9958 29.4306H41.6136C36.25 29.4306 31.9019 33.7788 31.9019 39.1424V88.5836" fill="white"/>
<path d="M87.5861 88.5836V35.0209C87.5861 31.9335 85.0832 29.4306 81.9958 29.4306H41.6136C36.25 29.4306 31.9019 33.7788 31.9019 39.1424V88.5836" stroke="#A4A4A4" stroke-width="0.824324" stroke-linecap="round" stroke-linejoin="round"/>
<path d="M31.9019 88.5836L36.1823 92.4506C38.7588 94.7781 42.609 94.9957 45.4312 92.9731L45.7504 92.7444C48.4493 90.8102 52.1074 90.9159 54.6901 93.0027L54.9928 93.2473C57.7496 95.4748 61.7003 95.4288 64.4044 93.1376L64.4683 93.0835C67.1663 90.7976 71.1064 90.746 73.8634 92.9606C76.7895 95.3111 81.0136 95.0918 83.6806 92.4508L87.5861 88.5836" fill="white"/>
<path d="M31.9019 88.5836L36.1823 92.4506C38.7588 94.7781 42.609 94.9957 45.4312 92.9731L45.7504 92.7444C48.4493 90.8102 52.1074 90.9159 54.6901 93.0027L54.9928 93.2473C57.7496 95.4748 61.7003 95.4288 64.4044 93.1376L64.4683 93.0835C67.1663 90.7976 71.1064 90.746 73.8634 92.9606C76.7895 95.3111 81.0136 95.0918 83.6806 92.4508L87.5861 88.5836" stroke="#A4A4A4" stroke-width="0.824324" stroke-linecap="round" stroke-linejoin="round"/>
<path d="M42.3376 29.4306H85.5363C88.84 29.4306 91.5165 32.107 91.5165 35.4107C91.5165 38.2843 89.4913 40.6859 86.791 41.2594L86.4504 41.3193L86.4146 41.3252L44.9365 49.8742C49.4171 48.7213 52.7268 44.6529 52.7268 39.8138C52.7268 34.0784 48.0729 29.4306 42.3376 29.4306Z" fill="#EBEBEB" stroke="#A4A4A4" stroke-width="0.824324" stroke-linecap="round" stroke-linejoin="round"/>
<path d="M51.0861 65.3892H45.0771V77.121H51.0861V65.3892Z" fill="#EBEBEB" stroke="#A4A4A4" stroke-width="0.824324" stroke-linecap="round" stroke-linejoin="round"/>
<path d="M74.4098 62.8091H68.4009V77.1211H74.4098V62.8091Z" fill="#EBEBEB" stroke="#A4A4A4" stroke-width="0.824324" stroke-linecap="round" stroke-linejoin="round"/>
<path d="M62.748 69.824H56.7391V77.121H62.748V69.824Z" fill="#D1D1D1" stroke="#A4A4A4" stroke-width="0.824324" stroke-linecap="round" stroke-linejoin="round"/>
<path d="M49.6639 57.8739L59.7437 65.3895L71.1827 55.3465" fill="white"/>
<path d="M49.6639 57.8739L59.7437 65.3895L71.1827 55.3465" stroke="#A4A4A4" stroke-width="0.824324" stroke-linecap="round" stroke-linejoin="round"/>
<path d="M74.318 52.3586L67.8709 54.0861L72.5905 58.8057L74.318 52.3586Z" fill="#A4A4A4" stroke="#A4A4A4" stroke-width="0.824324" stroke-linecap="round" stroke-linejoin="round"/>
<rect x="84.4757" y="44.0385" width="27.7345" height="16.6406" rx="8.32031" fill="#EBEBEB" stroke="#A4A4A4" stroke-width="0.824324" stroke-linecap="round" stroke-linejoin="round"/>
<path fill-rule="evenodd" clip-rule="evenodd" d="M88.6716 52.3588C88.6716 52.0503 88.9217 51.8003 89.2301 51.8003H96.3206C96.629 51.8003 96.879 52.0503 96.879 52.3588C96.879 52.6672 96.629 52.9172 96.3206 52.9172H89.2301C88.9217 52.9172 88.6716 52.6672 88.6716 52.3588Z" fill="#A4A4A4"/>
<ellipse cx="103.928" cy="52.3589" rx="4.08602" ry="4.08602" fill="white"/>
<rect x="18.0338" y="83.4153" width="27.7345" height="16.6406" rx="8.32031" fill="#D1D1D1" stroke="#A4A4A4" stroke-width="0.824324" stroke-linecap="round" stroke-linejoin="round"/>
<path fill-rule="evenodd" clip-rule="evenodd" d="M22.2296 91.7355C22.2296 91.4271 22.4796 91.1771 22.788 91.1771H29.8785C30.1869 91.1771 30.437 91.4271 30.437 91.7355C30.437 92.044 30.1869 92.294 29.8785 92.294H22.788C22.4796 92.294 22.2296 92.044 22.2296 91.7355Z" fill="#A4A4A4"/>
<path fill-rule="evenodd" clip-rule="evenodd" d="M26.333 87.6317C26.6414 87.6317 26.8915 87.8818 26.8915 88.1902L26.8915 95.2807C26.8915 95.5891 26.6414 95.8392 26.333 95.8392C26.0246 95.8392 25.7745 95.5891 25.7745 95.2807L25.7745 88.1902C25.7745 87.8818 26.0246 87.6317 26.333 87.6317Z" fill="#A4A4A4"/>
<ellipse cx="37.486" cy="91.7355" rx="4.08602" ry="4.08602" fill="white"/>
<path d="M55.5756 7.25146C55.5756 7.25146 50.6236 5.77621 49.1366 10.7064C50.6235 5.77628 45.6816 4.26741 45.6816 4.26741C45.6816 4.26741 50.6337 5.74254 52.1206 0.812439C50.6337 5.74254 55.5756 7.25146 55.5756 7.25146Z" fill="white" stroke="#A4A4A4" stroke-width="0.824324" stroke-linecap="round" stroke-linejoin="round"/>
<path d="M72.1855 113.745C72.1855 113.745 67.9564 118.706 72.8864 122.938C67.9563 118.706 63.6935 123.639 63.6935 123.639C63.6935 123.639 67.9227 118.677 62.9925 114.446C67.9227 118.677 72.1855 113.745 72.1855 113.745Z" fill="white" stroke="#A4A4A4" stroke-width="0.824324" stroke-linecap="round" stroke-linejoin="round"/>
</svg>
