<svg width="20" height="20" viewBox="0 0 20 20" fill="none" xmlns="http://www.w3.org/2000/svg">
<path d="M5.5 2.5C5.5 2.88475 5.8675 3.25 6.25 3.25H13.75C14.1348 3.25 14.5 2.8825 14.5 2.5H16C16 3.74275 14.9928 4.75 13.75 4.75H10.75L10.7508 6.2965C13.7103 6.66625 16 9.19075 16 12.25V16.75C16 17.164 15.664 17.5 15.25 17.5H4.75C4.336 17.5 4 17.164 4 16.75V12.25C4 9.19 6.2905 6.6655 9.25 6.2965V4.75H6.25C5.005 4.75 4 3.745 4 2.5H5.5ZM10 7.75C7.5715 7.75 5.5 9.82 5.5 12.25V16H14.5V12.25C14.5 9.8215 12.4285 7.75 10 7.75ZM10 9.25C10.5565 9.25 11.077 9.4015 11.524 9.6655L9.469 11.7198C9.1765 12.0122 9.1765 12.4878 9.469 12.7802C9.73975 13.0503 10.1658 13.0712 10.459 12.8425L10.5302 12.7802L12.5852 10.726C12.8485 11.173 13 11.6935 13 12.25C13 13.9075 11.6575 15.25 10 15.25C8.3425 15.25 7 13.9075 7 12.25C7 10.5925 8.3425 9.25 10 9.25Z" fill="#A4A4A4"/>
</svg>
