<svg width="44" height="44" viewBox="0 0 44 44" fill="none" xmlns="http://www.w3.org/2000/svg">
<g filter="url(#filter0_d_2485_28097)">
<path d="M2 21C2 9.95431 10.9543 1 22 1C33.0457 1 42 9.95431 42 21C42 32.0457 33.0457 41 22 41C10.9543 41 2 32.0457 2 21Z" fill="white"/>
<path d="M22 1.5C32.7696 1.5 41.5 10.2304 41.5 21C41.5 31.7696 32.7696 40.5 22 40.5C11.2304 40.5 2.5 31.7696 2.5 21C2.5 10.2304 11.2304 1.5 22 1.5Z" stroke="#EBEBEB"/>
<path d="M19.7238 25.5C19.6346 26.1257 19.3227 26.6983 18.8453 27.1125C18.3679 27.5267 17.757 27.7547 17.125 27.7547C16.493 27.7547 15.8821 27.5267 15.4047 27.1125C14.9273 26.6983 14.6154 26.1257 14.5263 25.5H13.75V16.5C13.75 16.3011 13.829 16.1103 13.9697 15.9697C14.1103 15.829 14.3011 15.75 14.5 15.75H25C25.1989 15.75 25.3897 15.829 25.5303 15.9697C25.671 16.1103 25.75 16.3011 25.75 16.5V18H28L30.25 21.042V25.5H28.7238C28.6346 26.1257 28.3227 26.6983 27.8453 27.1125C27.3679 27.5267 26.757 27.7547 26.125 27.7547C25.493 27.7547 24.8821 27.5267 24.4047 27.1125C23.9273 26.6983 23.6154 26.1257 23.5262 25.5H19.7238ZM24.25 17.25H15.25V23.2875C15.5459 22.9854 15.9105 22.7593 16.3126 22.6283C16.7147 22.4974 17.1425 22.4656 17.5595 22.5355C17.9766 22.6055 18.3706 22.7752 18.708 23.0302C19.0453 23.2852 19.3161 23.6179 19.4973 24H23.7528C23.8787 23.7352 24.0475 23.4945 24.25 23.2875V17.25ZM25.75 21.75H28.75V21.5363L27.244 19.5H25.75V21.75ZM26.125 26.25C26.4235 26.25 26.7097 26.1314 26.9208 25.9204C27.1318 25.7093 27.2504 25.4231 27.2504 25.1246C27.2504 24.8262 27.1318 24.5399 26.9208 24.3289C26.7097 24.1178 26.4235 23.9992 26.125 23.9992C25.8265 23.9992 25.5403 24.1178 25.3292 24.3289C25.1182 24.5399 24.9996 24.8262 24.9996 25.1246C24.9996 25.4231 25.1182 25.7093 25.3292 25.9204C25.5403 26.1314 25.8265 26.25 26.125 26.25ZM18.25 25.125C18.25 24.9773 18.2209 24.831 18.1644 24.6945C18.1078 24.558 18.025 24.434 17.9205 24.3295C17.816 24.225 17.692 24.1422 17.5555 24.0856C17.419 24.0291 17.2727 24 17.125 24C16.9773 24 16.831 24.0291 16.6945 24.0856C16.558 24.1422 16.434 24.225 16.3295 24.3295C16.225 24.434 16.1422 24.558 16.0856 24.6945C16.0291 24.831 16 24.9773 16 25.125C16 25.4234 16.1185 25.7095 16.3295 25.9205C16.5405 26.1315 16.8266 26.25 17.125 26.25C17.4234 26.25 17.7095 26.1315 17.9205 25.9205C18.1315 25.7095 18.25 25.4234 18.25 25.125Z" fill="#5C5C5C"/>
</g>
<defs>
<filter id="filter0_d_2485_28097" x="0" y="0" width="44" height="44" filterUnits="userSpaceOnUse" color-interpolation-filters="sRGB">
<feFlood flood-opacity="0" result="BackgroundImageFix"/>
<feColorMatrix in="SourceAlpha" type="matrix" values="0 0 0 0 0 0 0 0 0 0 0 0 0 0 0 0 0 0 127 0" result="hardAlpha"/>
<feOffset dy="1"/>
<feGaussianBlur stdDeviation="1"/>
<feComposite in2="hardAlpha" operator="out"/>
<feColorMatrix type="matrix" values="0 0 0 0 0.0392157 0 0 0 0 0.0509804 0 0 0 0 0.0784314 0 0 0 0.03 0"/>
<feBlend mode="normal" in2="BackgroundImageFix" result="effect1_dropShadow_2485_28097"/>
<feBlend mode="normal" in="SourceGraphic" in2="effect1_dropShadow_2485_28097" result="shape"/>
</filter>
</defs>
</svg>
