<svg width="20" height="20" viewBox="0 0 20 20" fill="none" xmlns="http://www.w3.org/2000/svg">
<path d="M13 6.25H9.25C8.05653 6.25 6.91193 6.72411 6.06802 7.56802C5.22411 8.41193 4.75 9.55653 4.75 10.75C4.75 11.9435 5.22411 13.0881 6.06802 13.932C6.91193 14.7759 8.05653 15.25 9.25 15.25H16V16.75H9.25C7.6587 16.75 6.13258 16.1179 5.00736 14.9926C3.88214 13.8674 3.25 12.3413 3.25 10.75C3.25 9.1587 3.88214 7.63258 5.00736 6.50736C6.13258 5.38214 7.6587 4.75 9.25 4.75H13V1.75L17.5 5.5L13 9.25V6.25Z" fill="#171717"/>
</svg>
