<svg width="20" height="20" viewBox="0 0 20 20" fill="none" xmlns="http://www.w3.org/2000/svg">
<path d="M13.75 2.5V4H13V14.5C13 16.1575 11.6575 17.5 10 17.5C8.3425 17.5 7 16.1575 7 14.5V4H6.25V2.5H13.75ZM11.5 8.5H8.5V14.5C8.5 15.3287 9.17125 16 10 16C10.8288 16 11.5 15.3287 11.5 14.5V8.5ZM10.75 12.25C11.164 12.25 11.5 12.586 11.5 13C11.5 13.414 11.164 13.75 10.75 13.75C10.336 13.75 10 13.414 10 13C10 12.586 10.336 12.25 10.75 12.25ZM9.25 10C9.664 10 10 10.336 10 10.75C10 11.164 9.664 11.5 9.25 11.5C8.836 11.5 8.5 11.164 8.5 10.75C8.5 10.336 8.836 10 9.25 10ZM11.5 4H8.5V7H11.5V4Z" fill="#171717"/>
</svg>
