<svg width="20" height="20" viewBox="0 0 20 20" fill="none" xmlns="http://www.w3.org/2000/svg">
<path d="M3.25 4.74625C3.25 3.91975 3.91975 3.25 4.74625 3.25H15.2537C16.0802 3.25 16.75 3.91975 16.75 4.74625V15.2537C16.75 15.6506 16.5924 16.0312 16.3118 16.3118C16.0312 16.5924 15.6506 16.75 15.2537 16.75H4.74625C4.34942 16.75 3.96884 16.5924 3.68824 16.3118C3.40764 16.0312 3.25 15.6506 3.25 15.2537V4.74625ZM4.75 4.75V15.25H15.25V4.75H4.75ZM6.979 14.635C6.51774 14.4352 6.07777 14.1895 5.66575 13.9015C6.14145 13.1643 6.79447 12.5581 7.56504 12.1386C8.33562 11.719 9.19912 11.4995 10.0765 11.5C11.8765 11.5 13.4642 12.4053 14.41 13.7853C14.0059 14.0842 13.5727 14.3418 13.117 14.554C12.7697 14.0725 12.3128 13.6805 11.7842 13.4103C11.2555 13.1401 10.6702 12.9995 10.0765 13C8.79025 13 7.654 13.648 6.979 14.635ZM10 10.75C9.65528 10.75 9.31394 10.6821 8.99546 10.5502C8.67698 10.4183 8.3876 10.2249 8.14384 9.98116C7.90009 9.7374 7.70673 9.44802 7.57482 9.12954C7.4429 8.81106 7.375 8.46972 7.375 8.125C7.375 7.78028 7.4429 7.43894 7.57482 7.12046C7.70673 6.80198 7.90009 6.5126 8.14384 6.26884C8.3876 6.02509 8.67698 5.83173 8.99546 5.69982C9.31394 5.5679 9.65528 5.5 10 5.5C10.6962 5.5 11.3639 5.77656 11.8562 6.26884C12.3484 6.76113 12.625 7.42881 12.625 8.125C12.625 8.82119 12.3484 9.48887 11.8562 9.98116C11.3639 10.4734 10.6962 10.75 10 10.75ZM10 9.25C10.2984 9.25 10.5845 9.13147 10.7955 8.9205C11.0065 8.70952 11.125 8.42337 11.125 8.125C11.125 7.82663 11.0065 7.54048 10.7955 7.3295C10.5845 7.11853 10.2984 7 10 7C9.70163 7 9.41548 7.11853 9.2045 7.3295C8.99353 7.54048 8.875 7.82663 8.875 8.125C8.875 8.42337 8.99353 8.70952 9.2045 8.9205C9.41548 9.13147 9.70163 9.25 10 9.25Z" fill="#A4A4A4"/>
</svg>
