<svg width="21" height="20" viewBox="0 0 21 20" fill="none" xmlns="http://www.w3.org/2000/svg">
<g id="add-circle-line">
<path id="Vector" d="M9.75 9.25V6.25H11.25V9.25H14.25V10.75H11.25V13.75H9.75V10.75H6.75V9.25H9.75ZM10.5 17.5C6.35775 17.5 3 14.1423 3 10C3 5.85775 6.35775 2.5 10.5 2.5C14.6423 2.5 18 5.85775 18 10C18 14.1423 14.6423 17.5 10.5 17.5ZM10.5 16C12.0913 16 13.6174 15.3679 14.7426 14.2426C15.8679 13.1174 16.5 11.5913 16.5 10C16.5 8.4087 15.8679 6.88258 14.7426 5.75736C13.6174 4.63214 12.0913 4 10.5 4C8.9087 4 7.38258 4.63214 6.25736 5.75736C5.13214 6.88258 4.5 8.4087 4.5 10C4.5 11.5913 5.13214 13.1174 6.25736 14.2426C7.38258 15.3679 8.9087 16 10.5 16Z" fill="#6CBC45"/>
</g>
</svg>
