<svg width="20" height="20" viewBox="0 0 20 20" fill="none" xmlns="http://www.w3.org/2000/svg">
<path d="M10 11.5V13C8.80653 13 7.66193 13.4741 6.81802 14.318C5.97411 15.1619 5.5 16.3065 5.5 17.5H4C4 15.9087 4.63214 14.3826 5.75736 13.2574C6.88258 12.1321 8.4087 11.5 10 11.5ZM10 10.75C7.51375 10.75 5.5 8.73625 5.5 6.25C5.5 3.76375 7.51375 1.75 10 1.75C12.4862 1.75 14.5 3.76375 14.5 6.25C14.5 8.73625 12.4862 10.75 10 10.75ZM10 9.25C11.6575 9.25 13 7.9075 13 6.25C13 4.5925 11.6575 3.25 10 3.25C8.3425 3.25 7 4.5925 7 6.25C7 7.9075 8.3425 9.25 10 9.25ZM16.75 13.75H17.5V17.5H11.5V13.75H12.25V13C12.25 12.4033 12.4871 11.831 12.909 11.409C13.331 10.9871 13.9033 10.75 14.5 10.75C15.0967 10.75 15.669 10.9871 16.091 11.409C16.5129 11.831 16.75 12.4033 16.75 13V13.75ZM15.25 13.75V13C15.25 12.8011 15.171 12.6103 15.0303 12.4697C14.8897 12.329 14.6989 12.25 14.5 12.25C14.3011 12.25 14.1103 12.329 13.9697 12.4697C13.829 12.6103 13.75 12.8011 13.75 13V13.75H15.25Z" fill="#EF4F54"/>
</svg>
