<svg width="20" height="20" viewBox="0 0 20 20" fill="none" xmlns="http://www.w3.org/2000/svg">
<g id="alarm-warning-line">
<path id="Vector" d="M3.99996 16V11.5C3.99996 9.9087 4.6321 8.38258 5.75732 7.25736C6.88253 6.13214 8.40866 5.5 9.99996 5.5C11.5913 5.5 13.1174 6.13214 14.2426 7.25736C15.3678 8.38258 16 9.9087 16 11.5V16H16.75V17.5H3.24996V16H3.99996ZM5.49996 16H14.5V11.5C14.5 10.3065 14.0259 9.16193 13.1819 8.31802C12.338 7.47411 11.1934 7 9.99996 7C8.80648 7 7.66189 7.47411 6.81798 8.31802C5.97406 9.16193 5.49996 10.3065 5.49996 11.5V16ZM9.24996 2.5H10.75V4.75H9.24996V2.5ZM15.8335 4.606L16.894 5.6665L15.304 7.25725L14.2427 6.19675L15.8335 4.606ZM3.10596 5.6665L4.16646 4.606L5.75721 6.196L4.69746 7.258L3.10596 5.6665ZM6.24996 11.5C6.24996 10.5054 6.64505 9.55161 7.34831 8.84835C8.05157 8.14509 9.00539 7.75 9.99996 7.75V9.25C9.40322 9.25 8.83092 9.48705 8.40897 9.90901C7.98701 10.331 7.74996 10.9033 7.74996 11.5H6.24996Z" fill="#5C5C5C"/>
</g>
</svg>
