<svg width="20" height="20" viewBox="0 0 20 20" fill="none" xmlns="http://www.w3.org/2000/svg">
<g id="building-2-line">
<path id="Vector" d="M3.25 15.25V5.27501C3.24995 5.12106 3.29729 4.97082 3.38558 4.84469C3.47386 4.71857 3.59883 4.62267 3.7435 4.57001L10.9967 1.93301C11.0534 1.91239 11.1142 1.90574 11.174 1.91361C11.2338 1.92149 11.2908 1.94366 11.3401 1.97825C11.3895 2.01284 11.4298 2.05883 11.4577 2.11232C11.4855 2.16581 11.5 2.22522 11.5 2.28551V6.00026L16.237 7.57901C16.3864 7.62877 16.5164 7.7243 16.6084 7.85205C16.7005 7.9798 16.75 8.13329 16.75 8.29076V15.25H18.25V16.75H1.75V15.25H3.25ZM4.75 15.25H10V3.89126L4.75 5.80076V15.25ZM15.25 15.25V8.83151L11.5 7.58126V15.25H15.25Z" fill="#EF4F54"/>
</g>
</svg>
