<svg width="20" height="20" viewBox="0 0 20 20" fill="none" xmlns="http://www.w3.org/2000/svg">
<path d="M4.54568 2.99805H15.964C16.1533 2.99805 16.3348 3.07323 16.4687 3.20707C16.6025 3.3409 16.6777 3.52242 16.6777 3.71169V16.5574C16.6777 16.7466 16.6025 16.9281 16.4687 17.062C16.3348 17.1958 16.1533 17.271 15.964 17.271H4.54568C4.35641 17.271 4.17489 17.1958 4.04105 17.062C3.90722 16.9281 3.83203 16.7466 3.83203 16.5574V3.71169C3.83203 3.52242 3.90722 3.3409 4.04105 3.20707C4.17489 3.07323 4.35641 2.99805 4.54568 2.99805V2.99805ZM5.25933 4.42534V15.8437H15.2504V4.42534H5.25933ZM6.68662 5.85264H13.8231V8.70723H6.68662V5.85264ZM6.68662 10.1345H8.11392V11.5618H6.68662V10.1345ZM6.68662 12.9891H8.11392V14.4164H6.68662V12.9891ZM9.54122 10.1345H10.9685V11.5618H9.54122V10.1345ZM9.54122 12.9891H10.9685V14.4164H9.54122V12.9891ZM12.3958 10.1345H13.8231V14.4164H12.3958V10.1345Z" fill="#5C5C5C"/>
</svg>
