<svg width="39" height="39" viewBox="0 0 39 39" fill="none" xmlns="http://www.w3.org/2000/svg">
<path d="M0.224487 19.9095C0.224487 9.3992 8.74478 0.878906 19.2551 0.878906C29.7654 0.878906 38.2857 9.3992 38.2857 19.9095C38.2857 30.4198 29.7654 38.9401 19.2551 38.9401C8.74478 38.9401 0.224487 30.4198 0.224487 19.9095Z" fill="#F5F5F5"/>
<path d="M17.1143 12.0586V13.4859H21.3962V12.0586H22.8235V13.4859H25.6781C25.8674 13.4859 26.0489 13.5611 26.1827 13.6949C26.3165 13.8287 26.3917 14.0103 26.3917 14.1995V25.6179C26.3917 25.8072 26.3165 25.9887 26.1827 26.1225C26.0489 26.2564 25.8674 26.3316 25.6781 26.3316H12.8324C12.6432 26.3316 12.4616 26.2564 12.3278 26.1225C12.194 25.9887 12.1188 25.8072 12.1188 25.6179V14.1995C12.1188 14.0103 12.194 13.8287 12.3278 13.6949C12.4616 13.5611 12.6432 13.4859 12.8324 13.4859H15.687V12.0586H17.1143ZM24.9644 18.4814H13.5461V24.9043H24.9644V18.4814ZM21.4219 19.2921L22.431 20.3012L18.8984 23.8338L16.375 21.3103L17.3855 20.3012L18.8991 21.8156L21.4226 19.2921H21.4219ZM15.687 14.9132H13.5461V17.0541H24.9644V14.9132H22.8235V15.6268H21.3962V14.9132H17.1143V15.6268H15.687V14.9132Z" fill="#5C5C5C"/>
</svg>
