<svg width="24" height="24" viewBox="0 0 20 21" fill="none" xmlns="http://www.w3.org/2000/svg">
<g id="delete-bin-line">
<path id="Vector" d="M13.75 6H17.5V7.5H16V17.25C16 17.4489 15.921 17.6397 15.7803 17.7803C15.6397 17.921 15.4489 18 15.25 18H4.75C4.55109 18 4.36032 17.921 4.21967 17.7803C4.07902 17.6397 4 17.4489 4 17.25V7.5H2.5V6H6.25V3.75C6.25 3.55109 6.32902 3.36032 6.46967 3.21967C6.61032 3.07902 6.80109 3 7 3H13C13.1989 3 13.3897 3.07902 13.5303 3.21967C13.671 3.36032 13.75 3.55109 13.75 3.75V6ZM14.5 7.5H5.5V16.5H14.5V7.5ZM7.75 9.75H9.25V14.25H7.75V9.75ZM10.75 9.75H12.25V14.25H10.75V9.75ZM7.75 4.5V6H12.25V4.5H7.75Z" fill="#5C5C5C"/>
</g>
</svg>
