<svg width="24" height="24" viewBox="0 0 21 21" fill="none" xmlns="http://www.w3.org/2000/svg">
<g id="delete-bin-2-line">
<path id="Vector" d="M14.25 6.25H18V7.75H16.5V17.5C16.5 17.6989 16.421 17.8897 16.2803 18.0303C16.1397 18.171 15.9489 18.25 15.75 18.25H5.25C5.05109 18.25 4.86032 18.171 4.71967 18.0303C4.57902 17.8897 4.5 17.6989 4.5 17.5V7.75H3V6.25H6.75V4C6.75 3.80109 6.82902 3.61032 6.96967 3.46967C7.11032 3.32902 7.30109 3.25 7.5 3.25H13.5C13.6989 3.25 13.8897 3.32902 14.0303 3.46967C14.171 3.61032 14.25 3.80109 14.25 4V6.25ZM15 7.75H6V16.75H15V7.75ZM11.5605 12.25L12.8865 13.576L11.826 14.6365L10.5 13.3105L9.174 14.6365L8.1135 13.576L9.4395 12.25L8.1135 10.924L9.174 9.8635L10.5 11.1895L11.826 9.8635L12.8865 10.924L11.5605 12.25ZM8.25 4.75V6.25H12.75V4.75H8.25Z" fill="#FB3748"/>
</g>
</svg>
