<svg width="20" height="20" viewBox="0 0 20 20" fill="none" xmlns="http://www.w3.org/2000/svg">
<path d="M8.78412 3.80924C9.48487 3.21203 10.5156 3.21202 11.2164 3.80925L12.0589 4.52721C12.159 4.61252 12.2834 4.66406 12.4146 4.67453L13.518 4.76258C14.4358 4.83582 15.1647 5.56468 15.2379 6.4825L15.326 7.58592C15.3364 7.71701 15.3879 7.84148 15.4732 7.94158L16.1912 8.78411C16.7885 9.48486 16.7885 10.5156 16.1912 11.2164L15.4732 12.0589C15.388 12.159 15.3364 12.2835 15.3259 12.4146L15.2379 13.518C15.1647 14.4359 14.4358 15.1647 13.518 15.2379L12.4146 15.3259C12.2834 15.3364 12.159 15.388 12.0589 15.4733L11.2164 16.1912C10.5156 16.7885 9.48487 16.7884 8.78406 16.1912L7.94156 15.4733C7.84146 15.388 7.71703 15.3364 7.58593 15.326L6.48252 15.2379C5.56468 15.1646 4.83585 14.4358 4.7626 13.518L4.67453 12.4146C4.66407 12.2835 4.61251 12.1591 4.52722 12.0589L3.80925 11.2164C3.21203 10.5156 3.21202 9.48493 3.80923 8.78411L4.52721 7.94161C4.61251 7.84151 4.66408 7.71701 4.67454 7.58591L4.7626 6.48249C4.83583 5.56466 5.56466 4.83583 6.4825 4.76259L7.58593 4.67453C7.71703 4.66407 7.84149 4.61252 7.9416 4.52721L8.78412 3.80924ZM10.4056 4.76063C10.1721 4.56156 9.82843 4.56156 9.59487 4.76063L8.75237 5.47861C8.45206 5.73453 8.07867 5.88918 7.68535 5.92057L6.58193 6.00863C6.27599 6.03305 6.03305 6.27598 6.00863 6.58193L5.92057 7.68538C5.88918 8.07868 5.73453 8.45205 5.47861 8.75236L4.76064 9.59486C4.56157 9.82843 4.56156 10.1721 4.76064 10.4056L5.47861 11.2481C5.73453 11.5484 5.88918 11.9219 5.92059 12.3151L6.00864 13.4186C6.03305 13.7245 6.27599 13.9675 6.58195 13.9919L7.68535 14.0799C8.07864 14.1113 8.45206 14.266 8.75237 14.5219L9.59487 15.2399C9.8285 15.4389 10.1721 15.4389 10.4056 15.2399L11.2482 14.5219C11.5484 14.266 11.9218 14.1113 12.3151 14.0799L13.4186 13.9919C13.7245 13.9674 13.9675 13.7245 13.9919 13.4186L14.0799 12.3151C14.1113 11.9218 14.2659 11.5484 14.5219 11.2482L15.2399 10.4056C15.439 10.1721 15.4389 9.82849 15.2399 9.59486L14.5219 8.75236C14.2659 8.45205 14.1113 8.07867 14.0799 7.68536L13.9919 6.58193C13.9675 6.27599 13.7245 6.03305 13.4186 6.00863L12.3151 5.92058C11.9219 5.8892 11.5484 5.73452 11.2481 5.4786L10.4056 4.76063ZM11.7679 7.34866L12.6517 8.23255L8.23233 12.652L7.34845 11.7681L11.7679 7.34866ZM8.89525 8.89543C8.52913 9.26155 7.93554 9.26155 7.56942 8.89543C7.2033 8.52936 7.2033 7.93575 7.56942 7.56963C7.93554 7.20351 8.52913 7.20351 8.89525 7.56963C9.26137 7.93575 9.26137 8.52936 8.89525 8.89543ZM11.1049 12.431C11.4711 12.7971 12.0646 12.7971 12.4307 12.431C12.7969 12.0649 12.7969 11.4713 12.4307 11.1052C12.0646 10.7391 11.4711 10.7391 11.1049 11.1052C10.7388 11.4713 10.7388 12.0649 11.1049 12.431Z" fill="#A4A4A4"/>
</svg>
