<svg width="18" height="19" viewBox="0 0 18 19" fill="none" xmlns="http://www.w3.org/2000/svg">
<path d="M9.00009 3.64062C12.6397 3.64062 15.6677 6.25963 16.3029 9.71563C15.6684 13.1716 12.6397 15.7906 9.00009 15.7906C5.36049 15.7906 2.33244 13.1716 1.69727 9.71563C2.33177 6.25963 5.36049 3.64062 9.00009 3.64062ZM9.00009 14.4406C10.3767 14.4403 11.7125 13.9727 12.7888 13.1144C13.865 12.256 14.6181 11.0577 14.9246 9.71563C14.6169 8.37461 13.8634 7.17763 12.7873 6.32039C11.7111 5.46316 10.3759 4.99638 9.00009 4.99638C7.62424 4.99638 6.28908 5.46316 5.21292 6.32039C4.13676 7.17763 3.38326 8.37461 3.07562 9.71563C3.38213 11.0577 4.13515 12.256 5.21141 13.1144C6.28768 13.9727 7.62345 14.4403 9.00009 14.4406ZM9.00009 12.7531C8.1945 12.7531 7.4219 12.4331 6.85225 11.8635C6.28261 11.2938 5.96259 10.5212 5.96259 9.71563C5.96259 8.91003 6.28261 8.13743 6.85225 7.56779C7.4219 6.99815 8.1945 6.67813 9.00009 6.67813C9.80569 6.67813 10.5783 6.99815 11.1479 7.56779C11.7176 8.13743 12.0376 8.91003 12.0376 9.71563C12.0376 10.5212 11.7176 11.2938 11.1479 11.8635C10.5783 12.4331 9.80569 12.7531 9.00009 12.7531ZM9.00009 11.4031C9.44764 11.4031 9.87687 11.2253 10.1933 10.9089C10.5098 10.5924 10.6876 10.1632 10.6876 9.71563C10.6876 9.26807 10.5098 8.83885 10.1933 8.52238C9.87687 8.20591 9.44764 8.02813 9.00009 8.02813C8.55254 8.02813 8.12332 8.20591 7.80685 8.52238C7.49038 8.83885 7.31259 9.26807 7.31259 9.71563C7.31259 10.1632 7.49038 10.5924 7.80685 10.9089C8.12332 11.2253 8.55254 11.4031 9.00009 11.4031Z" fill="#335CFF"/>
</svg>
