<svg width="21" height="20" viewBox="0 0 21 20" fill="none" xmlns="http://www.w3.org/2000/svg">
<g id="file-add-line">
<path id="Vector" d="M12.75 4H5.25V16H15.75V7H12.75V4ZM3.75 3.244C3.75 2.833 4.08525 2.5 4.49925 2.5H13.5L17.25 6.25V16.7448C17.2507 16.8432 17.232 16.9409 17.1949 17.0322C17.1579 17.1234 17.1032 17.2065 17.034 17.2766C16.9649 17.3468 16.8826 17.4026 16.7919 17.4409C16.7011 17.4792 16.6037 17.4993 16.5052 17.5H4.49475C4.29778 17.4986 4.10926 17.4198 3.96991 17.2806C3.83056 17.1414 3.75157 16.953 3.75 16.756V3.244ZM9.75 9.25V7H11.25V9.25H13.5V10.75H11.25V13H9.75V10.75H7.5V9.25H9.75Z" fill="#5C5C5C"/>
</g>
</svg>
