<svg width="39" height="39" viewBox="0 0 39 39" fill="none" xmlns="http://www.w3.org/2000/svg">
<path d="M0.224609 19.9271C0.224609 9.41678 8.7449 0.896484 19.2552 0.896484C29.7655 0.896484 38.2858 9.41678 38.2858 19.9271C38.2858 30.4374 29.7655 38.9577 19.2552 38.9577C8.7449 38.9577 0.224609 30.4374 0.224609 19.9271Z" fill="#F5F5F5"/>
<path d="M17.1147 12.0762V13.5035H21.3966V12.0762H22.8239V13.5035H25.6785C25.8677 13.5035 26.0492 13.5787 26.1831 13.7125C26.3169 13.8463 26.3921 14.0278 26.3921 14.2171V25.6355C26.3921 25.8248 26.3169 26.0063 26.1831 26.1401C26.0492 26.2739 25.8677 26.3491 25.6785 26.3491H12.8328C12.6435 26.3491 12.462 26.2739 12.3282 26.1401C12.1943 26.0063 12.1191 25.8248 12.1191 25.6355V14.2171C12.1191 14.0278 12.1943 13.8463 12.3282 13.7125C12.462 13.5787 12.6435 13.5035 12.8328 13.5035H15.6874V12.0762H17.1147ZM24.9648 18.499H13.5464V24.9218H24.9648V18.499ZM21.4223 19.3097L22.4314 20.3188L18.8988 23.8514L16.3753 21.3279L17.3859 20.3188L18.8995 21.8332L21.423 19.3097H21.4223ZM15.6874 14.9308H13.5464V17.0717H24.9648V14.9308H22.8239V15.6444H21.3966V14.9308H17.1147V15.6444H15.6874V14.9308Z" fill="#5C5C5C"/>
</svg>
