<svg width="28" height="28" viewBox="0 0 28 28" fill="none" xmlns="http://www.w3.org/2000/svg">
<g id="briefcase-4-line">
<path id="Vector" d="M8.75 6.64922V3.49922C8.75 3.22074 8.86062 2.95367 9.05754 2.75676C9.25445 2.55984 9.52152 2.44922 9.8 2.44922H18.2C18.4785 2.44922 18.7455 2.55984 18.9425 2.75676C19.1394 2.95367 19.25 3.22074 19.25 3.49922V6.64922H23.45C23.7285 6.64922 23.9955 6.75984 24.1925 6.95676C24.3894 7.15367 24.5 7.42074 24.5 7.69922V22.3992C24.5 22.6777 24.3894 22.9448 24.1925 23.1417C23.9955 23.3386 23.7285 23.4492 23.45 23.4492H4.55C4.27152 23.4492 4.00445 23.3386 3.80754 23.1417C3.61062 22.9448 3.5 22.6777 3.5 22.3992V7.69922C3.5 7.42074 3.61062 7.15367 3.80754 6.95676C4.00445 6.75984 4.27152 6.64922 4.55 6.64922H8.75ZM10.85 15.0492H5.6V21.3492H22.4V15.0492H17.15V18.1992H10.85V15.0492ZM22.4 8.74922H5.6V12.9492H10.85V10.8492H17.15V12.9492H22.4V8.74922ZM12.95 12.9492V16.0992H15.05V12.9492H12.95ZM10.85 4.54922V6.64922H17.15V4.54922H10.85Z" fill="#EF4F54"/>
</g>
</svg>
