<svg width="20" height="20" viewBox="0 0 20 20" fill="none" xmlns="http://www.w3.org/2000/svg">
<g id="logout-circle-r-line">
<path id="Vector" d="M10 17.5C5.85775 17.5 2.5 14.1423 2.5 10C2.5 5.85775 5.85775 2.5 10 2.5C11.1645 2.49913 12.3131 2.76983 13.3547 3.29061C14.3963 3.81139 15.302 4.56788 16 5.5H13.9675C13.1014 4.73632 12.0334 4.23877 10.8915 4.06705C9.74969 3.89533 8.58255 4.05674 7.53017 4.53191C6.47778 5.00708 5.58486 5.77582 4.95855 6.74589C4.33224 7.71596 3.99915 8.84615 3.99925 10.0008C3.99934 11.1555 4.33262 12.2856 4.95909 13.2556C5.58557 14.2256 6.47861 14.9942 7.53108 15.4692C8.58354 15.9442 9.75071 16.1054 10.8925 15.9335C12.0343 15.7616 13.1023 15.2638 13.9683 14.5H16.0007C15.3027 15.4322 14.3968 16.1888 13.3551 16.7096C12.3134 17.2303 11.1646 17.501 10 17.5ZM15.25 13V10.75H9.25V9.25H15.25V7L19 10L15.25 13Z" fill="#5C5C5C"/>
</g>
</svg>
