<svg width="20" height="20" viewBox="0 0 20 20" fill="none" xmlns="http://www.w3.org/2000/svg">
<path d="M12.418 12.631L10.7582 16.1185C10.7268 16.1844 10.6799 16.2417 10.6214 16.2855C10.5628 16.3292 10.4946 16.358 10.4225 16.3695C10.3503 16.3809 10.2765 16.3746 10.2073 16.3512C10.1382 16.3277 10.0757 16.2877 10.0255 16.2347L7.36898 13.4305C7.29801 13.3557 7.20349 13.3075 7.10123 13.294L3.27098 12.793C3.19861 12.7835 3.12965 12.7565 3.07005 12.7143C3.01044 12.6722 2.96197 12.6162 2.92883 12.5512C2.89568 12.4861 2.87886 12.414 2.8798 12.341C2.88074 12.2681 2.89942 12.1964 2.93423 12.1322L4.78073 8.73924C4.82982 8.6485 4.84623 8.54365 4.82723 8.44224L4.11998 4.64499C4.10655 4.57312 4.11084 4.49905 4.13247 4.42921C4.1541 4.35936 4.19242 4.29584 4.24413 4.24414C4.29583 4.19243 4.35935 4.15411 4.4292 4.13248C4.49904 4.11085 4.57311 4.10656 4.64498 4.11999L8.44223 4.82724C8.54363 4.84625 8.64849 4.82983 8.73923 4.78074L12.1322 2.93424C12.1964 2.89942 12.2682 2.88076 12.3412 2.87986C12.4142 2.87896 12.4864 2.89585 12.5514 2.92907C12.6165 2.9623 12.6725 3.01086 12.7146 3.07056C12.7566 3.13026 12.7836 3.19931 12.793 3.27174L13.294 7.10124C13.3075 7.2035 13.3556 7.29802 13.4305 7.36899L16.2347 10.0255C16.2877 10.0758 16.3277 10.1382 16.3511 10.2073C16.3746 10.2765 16.3809 10.3503 16.3695 10.4225C16.358 10.4946 16.3292 10.5629 16.2855 10.6214C16.2417 10.6799 16.1844 10.7268 16.1185 10.7582L12.631 12.418C12.5376 12.4624 12.4624 12.5376 12.418 12.631ZM13.0157 14.0762L14.0762 13.0157L17.2585 16.1972L16.1972 17.2585L13.0157 14.0762Z" fill="#7B7B7B"/>
</svg>
