<svg width="224" height="36" viewBox="0 0 224 36" fill="none" xmlns="http://www.w3.org/2000/svg">
<path d="M0 10C0 4.47715 4.47715 0 10 0H214C219.523 0 224 4.47715 224 10V26C224 31.5228 219.523 36 214 36H10C4.47715 36 0 31.5228 0 26V10Z" fill="white"/>
<path d="M16.4813 15.7299C16.8483 15.3628 17.0983 14.895 17.1996 14.3858C17.3008 13.8766 17.2488 13.3489 17.0502 12.8692C16.8515 12.3896 16.515 11.9796 16.0833 11.6912C15.6517 11.4028 15.1442 11.2488 14.625 11.2488C14.1058 11.2488 13.5983 11.4028 13.1667 11.6912C12.735 11.9796 12.3985 12.3896 12.1998 12.8692C12.0012 13.3489 11.9492 13.8766 12.0504 14.3858C12.1517 14.895 12.4017 15.3628 12.7688 15.7299L14.625 17.5861L16.4813 15.7299ZM14.625 19.7071L11.7075 16.7911C11.1308 16.2142 10.7381 15.4792 10.5791 14.679C10.4201 13.8789 10.5019 13.0496 10.8142 12.296C11.1265 11.5424 11.6552 10.8982 12.3335 10.4451C13.0118 9.99188 13.8092 9.75 14.625 9.75C15.4408 9.75 16.2382 9.99188 16.9165 10.4451C17.5948 10.8982 18.1236 11.5424 18.4358 12.296C18.7481 13.0496 18.8299 13.8789 18.6709 14.679C18.5119 15.4792 18.1192 16.2142 17.5425 16.7911L14.625 19.7086V19.7071ZM14.625 14.9986C14.3266 14.9986 14.0405 14.8801 13.8295 14.6691C13.6185 14.4581 13.5 14.172 13.5 13.8736C13.5 13.5753 13.6185 13.2891 13.8295 13.0781C14.0405 12.8672 14.3266 12.7486 14.625 12.7486C14.9234 12.7486 15.2095 12.8672 15.4205 13.0781C15.6315 13.2891 15.75 13.5753 15.75 13.8736C15.75 14.172 15.6315 14.4581 15.4205 14.6691C15.2095 14.8801 14.9234 14.9986 14.625 14.9986ZM21.375 24.3361L23.2313 22.4799C23.5983 22.1128 23.8483 21.645 23.9496 21.1358C24.0508 20.6266 23.9988 20.0989 23.8002 19.6192C23.6015 19.1396 23.265 18.7296 22.8333 18.4412C22.4017 18.1528 21.8942 17.9988 21.375 17.9988C20.8558 17.9988 20.3483 18.1528 19.9167 18.4412C19.485 18.7296 19.1485 19.1396 18.9498 19.6192C18.7512 20.0989 18.6992 20.6266 18.8004 21.1358C18.9017 21.645 19.1517 22.1128 19.5188 22.4799L21.375 24.3361ZM24.2925 23.5411L21.375 26.4571L18.4575 23.5404C17.8808 22.9634 17.4881 22.2284 17.3291 21.4283C17.1701 20.6282 17.2519 19.7989 17.5642 19.0452C17.8765 18.2916 18.4052 17.6475 19.0835 17.1943C19.7618 16.7411 20.5592 16.4993 21.375 16.4993C22.1908 16.4993 22.9882 16.7411 23.6665 17.1943C24.3448 17.6475 24.8736 18.2916 25.1858 19.0452C25.4981 19.7989 25.5799 20.6282 25.4209 21.4283C25.2619 22.2284 24.8692 22.9634 24.2925 23.5404V23.5411ZM21.375 21.7486C21.0766 21.7486 20.7905 21.6301 20.5795 21.4191C20.3685 21.2081 20.25 20.922 20.25 20.6236C20.25 20.3253 20.3685 20.0391 20.5795 19.8281C20.7905 19.6172 21.0766 19.4986 21.375 19.4986C21.6734 19.4986 21.9595 19.6172 22.1705 19.8281C22.3815 20.0391 22.5 20.3253 22.5 20.6236C22.5 20.922 22.3815 21.2081 22.1705 21.4191C21.9595 21.6301 21.6734 21.7486 21.375 21.7486Z" fill="#A4A4A4"/>
<path d="M37.1186 23V12.8182H38.6548V21.6776H43.2685V23H37.1186ZM48.0343 23.1541C47.3183 23.1541 46.6936 22.9901 46.16 22.6619C45.6263 22.3338 45.212 21.8748 44.9171 21.2848C44.6221 20.6948 44.4746 20.0054 44.4746 19.2166C44.4746 18.4245 44.6221 17.7318 44.9171 17.1385C45.212 16.5452 45.6263 16.0845 46.16 15.7564C46.6936 15.4283 47.3183 15.2642 48.0343 15.2642C48.7502 15.2642 49.3749 15.4283 49.9085 15.7564C50.4422 16.0845 50.8565 16.5452 51.1514 17.1385C51.4464 17.7318 51.5939 18.4245 51.5939 19.2166C51.5939 20.0054 51.4464 20.6948 51.1514 21.2848C50.8565 21.8748 50.4422 22.3338 49.9085 22.6619C49.3749 22.9901 48.7502 23.1541 48.0343 23.1541ZM48.0392 21.9062C48.5032 21.9062 48.8877 21.7836 49.1926 21.5384C49.4976 21.2931 49.7229 20.9666 49.8688 20.5589C50.0179 20.1513 50.0925 19.7022 50.0925 19.2116C50.0925 18.7244 50.0179 18.277 49.8688 17.8693C49.7229 17.4583 49.4976 17.1286 49.1926 16.88C48.8877 16.6314 48.5032 16.5071 48.0392 16.5071C47.5719 16.5071 47.1841 16.6314 46.8759 16.88C46.5709 17.1286 46.3439 17.4583 46.1948 17.8693C46.0489 18.277 45.976 18.7244 45.976 19.2116C45.976 19.7022 46.0489 20.1513 46.1948 20.5589C46.3439 20.9666 46.5709 21.2931 46.8759 21.5384C47.1841 21.7836 47.5719 21.9062 48.0392 21.9062ZM56.3858 23.1541C55.6467 23.1541 55.0103 22.9867 54.4767 22.652C53.9464 22.3139 53.5387 21.8482 53.2537 21.255C52.9687 20.6617 52.8261 19.9822 52.8261 19.2166C52.8261 18.4411 52.972 17.7566 53.2636 17.1634C53.5553 16.5668 53.9663 16.1011 54.4966 15.7663C55.0269 15.4316 55.6517 15.2642 56.3709 15.2642C56.9509 15.2642 57.468 15.3719 57.922 15.5874C58.3761 15.7995 58.7423 16.0978 59.0207 16.4822C59.3025 16.8667 59.4698 17.3158 59.5229 17.8295H58.0761C57.9966 17.4716 57.8143 17.1634 57.5293 16.9048C57.2475 16.6463 56.8697 16.517 56.3957 16.517C55.9814 16.517 55.6185 16.6264 55.307 16.8452C54.9987 17.0606 54.7584 17.3688 54.5861 17.7699C54.4137 18.1676 54.3276 18.6383 54.3276 19.1818C54.3276 19.7386 54.4121 20.2192 54.5811 20.6236C54.7501 21.0279 54.9888 21.3411 55.297 21.5632C55.6086 21.7853 55.9748 21.8963 56.3957 21.8963C56.6775 21.8963 56.9327 21.8449 57.1614 21.7422C57.3934 21.6361 57.5873 21.4853 57.743 21.2898C57.9021 21.0942 58.0132 20.8589 58.0761 20.5838H59.5229C59.4698 21.0777 59.3091 21.5185 59.0406 21.9062C58.7722 22.294 58.4126 22.599 57.9618 22.821C57.5144 23.0431 56.989 23.1541 56.3858 23.1541ZM63.2508 23.169C62.7669 23.169 62.3294 23.0795 61.9383 22.9006C61.5472 22.7183 61.2373 22.4548 61.0087 22.1101C60.7833 21.7654 60.6706 21.3428 60.6706 20.8423C60.6706 20.4115 60.7534 20.0568 60.9192 19.7784C61.0849 19.5 61.3086 19.2796 61.5903 19.1172C61.8721 18.9548 62.1869 18.8321 62.5349 18.7493C62.8829 18.6664 63.2376 18.6035 63.5989 18.5604C64.0562 18.5073 64.4275 18.4643 64.7125 18.4311C64.9975 18.3946 65.2047 18.3366 65.3339 18.2571C65.4632 18.1776 65.5278 18.0483 65.5278 17.8693V17.8345C65.5278 17.4003 65.4052 17.0639 65.1599 16.8253C64.918 16.5866 64.5567 16.4673 64.0761 16.4673C63.5757 16.4673 63.1812 16.5784 62.8929 16.8004C62.6078 17.0192 62.4106 17.2628 62.3013 17.5312L60.9042 17.2131C61.07 16.7491 61.3119 16.3745 61.6301 16.0895C61.9516 15.8011 62.3212 15.5923 62.7388 15.4631C63.1564 15.3305 63.5955 15.2642 64.0562 15.2642C64.3612 15.2642 64.6843 15.3007 65.0257 15.3736C65.3704 15.4432 65.6919 15.5724 65.9902 15.7614C66.2918 15.9503 66.5387 16.2204 66.731 16.5717C66.9232 16.9197 67.0193 17.3722 67.0193 17.929V23H65.5676V21.956H65.5079C65.4118 22.1482 65.2676 22.3371 65.0754 22.5227C64.8832 22.7083 64.6363 22.8625 64.3346 22.9851C64.033 23.1077 63.6718 23.169 63.2508 23.169ZM63.574 21.9759C63.985 21.9759 64.3363 21.8946 64.628 21.7322C64.923 21.5698 65.1467 21.3577 65.2991 21.0959C65.4549 20.8307 65.5328 20.5473 65.5328 20.2457V19.2614C65.4798 19.3144 65.377 19.3641 65.2246 19.4105C65.0754 19.4536 64.9047 19.4917 64.7125 19.5249C64.5203 19.5547 64.333 19.5829 64.1507 19.6094C63.9684 19.6326 63.8159 19.6525 63.6933 19.669C63.405 19.7055 63.1415 19.7668 62.9028 19.853C62.6675 19.9392 62.4786 20.0634 62.3361 20.2259C62.1969 20.3849 62.1273 20.5971 62.1273 20.8622C62.1273 21.2301 62.2632 21.5085 62.5349 21.6974C62.8067 21.883 63.1531 21.9759 63.574 21.9759ZM72.4799 15.3636V16.5568H68.3087V15.3636H72.4799ZM69.4273 13.5341H70.9138V20.7578C70.9138 21.0462 70.9569 21.2633 71.0431 21.4091C71.1293 21.5516 71.2403 21.6494 71.3762 21.7024C71.5154 21.7521 71.6662 21.777 71.8286 21.777C71.9479 21.777 72.0523 21.7687 72.1418 21.7521C72.2313 21.7356 72.3009 21.7223 72.3506 21.7124L72.6191 22.9403C72.5329 22.9735 72.4103 23.0066 72.2512 23.0398C72.0921 23.0762 71.8932 23.0961 71.6546 23.0994C71.2635 23.1061 70.8989 23.0365 70.5608 22.8906C70.2228 22.7448 69.9493 22.5194 69.7405 22.2145C69.5317 21.9096 69.4273 21.5268 69.4273 21.0661V13.5341ZM74.0402 23V15.3636H75.5267V23H74.0402ZM74.7909 14.1854C74.5324 14.1854 74.3104 14.0992 74.1247 13.9268C73.9425 13.7512 73.8513 13.5424 73.8513 13.3004C73.8513 13.0552 73.9425 12.8464 74.1247 12.674C74.3104 12.4983 74.5324 12.4105 74.7909 12.4105C75.0495 12.4105 75.2699 12.4983 75.4522 12.674C75.6378 12.8464 75.7306 13.0552 75.7306 13.3004C75.7306 13.5424 75.6378 13.7512 75.4522 13.9268C75.2699 14.0992 75.0495 14.1854 74.7909 14.1854ZM80.6592 23.1541C79.9433 23.1541 79.3185 22.9901 78.7849 22.6619C78.2513 22.3338 77.837 21.8748 77.542 21.2848C77.247 20.6948 77.0995 20.0054 77.0995 19.2166C77.0995 18.4245 77.247 17.7318 77.542 17.1385C77.837 16.5452 78.2513 16.0845 78.7849 15.7564C79.3185 15.4283 79.9433 15.2642 80.6592 15.2642C81.3751 15.2642 81.9998 15.4283 82.5335 15.7564C83.0671 16.0845 83.4814 16.5452 83.7764 17.1385C84.0713 17.7318 84.2188 18.4245 84.2188 19.2166C84.2188 20.0054 84.0713 20.6948 83.7764 21.2848C83.4814 21.8748 83.0671 22.3338 82.5335 22.6619C81.9998 22.9901 81.3751 23.1541 80.6592 23.1541ZM80.6641 21.9062C81.1282 21.9062 81.5126 21.7836 81.8176 21.5384C82.1225 21.2931 82.3479 20.9666 82.4937 20.5589C82.6428 20.1513 82.7174 19.7022 82.7174 19.2116C82.7174 18.7244 82.6428 18.277 82.4937 17.8693C82.3479 17.4583 82.1225 17.1286 81.8176 16.88C81.5126 16.6314 81.1282 16.5071 80.6641 16.5071C80.1968 16.5071 79.809 16.6314 79.5008 16.88C79.1959 17.1286 78.9688 17.4583 78.8197 17.8693C78.6739 18.277 78.6009 18.7244 78.6009 19.2116C78.6009 19.7022 78.6739 20.1513 78.8197 20.5589C78.9688 20.9666 79.1959 21.2931 79.5008 21.5384C79.809 21.7836 80.1968 21.9062 80.6641 21.9062ZM87.2806 18.4659V23H85.7941V15.3636H87.2209V16.6065H87.3154C87.4911 16.2022 87.7662 15.8774 88.1407 15.6321C88.5185 15.3868 88.9941 15.2642 89.5675 15.2642C90.0879 15.2642 90.5436 15.3736 90.9347 15.5923C91.3258 15.8078 91.6291 16.1293 91.8445 16.5568C92.06 16.9844 92.1677 17.513 92.1677 18.1428V23H90.6812V18.3217C90.6812 17.7682 90.537 17.3357 90.2486 17.0241C89.9603 16.7093 89.5642 16.5518 89.0604 16.5518C88.7157 16.5518 88.4092 16.6264 88.1407 16.7756C87.8755 16.9247 87.6651 17.1435 87.5093 17.4318C87.3568 17.7169 87.2806 18.0616 87.2806 18.4659ZM99.7996 17.228L98.4523 17.4666C98.3959 17.2943 98.3065 17.1302 98.1838 16.9744C98.0645 16.8187 97.9021 16.6911 97.6966 16.5916C97.4911 16.4922 97.2342 16.4425 96.926 16.4425C96.5051 16.4425 96.1538 16.5369 95.872 16.7259C95.5903 16.9115 95.4494 17.1518 95.4494 17.4467C95.4494 17.7019 95.5439 17.9074 95.7328 18.0632C95.9217 18.219 96.2267 18.3466 96.6476 18.446L97.8607 18.7244C98.5633 18.8868 99.087 19.1371 99.4317 19.4751C99.7764 19.8132 99.9487 20.2524 99.9487 20.7926C99.9487 21.25 99.8162 21.6577 99.551 22.0156C99.2892 22.3703 98.9229 22.6487 98.4523 22.8509C97.985 23.053 97.4431 23.1541 96.8266 23.1541C95.9715 23.1541 95.2738 22.9718 94.7335 22.6072C94.1933 22.2393 93.8619 21.7173 93.7392 21.0412L95.176 20.8224C95.2655 21.197 95.4494 21.4804 95.7279 21.6726C96.0063 21.8615 96.3692 21.956 96.8166 21.956C97.3039 21.956 97.6933 21.8549 97.985 21.6527C98.2766 21.4472 98.4225 21.197 98.4225 20.902C98.4225 20.6634 98.333 20.4628 98.154 20.3004C97.9783 20.138 97.7082 20.0154 97.3436 19.9325L96.051 19.6491C95.3384 19.4867 94.8114 19.2282 94.47 18.8736C94.132 18.5189 93.9629 18.0698 93.9629 17.5263C93.9629 17.0755 94.0889 16.6811 94.3408 16.343C94.5927 16.005 94.9407 15.7415 95.3848 15.5526C95.8289 15.3603 96.3377 15.2642 96.9111 15.2642C97.7364 15.2642 98.386 15.4432 98.86 15.8011C99.3339 16.1558 99.6471 16.6314 99.7996 17.228Z" fill="#5C5C5C"/>
</svg>
