<svg width="21" height="20" viewBox="0 0 21 20" fill="none" xmlns="http://www.w3.org/2000/svg">
<path d="M8.98125 7.73135C9.34834 7.36422 9.59832 6.89649 9.69958 6.3873C9.80085 5.87811 9.74885 5.35032 9.55016 4.87068C9.35147 4.39104 9.01502 3.98109 8.58335 3.69266C8.15167 3.40423 7.64417 3.25029 7.125 3.25029C6.60584 3.25029 6.09833 3.40423 5.66666 3.69266C5.23498 3.98109 4.89853 4.39104 4.69984 4.87068C4.50116 5.35032 4.44916 5.87811 4.55042 6.3873C4.65169 6.89649 4.90167 7.36422 5.26875 7.73135L7.125 9.5876L8.98125 7.73135ZM7.125 11.7086L4.2075 8.7926C3.6308 8.21563 3.23813 7.48062 3.07912 6.6805C2.92011 5.88038 3.00192 5.05108 3.31418 4.29745C3.62645 3.54382 4.15517 2.89969 4.83348 2.44652C5.51179 1.99334 6.30924 1.75146 7.125 1.75146C7.94077 1.75146 8.73822 1.99334 9.41653 2.44652C10.0948 2.89969 10.6236 3.54382 10.9358 4.29745C11.2481 5.05108 11.3299 5.88038 11.1709 6.6805C11.0119 7.48062 10.6192 8.21563 10.0425 8.7926L7.125 11.7101V11.7086ZM7.125 7.0001C6.82663 7.0001 6.54048 6.88157 6.32951 6.67059C6.11853 6.45961 6 6.17346 6 5.8751C6 5.57673 6.11853 5.29058 6.32951 5.0796C6.54048 4.86862 6.82663 4.7501 7.125 4.7501C7.42337 4.7501 7.70952 4.86862 7.9205 5.0796C8.13148 5.29058 8.25 5.57673 8.25 5.8751C8.25 6.17346 8.13148 6.45961 7.9205 6.67059C7.70952 6.88157 7.42337 7.0001 7.125 7.0001ZM13.875 16.3376L15.7313 14.4813C16.0983 14.1142 16.3483 13.6465 16.4496 13.1373C16.5508 12.6281 16.4988 12.1003 16.3002 11.6207C16.1015 11.141 15.765 10.7311 15.3333 10.4427C14.9017 10.1542 14.3942 10.0003 13.875 10.0003C13.3558 10.0003 12.8483 10.1542 12.4167 10.4427C11.985 10.7311 11.6485 11.141 11.4498 11.6207C11.2512 12.1003 11.1992 12.6281 11.3004 13.1373C11.4017 13.6465 11.6517 14.1142 12.0188 14.4813L13.875 16.3376ZM16.7925 15.5426L13.875 18.4586L10.9575 15.5418C10.3808 14.9649 9.98813 14.2299 9.82912 13.4298C9.67011 12.6296 9.75192 11.8003 10.0642 11.0467C10.3765 10.2931 10.9052 9.64894 11.5835 9.19577C12.2618 8.74259 13.0592 8.50072 13.875 8.50072C14.6908 8.50072 15.4882 8.74259 16.1665 9.19577C16.8448 9.64894 17.3736 10.2931 17.6858 11.0467C17.9981 11.8003 18.0799 12.6296 17.9209 13.4298C17.7619 14.2299 17.3692 14.9649 16.7925 15.5418V15.5426ZM13.875 13.7501C13.5766 13.7501 13.2905 13.6316 13.0795 13.4206C12.8685 13.2096 12.75 12.9235 12.75 12.6251C12.75 12.3267 12.8685 12.0406 13.0795 11.8296C13.2905 11.6186 13.5766 11.5001 13.875 11.5001C14.1734 11.5001 14.4595 11.6186 14.6705 11.8296C14.8815 12.0406 15 12.3267 15 12.6251C15 12.9235 14.8815 13.2096 14.6705 13.4206C14.4595 13.6316 14.1734 13.7501 13.875 13.7501Z" fill="#5C5C5C"/>
</svg>
