<svg width="28" height="28" viewBox="0 0 28 28" fill="none" xmlns="http://www.w3.org/2000/svg">
<g id="price-tag-3-fill">
<path id="Vector" d="M12.8448 3.60547L23.2388 5.09122L24.7235 15.4862L15.0719 25.1378C14.875 25.3347 14.608 25.4452 14.3295 25.4452C14.0511 25.4452 13.7841 25.3347 13.5872 25.1378L3.19219 14.7428C2.99535 14.5459 2.88477 14.2789 2.88477 14.0005C2.88477 13.722 2.99535 13.455 3.19219 13.2581L12.8448 3.60547ZM15.8142 12.5158C16.0093 12.7107 16.2408 12.8654 16.4956 12.9709C16.7504 13.0764 17.0235 13.1306 17.2993 13.1306C17.5751 13.1305 17.8482 13.0762 18.1029 12.9706C18.3577 12.865 18.5892 12.7103 18.7842 12.5152C18.9791 12.3202 19.1338 12.0887 19.2393 11.8339C19.3448 11.579 19.399 11.306 19.399 11.0302C19.3989 10.7544 19.3446 10.4813 19.239 10.2265C19.1334 9.97177 18.9787 9.74029 18.7836 9.54532C18.5886 9.35035 18.3571 9.1957 18.1023 9.0902C17.8474 8.98471 17.5744 8.93044 17.2986 8.93049C16.7416 8.93059 16.2075 9.15194 15.8137 9.54584C15.42 9.93975 15.1988 10.4739 15.1989 11.0309C15.199 11.5879 15.4203 12.122 15.8142 12.5158Z" fill="#EF4F54"/>
</g>
</svg>
