<svg width="224" height="36" viewBox="0 0 224 36" fill="none" xmlns="http://www.w3.org/2000/svg">
<path d="M0 10C0 4.47715 4.47715 0 10 0H214C219.523 0 224 4.47715 224 10V26C224 31.5228 219.523 36 214 36H10C4.47715 36 0 31.5228 0 26V10Z" fill="white"/>
<path d="M18 11.125L23.9375 14.5625V21.4375L18 24.875L12.0625 21.4375V14.5625L18 11.125ZM13.9337 14.9236L18.0001 17.2778L22.0664 14.9236L18 12.5694L13.9337 14.9236ZM13.3125 16.0083V20.7168L17.3751 23.0688V18.3603L13.3125 16.0083ZM18.6251 23.0688L22.6875 20.7168V16.0084L18.6251 18.3603V23.0688Z" fill="#A4A4A4"/>
<path d="M37.1186 23V12.8182H40.7479C41.54 12.8182 42.1963 12.9624 42.7166 13.2507C43.237 13.5391 43.6264 13.9335 43.8849 14.4339C44.1435 14.9311 44.2727 15.4912 44.2727 16.1143C44.2727 16.7408 44.1418 17.3042 43.88 17.8047C43.6214 18.3018 43.2304 18.6963 42.7067 18.9879C42.1863 19.2763 41.5317 19.4205 40.7429 19.4205H38.2472V18.1179H40.6037C41.1042 18.1179 41.5102 18.0317 41.8217 17.8594C42.1333 17.6837 42.362 17.4451 42.5078 17.1435C42.6536 16.8419 42.7266 16.4988 42.7266 16.1143C42.7266 15.7299 42.6536 15.3885 42.5078 15.0902C42.362 14.7919 42.1316 14.5582 41.8168 14.3892C41.5052 14.2202 41.0942 14.1357 40.5838 14.1357H38.6548V23H37.1186ZM45.8704 23V15.3636H47.3072V16.5767H47.3867C47.5259 16.1657 47.7712 15.8426 48.1225 15.6072C48.4771 15.3686 48.8782 15.2493 49.3256 15.2493C49.4184 15.2493 49.5278 15.2526 49.6537 15.2592C49.783 15.2659 49.8841 15.2741 49.957 15.2841V16.706C49.8974 16.6894 49.7913 16.6712 49.6388 16.6513C49.4864 16.6281 49.3339 16.6165 49.1814 16.6165C48.8301 16.6165 48.5169 16.6911 48.2418 16.8402C47.97 16.986 47.7546 17.1899 47.5955 17.4517C47.4364 17.7102 47.3569 18.0052 47.3569 18.3366V23H45.8704ZM54.1026 23.1541C53.3867 23.1541 52.7619 22.9901 52.2283 22.6619C51.6947 22.3338 51.2804 21.8748 50.9854 21.2848C50.6904 20.6948 50.5429 20.0054 50.5429 19.2166C50.5429 18.4245 50.6904 17.7318 50.9854 17.1385C51.2804 16.5452 51.6947 16.0845 52.2283 15.7564C52.7619 15.4283 53.3867 15.2642 54.1026 15.2642C54.8185 15.2642 55.4433 15.4283 55.9769 15.7564C56.5105 16.0845 56.9248 16.5452 57.2198 17.1385C57.5148 17.7318 57.6623 18.4245 57.6623 19.2166C57.6623 20.0054 57.5148 20.6948 57.2198 21.2848C56.9248 21.8748 56.5105 22.3338 55.9769 22.6619C55.4433 22.9901 54.8185 23.1541 54.1026 23.1541ZM54.1076 21.9062C54.5716 21.9062 54.9561 21.7836 55.261 21.5384C55.5659 21.2931 55.7913 20.9666 55.9371 20.5589C56.0863 20.1513 56.1608 19.7022 56.1608 19.2116C56.1608 18.7244 56.0863 18.277 55.9371 17.8693C55.7913 17.4583 55.5659 17.1286 55.261 16.88C54.9561 16.6314 54.5716 16.5071 54.1076 16.5071C53.6402 16.5071 53.2525 16.6314 52.9442 16.88C52.6393 17.1286 52.4123 17.4583 52.2631 17.8693C52.1173 18.277 52.0444 18.7244 52.0444 19.2116C52.0444 19.7022 52.1173 20.1513 52.2631 20.5589C52.4123 20.9666 52.6393 21.2931 52.9442 21.5384C53.2525 21.7836 53.6402 21.9062 54.1076 21.9062ZM62.0962 23.1491C61.4797 23.1491 60.9295 22.9917 60.4456 22.6768C59.965 22.3587 59.5872 21.9062 59.3121 21.3196C59.0403 20.7296 58.9044 20.022 58.9044 19.1967C58.9044 18.3714 59.042 17.6655 59.3171 17.0788C59.5955 16.4922 59.9766 16.0431 60.4605 15.7315C60.9444 15.42 61.493 15.2642 62.1061 15.2642C62.5801 15.2642 62.9612 15.3438 63.2496 15.5028C63.5413 15.6586 63.7666 15.8409 63.9257 16.0497C64.0881 16.2585 64.2141 16.4425 64.3036 16.6016H64.3931V12.8182H65.8796V23H64.4279V21.8118H64.3036C64.2141 21.9742 64.0848 22.1598 63.9158 22.3686C63.7501 22.5774 63.5214 22.7597 63.2297 22.9155C62.938 23.0713 62.5602 23.1491 62.0962 23.1491ZM62.4243 21.8814C62.8519 21.8814 63.2131 21.7687 63.5081 21.5433C63.8064 21.3146 64.0318 20.9981 64.1843 20.5938C64.34 20.1894 64.4179 19.7187 64.4179 19.1818C64.4179 18.6515 64.3417 18.1875 64.1892 17.7898C64.0368 17.392 63.813 17.0821 63.5181 16.8601C63.2231 16.638 62.8585 16.527 62.4243 16.527C61.9769 16.527 61.604 16.643 61.3057 16.875C61.0074 17.107 60.782 17.4235 60.6296 17.8246C60.4804 18.2256 60.4058 18.678 60.4058 19.1818C60.4058 19.6922 60.4821 20.1513 60.6345 20.5589C60.787 20.9666 61.0124 21.2898 61.3107 21.5284C61.6123 21.7637 61.9835 21.8814 62.4243 21.8814ZM72.7546 19.8331V15.3636H74.246V23H72.7844V21.6776H72.7048C72.5292 22.0852 72.2475 22.425 71.8597 22.6967C71.4752 22.9652 70.9963 23.0994 70.4229 23.0994C69.9323 23.0994 69.4982 22.9917 69.1203 22.7763C68.7458 22.5575 68.4508 22.2344 68.2354 21.8068C68.0233 21.3793 67.9172 20.8506 67.9172 20.2209V15.3636H69.4037V20.0419C69.4037 20.5623 69.5479 20.9766 69.8362 21.2848C70.1246 21.593 70.4991 21.7472 70.9598 21.7472C71.2382 21.7472 71.515 21.6776 71.7901 21.5384C72.0685 21.3991 72.2988 21.1887 72.4811 20.907C72.6667 20.6252 72.7579 20.2673 72.7546 19.8331ZM79.376 23.1541C78.6369 23.1541 78.0005 22.9867 77.4669 22.652C76.9366 22.3139 76.5289 21.8482 76.2439 21.255C75.9588 20.6617 75.8163 19.9822 75.8163 19.2166C75.8163 18.4411 75.9622 17.7566 76.2538 17.1634C76.5455 16.5668 76.9565 16.1011 77.4868 15.7663C78.0171 15.4316 78.6419 15.2642 79.3611 15.2642C79.9411 15.2642 80.4581 15.3719 80.9122 15.5874C81.3663 15.7995 81.7325 16.0978 82.0109 16.4822C82.2927 16.8667 82.46 17.3158 82.5131 17.8295H81.0663C80.9868 17.4716 80.8045 17.1634 80.5195 16.9048C80.2377 16.6463 79.8599 16.517 79.3859 16.517C78.9716 16.517 78.6087 16.6264 78.2972 16.8452C77.9889 17.0606 77.7486 17.3688 77.5763 17.7699C77.4039 18.1676 77.3178 18.6383 77.3178 19.1818C77.3178 19.7386 77.4023 20.2192 77.5713 20.6236C77.7403 21.0279 77.979 21.3411 78.2872 21.5632C78.5988 21.7853 78.965 21.8963 79.3859 21.8963C79.6677 21.8963 79.9229 21.8449 80.1516 21.7422C80.3836 21.6361 80.5775 21.4853 80.7332 21.2898C80.8923 21.0942 81.0034 20.8589 81.0663 20.5838H82.5131C82.46 21.0777 82.2993 21.5185 82.0308 21.9062C81.7624 22.294 81.4027 22.599 80.952 22.821C80.5045 23.0431 79.9792 23.1541 79.376 23.1541ZM87.5834 15.3636V16.5568H83.4122V15.3636H87.5834ZM84.5308 13.5341H86.0173V20.7578C86.0173 21.0462 86.0604 21.2633 86.1466 21.4091C86.2327 21.5516 86.3438 21.6494 86.4797 21.7024C86.6189 21.7521 86.7697 21.777 86.9321 21.777C87.0514 21.777 87.1558 21.7687 87.2453 21.7521C87.3348 21.7356 87.4044 21.7223 87.4541 21.7124L87.7226 22.9403C87.6364 22.9735 87.5138 23.0066 87.3547 23.0398C87.1956 23.0762 86.9967 23.0961 86.7581 23.0994C86.367 23.1061 86.0024 23.0365 85.6643 22.8906C85.3263 22.7448 85.0528 22.5194 84.844 22.2145C84.6352 21.9096 84.5308 21.5268 84.5308 21.0661V13.5341ZM94.743 17.228L93.3957 17.4666C93.3393 17.2943 93.2498 17.1302 93.1272 16.9744C93.0079 16.8187 92.8455 16.6911 92.64 16.5916C92.4345 16.4922 92.1776 16.4425 91.8694 16.4425C91.4485 16.4425 91.0971 16.5369 90.8154 16.7259C90.5337 16.9115 90.3928 17.1518 90.3928 17.4467C90.3928 17.7019 90.4873 17.9074 90.6762 18.0632C90.8651 18.219 91.17 18.3466 91.591 18.446L92.804 18.7244C93.5067 18.8868 94.0304 19.1371 94.3751 19.4751C94.7198 19.8132 94.8921 20.2524 94.8921 20.7926C94.8921 21.25 94.7595 21.6577 94.4944 22.0156C94.2325 22.3703 93.8663 22.6487 93.3957 22.8509C92.9283 23.053 92.3864 23.1541 91.77 23.1541C90.9148 23.1541 90.2172 22.9718 89.6769 22.6072C89.1367 22.2393 88.8052 21.7173 88.6826 21.0412L90.1194 20.8224C90.2089 21.197 90.3928 21.4804 90.6712 21.6726C90.9496 21.8615 91.3126 21.956 91.76 21.956C92.2472 21.956 92.6367 21.8549 92.9283 21.6527C93.22 21.4472 93.3658 21.197 93.3658 20.902C93.3658 20.6634 93.2763 20.4628 93.0974 20.3004C92.9217 20.138 92.6516 20.0154 92.287 19.9325L90.9944 19.6491C90.2818 19.4867 89.7548 19.2282 89.4134 18.8736C89.0754 18.5189 88.9063 18.0698 88.9063 17.5263C88.9063 17.0755 89.0323 16.6811 89.2842 16.343C89.5361 16.005 89.8841 15.7415 90.3282 15.5526C90.7723 15.3603 91.2811 15.2642 91.8545 15.2642C92.6798 15.2642 93.3294 15.4432 93.8033 15.8011C94.2773 16.1558 94.5905 16.6314 94.743 17.228Z" fill="#5C5C5C"/>
</svg>
