<svg width="20" height="20" viewBox="0 0 20 20" fill="none" xmlns="http://www.w3.org/2000/svg">
<path d="M4 5.6072V15.2252L7.79875 13.5977L12.2987 15.8477L16 14.2599V4.6427L16.9772 4.2242C17.0343 4.19974 17.0966 4.18983 17.1584 4.19536C17.2202 4.20089 17.2797 4.22168 17.3316 4.25588C17.3834 4.29008 17.4259 4.33661 17.4553 4.3913C17.4847 4.44598 17.5001 4.50711 17.5 4.5692V15.2499L12.25 17.4999L7.75 15.2499L3.02275 17.2757C2.96569 17.3002 2.90344 17.3101 2.8416 17.3045C2.77976 17.299 2.72026 17.2782 2.66844 17.244C2.61662 17.2098 2.5741 17.1633 2.54471 17.1086C2.51531 17.0539 2.49994 16.9928 2.5 16.9307V6.24995L4 5.6072ZM13.1823 9.4322L10 12.6137L6.81775 9.4322C6.18849 8.80283 5.75998 8.00101 5.58641 7.12811C5.41284 6.25522 5.502 5.35046 5.84262 4.52824C6.18323 3.70601 6.76001 3.00325 7.50001 2.50882C8.24002 2.01439 9.11002 1.75049 10 1.75049C10.89 1.75049 11.76 2.01439 12.5 2.50882C13.24 3.00325 13.8168 3.70601 14.1574 4.52824C14.498 5.35046 14.5872 6.25522 14.4136 7.12811C14.24 8.00101 13.8115 8.80283 13.1823 9.4322ZM10 10.4927L12.121 8.37095C12.5406 7.95143 12.8265 7.41688 12.9423 6.83491C13.0581 6.25295 12.9988 5.6497 12.7717 5.10147C12.5447 4.55324 12.1602 4.08465 11.6668 3.75496C11.1734 3.42528 10.5934 3.24931 10 3.24931C9.40662 3.24931 8.82656 3.42528 8.3332 3.75496C7.83983 4.08465 7.45531 4.55324 7.22827 5.10147C7.00124 5.6497 6.94188 6.25295 7.05771 6.83491C7.17354 7.41688 7.45935 7.95143 7.879 8.37095L10 10.4927Z" fill="#EF4F54"/>
</svg>
