<svg width="11" height="11" viewBox="0 0 11 11" fill="none" xmlns="http://www.w3.org/2000/svg">
<g id="shake-hands-line">
<path id="Vector" d="M5.20959 2.35676C5.5263 2.14562 5.93776 2.14124 6.2589 2.3456L7.59034 3.19288H8.13789C8.31486 3.19288 8.45832 3.33634 8.45832 3.51331V6.39716C8.45832 6.57413 8.31486 6.71759 8.13789 6.71759H7.65094C7.67 7.02113 7.52699 7.3297 7.23931 7.50232L5.60724 8.48158C5.4012 8.60517 5.14544 8.60228 4.94373 8.47914C4.71933 8.67759 4.37391 8.69944 4.12331 8.50253L2.47606 7.20826C2.23048 7.01533 2.16838 6.68567 2.29519 6.42433C2.14032 6.30289 2.0498 6.11694 2.0498 5.92004V3.51333C2.0498 3.33636 2.19327 3.1929 2.37023 3.1929H3.95537L5.20959 2.35676ZM2.74598 5.96307L2.96773 5.76905C3.36192 5.42411 3.9597 5.45827 4.31204 5.84586L5.1779 6.7983C5.45651 7.10479 5.50733 7.55506 5.30469 7.9157L6.90959 6.95278C6.99976 6.89869 7.03238 6.79055 6.99877 6.69945L5.58019 4.7135C5.5005 4.60194 5.35868 4.55343 5.22737 4.59283L4.43102 4.83173C4.0923 4.93334 3.72513 4.84077 3.47507 4.59072L3.38126 4.49691C3.19925 4.3149 3.15218 4.05587 3.22878 3.83376H2.69066V5.92004L2.74598 5.96307ZM5.91485 2.88627C5.8078 2.81815 5.67065 2.81961 5.56507 2.88999L3.83441 4.04376L3.92822 4.13757C4.01158 4.22092 4.13397 4.25178 4.24688 4.2179L5.04322 3.979C5.43716 3.86082 5.86265 4.00634 6.10169 4.34101L7.3415 6.07673H7.81746V3.83374H7.59034C7.46845 3.83374 7.34909 3.79898 7.24626 3.73355L5.91485 2.88627ZM3.38974 6.25133L2.872 6.70435L4.51925 7.99863L4.7448 7.60389C4.8137 7.48335 4.7971 7.33214 4.70369 7.22937L3.83784 6.27693C3.72039 6.14773 3.52113 6.13636 3.38974 6.25133Z" fill="#5C5C5C"/>
</g>
</svg>
