<svg width="20" height="20" viewBox="0 0 20 20" fill="none" xmlns="http://www.w3.org/2000/svg">
<g id="share-line">
<path id="Vector" d="M10.84 13.7673L7.69078 12.0498C7.27963 12.4893 6.74577 12.795 6.15859 12.9272C5.5714 13.0593 4.95804 13.0118 4.39822 12.7908C3.8384 12.5698 3.358 12.1855 3.01946 11.6879C2.68091 11.1902 2.49988 10.6023 2.49988 10.0004C2.49988 9.39853 2.68091 8.81058 3.01946 8.31295C3.358 7.81532 3.8384 7.43102 4.39822 7.21C4.95804 6.98898 5.5714 6.94146 6.15859 7.07362C6.74577 7.20577 7.27963 7.51148 7.69078 7.95103L10.8408 6.23353C10.6619 5.52559 10.7474 4.77672 11.0813 4.12731C11.4151 3.47789 11.9743 2.97252 12.654 2.70591C13.3338 2.4393 14.0875 2.42976 14.7738 2.67908C15.4601 2.9284 16.0319 3.41947 16.382 4.06023C16.7321 4.70099 16.8366 5.44745 16.6757 6.15969C16.5148 6.87193 16.0997 7.50106 15.5082 7.92914C14.9167 8.35722 14.1893 8.55486 13.4625 8.48503C12.7356 8.41519 12.0592 8.08266 11.56 7.54978L8.41003 9.26728C8.53093 9.7483 8.53093 10.2518 8.41003 10.7328L11.5593 12.4503C12.0585 11.9174 12.7349 11.5849 13.4617 11.515C14.1886 11.4452 14.9159 11.6428 15.5075 12.0709C16.099 12.499 16.5141 13.1281 16.675 13.8404C16.8358 14.5526 16.7314 15.2991 16.3813 15.9398C16.0311 16.5806 15.4593 17.0717 14.773 17.321C14.0867 17.5703 13.3331 17.5608 12.6533 17.2942C11.9735 17.0275 11.4143 16.5222 11.0805 15.8728C10.7467 15.2233 10.6612 14.4745 10.84 13.7665V13.7673ZM5.50003 11.5C5.89786 11.5 6.27939 11.342 6.56069 11.0607C6.842 10.7794 7.00003 10.3979 7.00003 10C7.00003 9.60221 6.842 9.22067 6.56069 8.93937C6.27939 8.65807 5.89786 8.50003 5.50003 8.50003C5.10221 8.50003 4.72068 8.65807 4.43937 8.93937C4.15807 9.22067 4.00003 9.60221 4.00003 10C4.00003 10.3979 4.15807 10.7794 4.43937 11.0607C4.72068 11.342 5.10221 11.5 5.50003 11.5ZM13.75 7.00003C14.1479 7.00003 14.5294 6.842 14.8107 6.56069C15.092 6.27939 15.25 5.89786 15.25 5.50003C15.25 5.10221 15.092 4.72067 14.8107 4.43937C14.5294 4.15807 14.1479 4.00003 13.75 4.00003C13.3522 4.00003 12.9707 4.15807 12.6894 4.43937C12.4081 4.72067 12.25 5.10221 12.25 5.50003C12.25 5.89786 12.4081 6.27939 12.6894 6.56069C12.9707 6.842 13.3522 7.00003 13.75 7.00003ZM13.75 16C14.1479 16 14.5294 15.842 14.8107 15.5607C15.092 15.2794 15.25 14.8979 15.25 14.5C15.25 14.1022 15.092 13.7207 14.8107 13.4394C14.5294 13.1581 14.1479 13 13.75 13C13.3522 13 12.9707 13.1581 12.6894 13.4394C12.4081 13.7207 12.25 14.1022 12.25 14.5C12.25 14.8979 12.4081 15.2794 12.6894 15.5607C12.9707 15.842 13.3522 16 13.75 16Z" fill="#5C5C5C"/>
</g>
</svg>
