<svg width="11" height="11" viewBox="0 0 11 11" fill="none" xmlns="http://www.w3.org/2000/svg">
<g id="share-fill">
<path id="Vector" d="M5.85936 7.21115L3.89449 6.13951C3.70588 6.32672 3.46607 6.45391 3.20528 6.50504C2.94449 6.55616 2.67441 6.52893 2.42908 6.42678C2.18374 6.32462 1.97414 6.15212 1.8267 5.93102C1.67927 5.70992 1.60059 5.45012 1.60059 5.18437C1.60059 4.91862 1.67927 4.65882 1.8267 4.43772C1.97414 4.21662 2.18374 4.04412 2.42908 3.94197C2.67441 3.83981 2.94449 3.81258 3.20528 3.86371C3.46607 3.91483 3.70588 4.04202 3.89449 4.22924L5.85936 3.15759C5.79197 2.84142 5.84064 2.51155 5.99648 2.22832C6.15231 1.94508 6.40489 1.7274 6.70802 1.61509C7.01116 1.50277 7.3446 1.50332 7.64736 1.61665C7.95012 1.72997 8.20197 1.94848 8.35687 2.23223C8.51176 2.51599 8.55933 2.84601 8.4909 3.16196C8.42246 3.47791 8.24258 3.75866 7.98416 3.95289C7.72573 4.14711 7.40603 4.24182 7.08351 4.2197C6.76099 4.19758 6.45722 4.0601 6.22773 3.83242L4.26286 4.90406C4.30205 5.08888 4.30205 5.27986 4.26286 5.46468L6.22773 6.53632C6.45722 6.30864 6.76099 6.17116 7.08351 6.14904C7.40603 6.12692 7.72573 6.22163 7.98416 6.41586C8.24258 6.61008 8.42246 6.89083 8.4909 7.20678C8.55933 7.52273 8.51176 7.85276 8.35687 8.13651C8.20197 8.42026 7.95012 8.63877 7.64736 8.7521C7.3446 8.86542 7.01116 8.86597 6.70802 8.75365C6.40489 8.64134 6.15231 8.42366 5.99648 8.14042C5.84064 7.85719 5.79197 7.52732 5.85936 7.21115Z" fill="#5C5C5C"/>
</g>
</svg>
