<svg width="28" height="29" viewBox="0 0 28 29" fill="none" xmlns="http://www.w3.org/2000/svg">
<g id="shopping-basket-2-fill">
<path id="Vector" d="M17.5343 5.625L20.9058 11.4651H24.5V13.5651H23.2746L22.4798 23.1023C22.4579 23.3646 22.3383 23.6092 22.1446 23.7876C21.9509 23.9659 21.6973 24.065 21.434 24.0651H6.566C6.30271 24.065 6.04908 23.9659 5.85538 23.7876C5.66168 23.6092 5.54205 23.3646 5.5202 23.1023L4.7243 13.5651H3.5V11.4651H7.0931L10.4657 5.625L12.2843 6.675L9.5186 11.4651H18.4803L15.7157 6.675L17.5343 5.625ZM15.05 15.6651H12.95V19.8651H15.05V15.6651ZM10.85 15.6651H8.75V19.8651H10.85V15.6651ZM19.25 15.6651H17.15V19.8651H19.25V15.6651Z" fill="#EF4F54"/>
</g>
</svg>
