<svg width="24" height="24" viewBox="0 0 24 24" fill="none" xmlns="http://www.w3.org/2000/svg">
<path d="M19.2 21H4.79999C4.5613 21 4.33238 20.9052 4.1636 20.7364C3.99482 20.5676 3.89999 20.3387 3.89999 20.1V3.9C3.89999 3.66131 3.99482 3.43239 4.1636 3.2636C4.33238 3.09482 4.5613 3 4.79999 3H19.2C19.4387 3 19.6676 3.09482 19.8364 3.2636C20.0052 3.43239 20.1 3.66131 20.1 3.9V20.1C20.1 20.3387 20.0052 20.5676 19.8364 20.7364C19.6676 20.9052 19.4387 21 19.2 21ZM18.3 19.2V4.8H5.69999V19.2H18.3ZM9.29999 6.6V8.4C9.29999 9.11608 9.58446 9.80284 10.0908 10.3092C10.5972 10.8155 11.2839 11.1 12 11.1C12.7161 11.1 13.4028 10.8155 13.9092 10.3092C14.4155 9.80284 14.7 9.11608 14.7 8.4V6.6H16.5V8.4C16.5 9.59347 16.0259 10.7381 15.182 11.582C14.3381 12.4259 13.1935 12.9 12 12.9C10.8065 12.9 9.66193 12.4259 8.81801 11.582C7.9741 10.7381 7.49999 9.59347 7.49999 8.4V6.6H9.29999Z" fill="#5C5C5C"/>
</svg>
