<svg width="20" height="20" viewBox="0 0 20 20" fill="none" xmlns="http://www.w3.org/2000/svg">
<g id="shopping-cart-2-line">
<path id="Vector" d="M3.99963 5.80916L1.56738 3.37766L2.62863 2.31641L5.06013 4.74866H16.4916C16.6085 4.74865 16.7238 4.77597 16.8283 4.82843C16.9328 4.8809 17.0235 4.95705 17.0933 5.05083C17.1631 5.1446 17.21 5.25339 17.2303 5.36852C17.2506 5.48365 17.2437 5.60192 17.2101 5.71391L15.4101 11.7139C15.3638 11.8685 15.2689 12.004 15.1395 12.1003C15.01 12.1966 14.853 12.2487 14.6916 12.2487H5.49963V13.7487H13.7496V15.2487H4.74963C4.55072 15.2487 4.35996 15.1696 4.2193 15.029C4.07865 14.8883 3.99963 14.6976 3.99963 14.4987V5.80916ZM5.49963 6.24866V10.7487H14.1336L15.4836 6.24866H5.49963ZM5.12463 18.2487C4.82626 18.2487 4.54012 18.1301 4.32914 17.9192C4.11816 17.7082 3.99963 17.422 3.99963 17.1237C3.99963 16.8253 4.11816 16.5391 4.32914 16.3282C4.54012 16.1172 4.82626 15.9987 5.12463 15.9987C5.423 15.9987 5.70915 16.1172 5.92013 16.3282C6.13111 16.5391 6.24963 16.8253 6.24963 17.1237C6.24963 17.422 6.13111 17.7082 5.92013 17.9192C5.70915 18.1301 5.423 18.2487 5.12463 18.2487ZM14.1246 18.2487C13.8263 18.2487 13.5401 18.1301 13.3291 17.9192C13.1182 17.7082 12.9996 17.422 12.9996 17.1237C12.9996 16.8253 13.1182 16.5391 13.3291 16.3282C13.5401 16.1172 13.8263 15.9987 14.1246 15.9987C14.423 15.9987 14.7092 16.1172 14.9201 16.3282C15.1311 16.5391 15.2496 16.8253 15.2496 17.1237C15.2496 17.422 15.1311 17.7082 14.9201 17.9192C14.7092 18.1301 14.423 18.2487 14.1246 18.2487Z" fill="#5C5C5C"/>
</g>
</svg>
