<svg width="20" height="20" viewBox="0 0 20 20" fill="none" xmlns="http://www.w3.org/2000/svg">
<g id="space-ship-line">
<path id="Vector" d="M3.16016 14.5394C4.1923 9.97249 6.39761 5.75367 9.55841 2.29944C9.61461 2.2383 9.68289 2.18949 9.75893 2.1561C9.83497 2.12271 9.91711 2.10547 10.0002 2.10547C10.0832 2.10547 10.1653 2.12271 10.2414 2.1561C10.3174 2.18949 10.3857 2.2383 10.4419 2.29944C10.5664 2.43444 10.6699 2.54844 10.7517 2.64069C13.7491 6.0321 15.8431 10.1245 16.8402 14.5394C15.2344 14.8777 13.5852 15.0997 11.9022 15.1949L10.3354 18.3284C10.3042 18.3906 10.2564 18.443 10.1972 18.4795C10.1379 18.5161 10.0697 18.5354 10.0002 18.5354C9.93058 18.5354 9.86237 18.5161 9.80316 18.4795C9.74395 18.443 9.69608 18.3906 9.66491 18.3284L8.09816 15.1949C6.438 15.1011 4.7873 14.882 3.16016 14.5394ZM8.18366 13.6972L9.05141 13.7467L10.0002 15.6442L10.9489 13.7467L11.8167 13.6972C12.8785 13.6371 13.9366 13.5235 14.9869 13.3567C13.9918 9.94561 12.2931 6.78087 10.0002 4.06644C7.70723 6.78087 6.00848 9.94561 5.01341 13.3567C6.05966 13.5232 7.11716 13.6372 8.18366 13.6972ZM10.0002 12.2489C9.40342 12.2489 8.83112 12.0119 8.40917 11.5899C7.98721 11.168 7.75016 10.5957 7.75016 9.99894C7.75016 9.40221 7.98721 8.82991 8.40917 8.40795C8.83112 7.986 9.40342 7.74894 10.0002 7.74894C10.5969 7.74894 11.1692 7.986 11.5911 8.40795C12.0131 8.82991 12.2502 9.40221 12.2502 9.99894C12.2502 10.5957 12.0131 11.168 11.5911 11.5899C11.1692 12.0119 10.5969 12.2489 10.0002 12.2489ZM10.0002 10.7489C10.1991 10.7489 10.3898 10.6699 10.5305 10.5293C10.6711 10.3886 10.7502 10.1979 10.7502 9.99894C10.7502 9.80003 10.6711 9.60926 10.5305 9.46861C10.3898 9.32796 10.1991 9.24894 10.0002 9.24894C9.80124 9.24894 9.61048 9.32796 9.46983 9.46861C9.32917 9.60926 9.25016 9.80003 9.25016 9.99894C9.25016 10.1979 9.32917 10.3886 9.46983 10.5293C9.61048 10.6699 9.80124 10.7489 10.0002 10.7489Z" fill="#5C5C5C"/>
</g>
</svg>
