<svg width="20" height="20" viewBox="0 0 20 20" fill="none" xmlns="http://www.w3.org/2000/svg">
<g id="store-2-line">
<path id="Vector" d="M16.75 10.9315V16H17.5V17.5H2.5V16H3.25V10.9315C2.78828 10.6233 2.40978 10.2059 2.14811 9.71632C1.88645 9.22674 1.74969 8.68012 1.75 8.125C1.75 7.50475 1.918 6.907 2.22475 6.39775L4.25875 2.875C4.32457 2.76099 4.41925 2.66631 4.53326 2.60049C4.64727 2.53466 4.7766 2.5 4.90825 2.5H15.0925C15.2241 2.5 15.3535 2.53466 15.4675 2.60049C15.5815 2.66631 15.6762 2.76099 15.742 2.875L17.7685 6.3865C18.2159 7.12965 18.3597 8.01665 18.1701 8.8631C17.9804 9.70956 17.4718 10.4504 16.75 10.9315ZM15.25 11.479C14.7343 11.5368 14.2123 11.4749 13.7244 11.298C13.2366 11.1211 12.7962 10.834 12.4375 10.459C12.1227 10.7883 11.7443 11.0504 11.3254 11.2294C10.9065 11.4085 10.4556 11.5008 10 11.5008C9.54451 11.501 9.0937 11.4089 8.67477 11.2301C8.25584 11.0513 7.87747 10.7895 7.5625 10.4605C7.20372 10.8353 6.76328 11.1223 6.27547 11.2991C5.78765 11.4759 5.26562 11.5377 4.75 11.4797V16H15.25V11.4797V11.479ZM5.34175 4L3.517 7.15975C3.33968 7.59786 3.33436 8.08677 3.5021 8.52864C3.66984 8.9705 3.99826 9.33272 4.42164 9.5428C4.84501 9.75287 5.33211 9.79531 5.78544 9.66161C6.23876 9.52792 6.62488 9.22795 6.8665 8.82175C7.11775 8.194 8.0065 8.194 8.2585 8.82175C8.39747 9.17006 8.6377 9.4687 8.94814 9.67908C9.25859 9.88946 9.62499 10.0019 10 10.0019C10.375 10.0019 10.7414 9.88946 11.0519 9.67908C11.3623 9.4687 11.6025 9.17006 11.7415 8.82175C11.9928 8.194 12.8815 8.194 13.1335 8.82175C13.2308 9.06134 13.3767 9.2782 13.5619 9.45871C13.747 9.63921 13.9676 9.77946 14.2096 9.87064C14.4515 9.96182 14.7098 10.0019 14.968 9.98851C15.2263 9.97508 15.479 9.90837 15.7102 9.79257C15.9414 9.67677 16.1462 9.5144 16.3117 9.31565C16.4771 9.1169 16.5997 8.88607 16.6716 8.63768C16.7435 8.38929 16.7633 8.1287 16.7297 7.87229C16.6961 7.61588 16.6098 7.3692 16.4762 7.14775L14.6575 4H5.3425H5.34175Z" fill="#A4A4A4"/>
</g>
</svg>
