<svg width="20" height="20" viewBox="0 0 20 20" fill="none" xmlns="http://www.w3.org/2000/svg">
<g id="truck-line">
<path id="Vector" d="M7.72375 14.5C7.63459 15.1257 7.32266 15.6983 6.84526 16.1125C6.36786 16.5267 5.75704 16.7547 5.125 16.7547C4.49296 16.7547 3.88214 16.5267 3.40474 16.1125C2.92734 15.6983 2.61541 15.1257 2.52625 14.5H1.75V5.5C1.75 5.30109 1.82902 5.11032 1.96967 4.96967C2.11032 4.82902 2.30109 4.75 2.5 4.75H13C13.1989 4.75 13.3897 4.82902 13.5303 4.96967C13.671 5.11032 13.75 5.30109 13.75 5.5V7H16L18.25 10.042V14.5H16.7238C16.6346 15.1257 16.3227 15.6983 15.8453 16.1125C15.3679 16.5267 14.757 16.7547 14.125 16.7547C13.493 16.7547 12.8821 16.5267 12.4047 16.1125C11.9273 15.6983 11.6154 15.1257 11.5262 14.5H7.72375ZM12.25 6.25H3.25V12.2875C3.54592 11.9854 3.91045 11.7593 4.31256 11.6283C4.71468 11.4974 5.14247 11.4656 5.55953 11.5355C5.9766 11.6055 6.37058 11.7752 6.70796 12.0302C7.04533 12.2852 7.31611 12.6179 7.49725 13H11.7528C11.8787 12.7352 12.0475 12.4945 12.25 12.2875V6.25ZM13.75 10.75H16.75V10.5363L15.244 8.5H13.75V10.75ZM14.125 15.25C14.4235 15.25 14.7097 15.1314 14.9208 14.9204C15.1318 14.7093 15.2504 14.4231 15.2504 14.1246C15.2504 13.8262 15.1318 13.5399 14.9208 13.3289C14.7097 13.1178 14.4235 12.9992 14.125 12.9992C13.8265 12.9992 13.5403 13.1178 13.3292 13.3289C13.1182 13.5399 12.9996 13.8262 12.9996 14.1246C12.9996 14.4231 13.1182 14.7093 13.3292 14.9204C13.5403 15.1314 13.8265 15.25 14.125 15.25ZM6.25 14.125C6.25 13.9773 6.2209 13.831 6.16436 13.6945C6.10783 13.558 6.02496 13.434 5.9205 13.3295C5.81603 13.225 5.69201 13.1422 5.55552 13.0856C5.41903 13.0291 5.27274 13 5.125 13C4.97726 13 4.83097 13.0291 4.69448 13.0856C4.55799 13.1422 4.43397 13.225 4.3295 13.3295C4.22504 13.434 4.14217 13.558 4.08564 13.6945C4.0291 13.831 4 13.9773 4 14.125C4 14.4234 4.11853 14.7095 4.3295 14.9205C4.54048 15.1315 4.82663 15.25 5.125 15.25C5.42337 15.25 5.70952 15.1315 5.9205 14.9205C6.13147 14.7095 6.25 14.4234 6.25 14.125Z" fill="#5C5C5C"/>
</g>
</svg>
