<svg width="20" height="20" viewBox="0 0 20 20" fill="none" xmlns="http://www.w3.org/2000/svg">
<g id="wechat-line">
<path id="Vector" d="M8.5 12.0054V11.9589C8.5 10.0779 10.012 8.49544 12.0647 8.03419C11.7917 6.30769 9.96925 4.89844 7.675 4.89844C5.185 4.89844 3.25 6.55819 3.25 8.48344C3.25 9.21019 3.52 9.90844 4.03 10.5069C4.054 10.5354 4.09225 10.5774 4.144 10.6307C4.58493 11.0838 4.85116 11.6785 4.8955 12.3092C5.43107 11.9996 6.05648 11.8826 6.66775 11.9777C6.79225 11.9972 6.89425 12.0122 6.9715 12.0227C7.47931 12.0887 7.99389 12.0826 8.5 12.0047V12.0054ZM8.84275 13.4687C8.16046 13.5858 7.46443 13.5997 6.778 13.5099C6.6643 13.4946 6.55079 13.4778 6.4375 13.4597C6.15721 13.416 5.87048 13.4723 5.6275 13.6187L4.1995 14.4797C4.08952 14.5475 3.96073 14.5782 3.832 14.5674C3.75414 14.5616 3.67821 14.5404 3.60856 14.5051C3.53891 14.4698 3.47691 14.4211 3.42612 14.3618C3.37532 14.3025 3.33673 14.2338 3.31256 14.1595C3.28839 14.0853 3.27911 14.007 3.28525 13.9292L3.39775 12.5934C3.41177 12.4259 3.38963 12.2573 3.33282 12.099C3.27602 11.9408 3.18588 11.7966 3.0685 11.6762C3.00616 11.6126 2.94588 11.5471 2.88775 11.4797C2.17225 10.6397 1.75 9.60319 1.75 8.48269C1.75 5.67469 4.40275 3.39844 7.675 3.39844C10.72 3.39844 13.2272 5.36869 13.5625 7.90444C16.0915 8.01919 18.1 9.79069 18.1 11.9589C18.1 12.8537 17.758 13.6809 17.1782 14.3514C17.14 14.3964 17.0912 14.4489 17.032 14.5089C16.9372 14.6044 16.8642 14.7193 16.8181 14.8456C16.772 14.972 16.7539 15.1069 16.765 15.2409L16.8557 16.3082C16.8603 16.3708 16.8525 16.4336 16.8327 16.4932C16.813 16.5527 16.7816 16.6078 16.7405 16.6552C16.6994 16.7025 16.6493 16.7413 16.5931 16.7693C16.537 16.7973 16.4758 16.8139 16.4132 16.8182C16.309 16.8267 16.2048 16.802 16.1155 16.7477L14.9582 16.0599C14.761 15.9432 14.5293 15.8984 14.3027 15.9332C14.1925 15.9504 14.1002 15.9632 14.0267 15.9729C13.7897 16.0029 13.5467 16.0194 13.3 16.0194C11.2795 16.0194 9.5515 14.9634 8.84275 13.4687ZM14.0755 14.4512C14.4988 14.386 14.9317 14.431 15.3325 14.5817C15.4377 14.1563 15.6556 13.7672 15.9632 13.4552C16.0007 13.4177 16.0285 13.3877 16.0427 13.3712C16.4095 12.9474 16.6 12.4614 16.6 11.9589C16.6 10.6059 15.1727 9.39844 13.3 9.39844C11.4272 9.39844 10 10.6059 10 11.9589C10 13.3119 11.4272 14.5194 13.3 14.5194C13.4807 14.5194 13.66 14.5074 13.8355 14.4849C13.8955 14.4774 13.9765 14.4662 14.0755 14.4504V14.4512Z" fill="#5C5C5C"/>
</g>
</svg>
