<svg width="16" height="16" viewBox="0 0 16 16" fill="none" xmlns="http://www.w3.org/2000/svg">
<path d="M12.7996 2C13.1308 2 13.3996 2.2688 13.3996 2.6V4.8542L8.00021 10.2542L7.99661 12.797L10.5442 12.8006L13.3996 9.9452V13.4C13.3996 13.7312 13.1308 14 12.7996 14H3.19961C2.86841 14 2.59961 13.7312 2.59961 13.4V2.6C2.59961 2.2688 2.86841 2 3.19961 2H12.7996ZM13.8664 6.0848L14.7148 6.9332L10.048 11.6L9.19841 11.5988L9.19961 10.7516L13.8664 6.0848ZM7.99961 8H4.99961V9.2H7.99961V8ZM9.79961 5.6H4.99961V6.8H9.79961V5.6Z" fill="#7B7B7B"/>
</svg>
