<svg width="16" height="16" viewBox="0 0 16 16" fill="none" xmlns="http://www.w3.org/2000/svg">
<path d="M5 4H4V3H12V4H11V5C11 5.80771 10.5919 6.45734 10.078 6.98834C9.7266 7.3515 9.299 7.686 8.86545 8C9.299 8.314 9.7266 8.6485 10.078 9.01165C10.5919 9.54265 11 10.1923 11 11V12H12V13H4V12H5V11C5 10.1923 5.40808 9.54265 5.92195 9.01165C6.27341 8.6485 6.70101 8.314 7.13455 8C6.70101 7.686 6.27341 7.3515 5.92195 6.98834C5.40808 6.45734 5 5.80771 5 5V4ZM6 4V5C6 5.34257 6.13013 5.6675 6.38565 6H9.61435C9.86985 5.6675 10 5.34257 10 5V4H6ZM8 8.61095C7.4774 8.9801 7.004 9.3315 6.64055 9.7071C6.54504 9.8058 6.46003 9.9032 6.38565 10H9.61435C9.53995 9.9032 9.45495 9.8058 9.35945 9.7071C8.996 9.3315 8.5226 8.9801 8 8.61095Z" fill="#335CFF"/>
</svg>
