<svg width="20" height="20" viewBox="0 0 20 20" fill="none" xmlns="http://www.w3.org/2000/svg">
<path d="M15.625 7.5V10H14.375V8.125H11.25V5H5.625V15H9.375V16.25H4.99588C4.65309 16.25 4.375 15.9725 4.375 15.6301V4.36988C4.375 4.03457 4.65544 3.75 5.00138 3.75H11.873L15.625 7.5ZM11.1161 12.0793C11.1404 11.6248 11.4911 11.2552 11.9437 11.2071L12.4879 11.1493C12.5526 11.1424 12.6134 11.1153 12.6618 11.0719L13.0689 10.7062C13.4074 10.4019 13.9168 10.3886 14.2709 10.6747L14.6966 11.0186C14.7471 11.0594 14.8093 11.0833 14.8742 11.0868L15.4207 11.1161C15.8752 11.1404 16.2448 11.4911 16.2929 11.9437L16.3507 12.4879C16.3576 12.5526 16.3847 12.6134 16.4281 12.6618L16.7938 13.0689C17.0981 13.4074 17.1114 13.9168 16.8253 14.2709L16.4814 14.6966C16.4406 14.7471 16.4167 14.8093 16.4132 14.8742L16.3839 15.4207C16.3596 15.8752 16.0089 16.2448 15.5562 16.2929L15.0121 16.3507C14.9474 16.3576 14.8866 16.3847 14.8382 16.4281L14.4311 16.7938C14.0926 17.0981 13.5832 17.1114 13.2291 16.8253L12.8034 16.4814C12.7529 16.4406 12.6907 16.4167 12.6257 16.4132L12.0793 16.3839C11.6248 16.3596 11.2552 16.0089 11.2071 15.5562L11.1493 15.0121C11.1424 14.9474 11.1153 14.8866 11.0719 14.8382L10.7062 14.4311C10.4019 14.0926 10.3886 13.5831 10.6747 13.2291L11.0186 12.8034C11.0594 12.7529 11.0833 12.6907 11.0868 12.6257L11.1161 12.0793ZM15.6439 13.1439L14.9811 12.4811L13.4375 14.0246L12.5189 13.1061L11.8561 13.7689L13.4375 15.3504L15.6439 13.1439Z" fill="#A4A4A4"/>
</svg>
