<svg width="20" height="20" viewBox="0 0 20 20" fill="none" xmlns="http://www.w3.org/2000/svg">
<path d="M6.52776 3.75C6.14424 3.75 5.83332 4.06092 5.83332 4.44444V6.52778H3.74999C3.36646 6.52778 3.05554 6.83869 3.05554 7.22222V15.5556C3.05554 15.9391 3.36646 16.25 3.74999 16.25H13.4722C13.8558 16.25 14.1667 15.9391 14.1667 15.5556V13.4722H16.25C16.6335 13.4722 16.9444 13.1613 16.9444 12.7778V4.44444C16.9444 4.06092 16.6335 3.75 16.25 3.75H6.52776ZM13.4722 6.52778H7.22221V5.13889H15.5555V12.0833H14.1667V7.22222C14.1667 6.83869 13.8558 6.52778 13.4722 6.52778ZM12.7778 7.91667V12.5968L9.64658 9.75028L4.44443 14.6056V7.91667H12.7778ZM9.65895 11.6386L12.7778 14.4739V14.8611H6.20625L9.65895 11.6386ZM6.52776 11.0417C7.10306 11.0417 7.56943 10.5753 7.56943 10C7.56943 9.42472 7.10306 8.95833 6.52776 8.95833C5.95247 8.95833 5.4861 9.42472 5.4861 10C5.4861 10.5753 5.95247 11.0417 6.52776 11.0417Z" fill="#A4A4A4"/>
</svg>
