<svg width="20" height="20" viewBox="0 0 20 20" fill="none" xmlns="http://www.w3.org/2000/svg">
<path d="M8.48125 7.73122C8.84834 7.3641 9.09832 6.89637 9.19958 6.38718C9.30085 5.87798 9.24885 5.3502 9.05016 4.87056C8.85147 4.39092 8.51502 3.98096 8.08335 3.69254C7.65167 3.40411 7.14417 3.25016 6.625 3.25016C6.10584 3.25016 5.59833 3.40411 5.16666 3.69254C4.73498 3.98096 4.39853 4.39092 4.19984 4.87056C4.00116 5.3502 3.94916 5.87798 4.05042 6.38718C4.15169 6.89637 4.40167 7.3641 4.76875 7.73122L6.625 9.58747L8.48125 7.73122ZM6.625 11.7085L3.7075 8.79247C3.1308 8.21551 2.73813 7.4805 2.57912 6.68038C2.42011 5.88026 2.50192 5.05096 2.81418 4.29733C3.12645 3.54369 3.65517 2.89957 4.33348 2.4464C5.01179 1.99322 5.80924 1.75134 6.625 1.75134C7.44077 1.75134 8.23822 1.99322 8.91653 2.4464C9.59484 2.89957 10.1236 3.54369 10.4358 4.29733C10.7481 5.05096 10.8299 5.88026 10.6709 6.68038C10.5119 7.4805 10.1192 8.21551 9.5425 8.79247L6.625 11.71V11.7085ZM6.625 6.99997C6.32663 6.99997 6.04048 6.88145 5.82951 6.67047C5.61853 6.45949 5.5 6.17334 5.5 5.87497C5.5 5.57661 5.61853 5.29046 5.82951 5.07948C6.04048 4.8685 6.32663 4.74997 6.625 4.74997C6.92337 4.74997 7.20952 4.8685 7.4205 5.07948C7.63148 5.29046 7.75 5.57661 7.75 5.87497C7.75 6.17334 7.63148 6.45949 7.4205 6.67047C7.20952 6.88145 6.92337 6.99997 6.625 6.99997ZM13.375 16.3375L15.2313 14.4812C15.5983 14.1141 15.8483 13.6464 15.9496 13.1372C16.0508 12.628 15.9988 12.1002 15.8002 11.6206C15.6015 11.1409 15.265 10.731 14.8333 10.4425C14.4017 10.1541 13.8942 10.0002 13.375 10.0002C12.8558 10.0002 12.3483 10.1541 11.9167 10.4425C11.485 10.731 11.1485 11.1409 10.9498 11.6206C10.7512 12.1002 10.6992 12.628 10.8004 13.1372C10.9017 13.6464 11.1517 14.1141 11.5188 14.4812L13.375 16.3375ZM16.2925 15.5425L13.375 18.4585L10.4575 15.5417C9.8808 14.9648 9.48813 14.2297 9.32912 13.4296C9.17011 12.6295 9.25192 11.8002 9.56418 11.0466C9.87645 10.2929 10.4052 9.64882 11.0835 9.19565C11.7618 8.74247 12.5592 8.50059 13.375 8.50059C14.1908 8.50059 14.9882 8.74247 15.6665 9.19565C16.3448 9.64882 16.8736 10.2929 17.1858 11.0466C17.4981 11.8002 17.5799 12.6295 17.4209 13.4296C17.2619 14.2297 16.8692 14.9648 16.2925 15.5417V15.5425ZM13.375 13.75C13.0766 13.75 12.7905 13.6314 12.5795 13.4205C12.3685 13.2095 12.25 12.9233 12.25 12.625C12.25 12.3266 12.3685 12.0405 12.5795 11.8295C12.7905 11.6185 13.0766 11.5 13.375 11.5C13.6734 11.5 13.9595 11.6185 14.1705 11.8295C14.3815 12.0405 14.5 12.3266 14.5 12.625C14.5 12.9233 14.3815 13.2095 14.1705 13.4205C13.9595 13.6314 13.6734 13.75 13.375 13.75Z" fill="#EF4444"/>
</svg>
