<svg width="17" height="16" viewBox="0 0 17 16" fill="none" xmlns="http://www.w3.org/2000/svg">
<path d="M8.99364 2.62164L14.4236 12.1352C14.4737 12.2228 14.5 12.3223 14.5 12.4235C14.5 12.5247 14.4737 12.6241 14.4236 12.7117C14.3736 12.7994 14.3017 12.8722 14.215 12.9228C14.1283 12.9734 14.0301 13 13.93 13H3.07C2.96995 13 2.87165 12.9734 2.785 12.9228C2.69835 12.8722 2.62639 12.7994 2.57636 12.7117C2.52634 12.6241 2.5 12.5247 2.5 12.4235C2.5 12.3223 2.52634 12.2228 2.57637 12.1352L8.00636 2.62164C8.0564 2.53399 8.12835 2.46121 8.215 2.41061C8.30165 2.36001 8.39995 2.33337 8.5 2.33337C8.60005 2.33337 8.69835 2.36001 8.785 2.41061C8.87165 2.46121 8.9436 2.53399 8.99364 2.62164ZM7.92998 10.1172V11.2703H9.07002V10.1172H7.92998ZM7.92998 6.08111V8.964H9.07002V6.08111H7.92998Z" fill="#FA7319"/>
</svg>
