<svg width="20" height="20" viewBox="0 0 20 20" fill="none" xmlns="http://www.w3.org/2000/svg">
<path d="M10.617 3.27696L17.4045 15.1689C17.4671 15.2784 17.5 15.4027 17.5 15.5292C17.5 15.6557 17.4671 15.78 17.4045 15.8896C17.342 15.9992 17.2521 16.0901 17.1438 16.1534C17.0354 16.2167 16.9126 16.25 16.7875 16.25H3.2125C3.08743 16.25 2.96456 16.2167 2.85625 16.1534C2.74794 16.0901 2.65799 15.9992 2.59546 15.8896C2.53292 15.78 2.5 15.6557 2.5 15.5292C2.5 15.4027 2.53292 15.2784 2.59546 15.1689L9.38295 3.27696C9.44549 3.1674 9.53544 3.07643 9.64375 3.01318C9.75207 2.94992 9.87493 2.91663 10 2.91663C10.1251 2.91663 10.2479 2.94992 10.3562 3.01318C10.4646 3.07643 10.5545 3.1674 10.617 3.27696ZM9.28748 12.6463V14.0878H10.7125V12.6463H9.28748ZM9.28748 7.60129V11.2049H10.7125V7.60129H9.28748Z" fill="white"/>
</svg>
