<svg width="20" height="20" viewBox="0 0 20 20" fill="none" xmlns="http://www.w3.org/2000/svg">
<path d="M8.125 5L6.25 3.75L4.375 5V14.375C4.375 15.4106 5.21447 16.25 6.25 16.25H15C16.0356 16.25 16.875 15.4106 16.875 14.375V12.5H15.625V5L13.75 3.75L11.875 5L10 3.75L8.125 5ZM14.375 12.5H6.875V14.375C6.875 14.7202 6.59518 15 6.25 15C5.90482 15 5.625 14.7202 5.625 14.375V5.66898L6.25 5.25231L8.125 6.50231L10 5.25231L11.875 6.50231L13.75 5.25231L14.375 5.66898V12.5ZM15 15H8.01831C8.08741 14.8045 8.125 14.5941 8.125 14.375V13.75H15.625V14.375C15.625 14.7202 15.3452 15 15 15Z" fill="#5C5C5C"/>
</svg>
