<svg width="21" height="20" viewBox="0 0 21 20" fill="none" xmlns="http://www.w3.org/2000/svg">
<path d="M8.625 5L6.75 3.75L4.875 5V14.375C4.875 15.4106 5.71447 16.25 6.75 16.25H15.5C16.5356 16.25 17.375 15.4106 17.375 14.375V12.5H16.125V5L14.25 3.75L12.375 5L10.5 3.75L8.625 5ZM14.875 12.5H7.375V14.375C7.375 14.7202 7.09518 15 6.75 15C6.40482 15 6.125 14.7202 6.125 14.375V5.66898L6.75 5.25231L8.625 6.50231L10.5 5.25231L12.375 6.50231L14.25 5.25231L14.875 5.66898V12.5ZM15.5 15H8.51831C8.58741 14.8045 8.625 14.5941 8.625 14.375V13.75H16.125V14.375C16.125 14.7202 15.8452 15 15.5 15Z" fill="#5C5C5C"/>
</svg>
