<svg width="24" height="24" viewBox="0 0 24 24" fill="none" xmlns="http://www.w3.org/2000/svg">
<path d="M11.1 3L17.6682 5.052C17.8514 5.10919 18.0115 5.22343 18.1252 5.37806C18.2388 5.53268 18.3001 5.71959 18.3 5.9115V7.5H20.1C20.3387 7.5 20.5676 7.59482 20.7364 7.7636C20.9052 7.93239 21 8.1613 21 8.4V15.6C21 15.8387 20.9052 16.0676 20.7364 16.2364C20.5676 16.4052 20.3387 16.5 20.1 16.5L17.202 16.5009C16.8537 16.9599 16.4307 17.3649 15.942 17.6979L11.1 21L6.25799 17.6988C5.53126 17.2033 4.93657 16.5378 4.52562 15.7601C4.11467 14.9825 3.8999 14.1162 3.89999 13.2366V5.9115C3.9001 5.71975 3.96145 5.53304 4.0751 5.3786C4.18875 5.22415 4.34875 5.11004 4.53179 5.0529L11.1 3ZM11.1 4.8846L5.69999 6.573V13.2366C5.69987 13.7876 5.82622 14.3313 6.06932 14.8258C6.31243 15.3202 6.66579 15.7523 7.10219 16.0887L7.27229 16.2111L11.1 18.822L14.5038 16.5H10.2C9.9613 16.5 9.73238 16.4052 9.5636 16.2364C9.39482 16.0676 9.29999 15.8387 9.29999 15.6V8.4C9.29999 8.1613 9.39482 7.93239 9.5636 7.7636C9.73238 7.59482 9.9613 7.5 10.2 7.5H16.5V6.573L11.1 4.8846ZM11.1 12V14.7H19.2V12H11.1ZM11.1 10.2H19.2V9.3H11.1V10.2Z" fill="#5C5C5C"/>
</svg>
