<svg width="20" height="20" viewBox="0 0 20 20" fill="none" xmlns="http://www.w3.org/2000/svg">
<g id="copyright-line">
<path id="Vector" d="M10 2.5C14.14 2.5 17.5 5.86 17.5 10C17.5 14.14 14.14 17.5 10 17.5C5.86 17.5 2.5 14.14 2.5 10C2.5 5.86 5.86 2.5 10 2.5ZM10 4C6.685 4 4 6.685 4 10C4 13.315 6.685 16 10 16C13.315 16 16 13.315 16 10C16 6.685 13.315 4 10 4ZM10 6.25C11.365 6.25 12.5597 6.97975 13.216 8.071L11.9305 8.84275C11.7282 8.50543 11.441 8.22704 11.0975 8.03533C10.7541 7.84363 10.3664 7.74531 9.97309 7.75017C9.57979 7.75504 9.19463 7.86292 8.85603 8.06307C8.51742 8.26321 8.2372 8.54862 8.0433 8.89084C7.84941 9.23306 7.74861 9.62013 7.75096 10.0135C7.75331 10.4068 7.85873 10.7926 8.05671 11.1325C8.25469 11.4724 8.5383 11.7544 8.87928 11.9505C9.22025 12.1466 9.60667 12.2498 10 12.25C10.3886 12.2503 10.7706 12.1498 11.1088 11.9584C11.447 11.767 11.7299 11.4913 11.9298 11.158L13.216 11.929C12.7945 12.633 12.1537 13.1792 11.3919 13.484C10.6302 13.7888 9.78941 13.8353 8.99867 13.6163C8.20793 13.3973 7.51086 12.925 7.01435 12.2718C6.51785 11.6186 6.24934 10.8205 6.25 10C6.25 7.93 7.93 6.25 10 6.25Z" fill="#A4A4A4"/>
</g>
</svg>
