<svg width="16" height="16" viewBox="0 0 16 16" fill="none" xmlns="http://www.w3.org/2000/svg">
<g id="eye-close-line">
<path id="Vector" d="M6.40497 12.0692L5.24637 11.7584L5.71857 9.99499C5.01175 9.73431 4.35484 9.35441 3.77637 8.87179L2.48457 10.1642L1.63557 9.31519L2.92797 8.02339C2.19842 7.14965 1.70822 6.10145 1.50537 4.98139L2.68617 4.76599C3.14157 7.28719 5.34717 9.19999 7.99977 9.19999C10.6518 9.19999 12.858 7.28719 13.3134 4.76599L14.4942 4.98079C14.2916 6.101 13.8016 7.14941 13.0722 8.02339L14.364 9.31519L13.515 10.1642L12.2232 8.87179C11.6447 9.35441 10.9878 9.73431 10.281 9.99499L10.7532 11.759L9.59457 12.0692L9.12177 10.3052C8.37918 10.4324 7.62036 10.4324 6.87777 10.3052L6.40497 12.0692Z" fill="#5C5C5C"/>
</g>
</svg>
