<svg width="16" height="16" viewBox="0 0 16 16" fill="none" xmlns="http://www.w3.org/2000/svg">
<g id="hand-heart-line">
<path id="Vector" d="M3.7999 6.2C3.95903 6.2 4.11164 6.26321 4.22417 6.37573C4.33669 6.48826 4.3999 6.64087 4.3999 6.8C5.34259 6.79861 6.25809 7.11576 6.9979 7.7H8.2999C9.0991 7.7 9.8179 8.0474 10.3117 8.5994L12.1999 8.6C12.7671 8.59984 13.3226 8.76046 13.8022 9.06322C14.2818 9.36599 14.6657 9.7985 14.9095 10.3106C13.4905 12.1832 11.1931 13.4 8.5999 13.4C6.9259 13.4 5.5099 13.0382 4.3639 12.4052C4.32193 12.521 4.24525 12.6211 4.14431 12.6918C4.04338 12.7624 3.92311 12.8002 3.7999 12.8H1.9999C1.84077 12.8 1.68816 12.7368 1.57564 12.6243C1.46312 12.5117 1.3999 12.3591 1.3999 12.2V6.8C1.3999 6.64087 1.46312 6.48826 1.57564 6.37573C1.68816 6.26321 1.84077 6.2 1.9999 6.2H3.7999ZM4.4005 8L4.3999 11.0126L4.4269 11.0324C5.5039 11.7884 6.9067 12.2 8.5999 12.2C10.4023 12.2 12.0793 11.5064 13.3009 10.322L13.3807 10.2422L13.3087 10.1822C13.0254 9.9603 12.6819 9.82861 12.3229 9.8042L12.1999 9.8L10.9327 9.7994C10.9765 9.9926 10.9999 10.1936 10.9999 10.4V11H5.5999V9.8L9.6739 9.7994L9.6535 9.7526C9.53852 9.51232 9.36164 9.30699 9.14105 9.15768C8.92046 9.00836 8.6641 8.92046 8.3983 8.903L8.2999 8.9H6.5419C6.26309 8.61483 5.93006 8.38831 5.56242 8.23375C5.19477 8.07919 4.79992 7.99971 4.4011 8H4.4005ZM3.1999 7.4H2.5999V11.6H3.1999V7.4ZM8.9875 2.945L9.1999 3.158L9.4123 2.9456C9.55139 2.80533 9.71681 2.69391 9.89907 2.61775C10.0813 2.54158 10.2768 2.50216 10.4744 2.50176C10.6719 2.50135 10.8676 2.53997 11.0501 2.61539C11.2327 2.69081 11.3986 2.80155 11.5383 2.94125C11.6779 3.08094 11.7886 3.24685 11.864 3.42944C11.9393 3.61204 11.9779 3.80772 11.9774 4.00525C11.977 4.20279 11.9375 4.39828 11.8613 4.58052C11.7851 4.76276 11.6736 4.92815 11.5333 5.0672L9.1999 7.4L6.8659 5.066C6.72563 4.92691 6.61422 4.76149 6.53805 4.57923C6.46188 4.39697 6.42247 4.20146 6.42206 4.00393C6.42166 3.80639 6.46028 3.61072 6.5357 3.42815C6.61111 3.24558 6.72185 3.0797 6.86155 2.94004C7.00125 2.80039 7.16716 2.68969 7.34975 2.61433C7.53234 2.53896 7.72802 2.5004 7.92556 2.50086C8.12309 2.50132 8.31859 2.54079 8.50083 2.61701C8.68307 2.69323 8.84846 2.80469 8.9875 2.945ZM7.7155 3.794C7.66577 3.84345 7.63494 3.90876 7.62837 3.97859C7.62179 4.04841 7.63988 4.11833 7.6795 4.1762L7.7143 4.2176L9.1999 5.702L10.6855 4.2176C10.7352 4.16796 10.7659 4.10246 10.7723 4.0325C10.7786 3.96255 10.7602 3.89258 10.7203 3.8348L10.6855 3.7928C10.6358 3.74319 10.5702 3.7126 10.5003 3.70635C10.4303 3.7001 10.3604 3.71859 10.3027 3.7586L10.2607 3.7934L9.1993 4.8542L8.1391 3.7922L8.0983 3.7586C8.04052 3.71867 7.97055 3.70028 7.9006 3.70664C7.83064 3.713 7.76514 3.7437 7.7155 3.7934V3.794Z" fill="#5C5C5C"/>
</g>
</svg>
