<svg width="24" height="24" viewBox="0 0 24 24" fill="none" xmlns="http://www.w3.org/2000/svg">
<g id="shopping-bag-2-line">
<path id="Vector" d="M19.1999 21H4.7999C4.56121 21 4.33229 20.9052 4.16351 20.7364C3.99472 20.5676 3.8999 20.3387 3.8999 20.1V3.9C3.8999 3.66131 3.99472 3.43239 4.16351 3.2636C4.33229 3.09482 4.56121 3 4.7999 3H19.1999C19.4386 3 19.6675 3.09482 19.8363 3.2636C20.0051 3.43239 20.0999 3.66131 20.0999 3.9V20.1C20.0999 20.3387 20.0051 20.5676 19.8363 20.7364C19.6675 20.9052 19.4386 21 19.1999 21ZM18.2999 19.2V4.8H5.6999V19.2H18.2999ZM9.2999 6.6V8.4C9.2999 9.11608 9.58437 9.80284 10.0907 10.3092C10.5971 10.8155 11.2838 11.1 11.9999 11.1C12.716 11.1 13.4027 10.8155 13.9091 10.3092C14.4154 9.80284 14.6999 9.11608 14.6999 8.4V6.6H16.4999V8.4C16.4999 9.59347 16.0258 10.7381 15.1819 11.582C14.338 12.4259 13.1934 12.9 11.9999 12.9C10.8064 12.9 9.66184 12.4259 8.81792 11.582C7.97401 10.7381 7.4999 9.59347 7.4999 8.4V6.6H9.2999Z" fill="#5C5C5C"/>
</g>
</svg>
