<svg width="16" height="16" viewBox="0 0 16 16" fill="none" xmlns="http://www.w3.org/2000/svg">
<path d="M8.49364 2.62158L13.9236 12.1351C13.9737 12.2228 14 12.3222 14 12.4234C14 12.5246 13.9737 12.624 13.9236 12.7117C13.8736 12.7993 13.8017 12.8721 13.715 12.9227C13.6283 12.9733 13.5301 13 13.43 13H2.57C2.46995 13 2.37165 12.9733 2.285 12.9227C2.19835 12.8721 2.12639 12.7993 2.07636 12.7117C2.02634 12.624 2 12.5246 2 12.4234C2 12.3222 2.02634 12.2228 2.07637 12.1351L7.50636 2.62158C7.5564 2.53393 7.62835 2.46115 7.715 2.41055C7.80165 2.35995 7.89995 2.33331 8 2.33331C8.10005 2.33331 8.19835 2.35995 8.285 2.41055C8.37165 2.46115 8.4436 2.53393 8.49364 2.62158ZM7.42998 10.1171V11.2702H8.57002V10.1171H7.42998ZM7.42998 6.08104V8.96393H8.57002V6.08104H7.42998Z" fill="#FA7319"/>
</svg>
