<svg width="18" height="14" viewBox="0 0 18 14" fill="none" xmlns="http://www.w3.org/2000/svg">
<path d="M7.5 9.00699V8.96049C7.5 7.07949 9.012 5.49699 11.0647 5.03574C10.7917 3.30924 8.96925 1.89999 6.675 1.89999C4.185 1.89999 2.25 3.55974 2.25 5.48499C2.25 6.21174 2.52 6.90999 3.03 7.50849C3.054 7.53699 3.09225 7.57899 3.144 7.63224C3.58493 8.0854 3.85116 8.68003 3.8955 9.31074C4.43107 9.00113 5.05648 8.88415 5.66775 8.97924C5.79225 8.99874 5.89425 9.01374 5.9715 9.02424C6.47931 9.09021 6.99389 9.08415 7.5 9.00624V9.00699ZM7.84275 10.4702C7.16046 10.5874 6.46443 10.6013 5.778 10.5115C5.6643 10.4961 5.55079 10.4794 5.4375 10.4612C5.15721 10.4176 4.87048 10.4739 4.6275 10.6202L3.1995 11.4812C3.08952 11.549 2.96073 11.5798 2.832 11.569C2.75414 11.5631 2.67821 11.5419 2.60856 11.5066C2.53891 11.4714 2.47691 11.4227 2.42612 11.3634C2.37532 11.3041 2.33673 11.2353 2.31256 11.1611C2.28839 11.0869 2.27911 11.0086 2.28525 10.9307L2.39775 9.59499C2.41177 9.42744 2.38963 9.25883 2.33282 9.10058C2.27602 8.94233 2.18588 8.79813 2.0685 8.67774C2.00616 8.6142 1.94588 8.54867 1.88775 8.48124C1.17225 7.64124 0.75 6.60474 0.75 5.48424C0.75 2.67624 3.40275 0.399994 6.675 0.399994C9.72 0.399994 12.2272 2.37024 12.5625 4.90599C15.0915 5.02074 17.1 6.79224 17.1 8.96049C17.1 9.85524 16.758 10.6825 16.1782 11.353C16.14 11.398 16.0912 11.4505 16.032 11.5105C15.9372 11.6059 15.8642 11.7208 15.8181 11.8472C15.772 11.9736 15.7539 12.1084 15.765 12.2425L15.8557 13.3097C15.8603 13.3723 15.8525 13.4352 15.8327 13.4947C15.813 13.5543 15.7816 13.6093 15.7405 13.6567C15.6994 13.7041 15.6493 13.7429 15.5931 13.7709C15.537 13.7989 15.4758 13.8155 15.4132 13.8197C15.309 13.8283 15.2048 13.8036 15.1155 13.7492L13.9582 13.0615C13.761 12.9447 13.5293 12.8999 13.3027 12.9347C13.1925 12.952 13.1002 12.9647 13.0267 12.9745C12.7897 13.0045 12.5467 13.021 12.3 13.021C10.2795 13.021 8.5515 11.965 7.84275 10.4702ZM13.0755 11.4527C13.4988 11.3876 13.9317 11.4325 14.3325 11.5832C14.4377 11.1579 14.6556 10.7687 14.9632 10.4567C15.0007 10.4192 15.0285 10.3892 15.0427 10.3727C15.4095 9.94899 15.6 9.46299 15.6 8.96049C15.6 7.60749 14.1727 6.39999 12.3 6.39999C10.4272 6.39999 9 7.60749 9 8.96049C9 10.3135 10.4272 11.521 12.3 11.521C12.4807 11.521 12.66 11.509 12.8355 11.4865C12.8955 11.479 12.9765 11.4677 13.0755 11.452V11.4527Z" fill="white"/>
</svg>
