<svg width="122" height="125" viewBox="0 0 122 125" fill="none" xmlns="http://www.w3.org/2000/svg">
<g id="Empty States [Finance &#38; Banking] [1.1]">
<rect y="1" width="122" height="122" rx="61" fill="#F5F5F5"/>
<g id="vector">
<path d="M87.0861 88.5836V35.0209C87.0861 31.9335 84.5832 29.4306 81.4958 29.4306H41.1136C35.75 29.4306 31.4019 33.7788 31.4019 39.1424V88.5836" fill="white"/>
<path d="M87.0861 88.5836V35.0209C87.0861 31.9335 84.5832 29.4306 81.4958 29.4306H41.1136C35.75 29.4306 31.4019 33.7788 31.4019 39.1424V88.5836" stroke="#A4A4A4" stroke-width="0.824324" stroke-linecap="round" stroke-linejoin="round"/>
</g>
<g id="vector_2">
<path d="M31.4019 88.5836L35.6823 92.4506C38.2588 94.7781 42.109 94.9956 44.9312 92.9731L45.2504 92.7443C47.9493 90.8101 51.6074 90.9159 54.1901 93.0027L54.4928 93.2472C57.2496 95.4747 61.2003 95.4287 63.9044 93.1376L63.9683 93.0835C66.6663 90.7975 70.6064 90.746 73.3634 92.9605C76.2895 95.3111 80.5136 95.0918 83.1806 92.4508L87.0861 88.5835" fill="white"/>
<path d="M31.4019 88.5836L35.6823 92.4506C38.2588 94.7781 42.109 94.9956 44.9312 92.9731L45.2504 92.7443C47.9493 90.8101 51.6074 90.9159 54.1901 93.0027L54.4928 93.2472C57.2496 95.4747 61.2003 95.4287 63.9044 93.1376L63.9683 93.0835C66.6663 90.7975 70.6064 90.746 73.3634 92.9605C76.2895 95.3111 80.5136 95.0918 83.1806 92.4508L87.0861 88.5835" stroke="#A4A4A4" stroke-width="0.824324" stroke-linecap="round" stroke-linejoin="round"/>
</g>
<path id="vector_3" d="M41.8376 29.4306H85.0363C88.34 29.4306 91.0165 32.107 91.0165 35.4107C91.0165 38.2843 88.9913 40.6859 86.291 41.2594L85.9504 41.3193L85.9146 41.3252L44.4365 49.8742C48.9171 48.7213 52.2268 44.6529 52.2268 39.8138C52.2268 34.0784 47.5729 29.4306 41.8376 29.4306Z" fill="#EBEBEB" stroke="#A4A4A4" stroke-width="0.824324" stroke-linecap="round" stroke-linejoin="round"/>
<path id="vector_4" d="M50.5861 65.3892H44.5771V77.121H50.5861V65.3892Z" fill="#EBEBEB" stroke="#A4A4A4" stroke-width="0.824324" stroke-linecap="round" stroke-linejoin="round"/>
<path id="vector_5" d="M73.9098 62.8091H67.9009V77.1211H73.9098V62.8091Z" fill="#EBEBEB" stroke="#A4A4A4" stroke-width="0.824324" stroke-linecap="round" stroke-linejoin="round"/>
<path id="vector_6" d="M62.248 69.824H56.2391V77.121H62.248V69.824Z" fill="#D1D1D1" stroke="#A4A4A4" stroke-width="0.824324" stroke-linecap="round" stroke-linejoin="round"/>
<g id="vector_7">
<path d="M49.1639 57.8739L59.2437 65.3895L70.6827 55.3465" fill="white"/>
<path d="M49.1639 57.8739L59.2437 65.3895L70.6827 55.3465" stroke="#A4A4A4" stroke-width="0.824324" stroke-linecap="round" stroke-linejoin="round"/>
</g>
<path id="vector_8" d="M73.818 52.3586L67.3709 54.0861L72.0905 58.8057L73.818 52.3586Z" fill="#A4A4A4" stroke="#A4A4A4" stroke-width="0.824324" stroke-linecap="round" stroke-linejoin="round"/>
<rect id="vector_9" x="83.9757" y="44.0384" width="27.7345" height="16.6406" rx="8.32031" fill="#EBEBEB" stroke="#A4A4A4" stroke-width="0.824324" stroke-linecap="round" stroke-linejoin="round"/>
<path id="vector_10" fill-rule="evenodd" clip-rule="evenodd" d="M88.1716 52.3588C88.1716 52.0504 88.4217 51.8004 88.7301 51.8004H95.8206C96.129 51.8004 96.379 52.0504 96.379 52.3588C96.379 52.6673 96.129 52.9173 95.8206 52.9173H88.7301C88.4217 52.9173 88.1716 52.6673 88.1716 52.3588Z" fill="#A4A4A4"/>
<ellipse id="vector_11" cx="103.428" cy="52.3588" rx="4.08602" ry="4.08602" fill="white"/>
<rect id="vector_12" x="17.5338" y="83.4154" width="27.7345" height="16.6406" rx="8.32031" fill="#D1D1D1" stroke="#A4A4A4" stroke-width="0.824324" stroke-linecap="round" stroke-linejoin="round"/>
<path id="vector_13" fill-rule="evenodd" clip-rule="evenodd" d="M21.7296 91.7356C21.7296 91.4271 21.9796 91.1771 22.288 91.1771H29.3785C29.6869 91.1771 29.937 91.4271 29.937 91.7356C29.937 92.044 29.6869 92.294 29.3785 92.294H22.288C21.9796 92.294 21.7296 92.044 21.7296 91.7356Z" fill="#A4A4A4"/>
<path id="vector_14" fill-rule="evenodd" clip-rule="evenodd" d="M25.833 87.6318C26.1414 87.6318 26.3915 87.8818 26.3915 88.1902L26.3915 95.2807C26.3915 95.5892 26.1414 95.8392 25.833 95.8392C25.5246 95.8392 25.2745 95.5892 25.2745 95.2807L25.2745 88.1902C25.2745 87.8818 25.5246 87.6318 25.833 87.6318Z" fill="#A4A4A4"/>
<ellipse id="vector_15" cx="36.986" cy="91.7356" rx="4.08602" ry="4.08602" fill="white"/>
<path id="vector_16" d="M55.0756 7.25146C55.0756 7.25146 50.1236 5.77621 48.6366 10.7064C50.1235 5.77628 45.1816 4.26741 45.1816 4.26741C45.1816 4.26741 50.1337 5.74254 51.6206 0.812439C50.1337 5.74254 55.0756 7.25146 55.0756 7.25146Z" fill="white" stroke="#A4A4A4" stroke-width="0.824324" stroke-linecap="round" stroke-linejoin="round"/>
<path id="vector_17" d="M71.6855 113.745C71.6855 113.745 67.4564 118.706 72.3864 122.938C67.4563 118.706 63.1935 123.639 63.1935 123.639C63.1935 123.639 67.4227 118.677 62.4925 114.446C67.4227 118.677 71.6855 113.745 71.6855 113.745Z" fill="white" stroke="#A4A4A4" stroke-width="0.824324" stroke-linecap="round" stroke-linejoin="round"/>
</g>
</svg>
