<svg width="121" height="44" viewBox="0 0 121 44" fill="none" xmlns="http://www.w3.org/2000/svg">
<g filter="url(#filter0_d_315_100068)">
<path d="M2 11C2 5.47715 6.47715 1 12 1H109C114.523 1 119 5.47715 119 11V31C119 36.5228 114.523 41 109 41H12C6.47715 41 2 36.5228 2 31V11Z" fill="white"/>
<path d="M12 1.5H109C114.247 1.5 118.5 5.7533 118.5 11V31C118.5 36.2467 114.247 40.5 109 40.5H12C6.7533 40.5 2.5 36.2467 2.5 31V11C2.5 5.7533 6.7533 1.5 12 1.5Z" stroke="#EBEBEB"/>
<path d="M22.75 19.5H26.5L22 24L17.5 19.5H21.25V14.25H22.75V19.5ZM16 26.25H28V21H29.5V27C29.5 27.1989 29.421 27.3897 29.2803 27.5303C29.1397 27.671 28.9489 27.75 28.75 27.75H15.25C15.0511 27.75 14.8603 27.671 14.7197 27.5303C14.579 27.3897 14.5 27.1989 14.5 27V21H16V26.25Z" fill="#5C5C5C"/>
<path d="M41.1186 26V15.8182H47.5021V17.1406H42.6548V20.2429H47.169V21.5604H42.6548V24.6776H47.5618V26H41.1186ZM50.5241 18.3636L52.2095 21.3366L53.9098 18.3636H55.5355L53.1541 22.1818L55.5554 26H53.9297L52.2095 23.1463L50.4943 26H48.8636L51.24 22.1818L48.8935 18.3636H50.5241ZM56.9778 28.8636V18.3636H58.4295V19.6016H58.5538C58.6399 19.4425 58.7642 19.2585 58.9266 19.0497C59.089 18.8409 59.3144 18.6586 59.6028 18.5028C59.8911 18.3438 60.2723 18.2642 60.7462 18.2642C61.3627 18.2642 61.9129 18.42 62.3968 18.7315C62.8807 19.0431 63.2602 19.4922 63.5353 20.0788C63.8137 20.6655 63.9529 21.3714 63.9529 22.1967C63.9529 23.022 63.8154 23.7296 63.5403 24.3196C63.2652 24.9062 62.8873 25.3587 62.4068 25.6768C61.9262 25.9917 61.3776 26.1491 60.7612 26.1491C60.2971 26.1491 59.9176 26.0713 59.6227 25.9155C59.331 25.7597 59.1023 25.5774 58.9366 25.3686C58.7709 25.1598 58.6433 24.9742 58.5538 24.8118H58.4643V28.8636H56.9778ZM58.4345 22.1818C58.4345 22.7187 58.5123 23.1894 58.6681 23.5938C58.8239 23.9981 59.0493 24.3146 59.3443 24.5433C59.6392 24.7687 60.0005 24.8814 60.4281 24.8814C60.8722 24.8814 61.2434 24.7637 61.5417 24.5284C61.84 24.2898 62.0654 23.9666 62.2178 23.5589C62.3736 23.1513 62.4515 22.6922 62.4515 22.1818C62.4515 21.678 62.3753 21.2256 62.2228 20.8246C62.0737 20.4235 61.8483 20.107 61.5467 19.875C61.2484 19.643 60.8755 19.527 60.4281 19.527C59.9972 19.527 59.6326 19.638 59.3343 19.8601C59.0393 20.0821 58.8156 20.392 58.6631 20.7898C58.5107 21.1875 58.4345 21.6515 58.4345 22.1818ZM68.751 26.1541C68.0351 26.1541 67.4103 25.9901 66.8767 25.6619C66.3431 25.3338 65.9288 24.8748 65.6338 24.2848C65.3388 23.6948 65.1914 23.0054 65.1914 22.2166C65.1914 21.4245 65.3388 20.7318 65.6338 20.1385C65.9288 19.5452 66.3431 19.0845 66.8767 18.7564C67.4103 18.4283 68.0351 18.2642 68.751 18.2642C69.4669 18.2642 70.0917 18.4283 70.6253 18.7564C71.1589 19.0845 71.5732 19.5452 71.8682 20.1385C72.1632 20.7318 72.3107 21.4245 72.3107 22.2166C72.3107 23.0054 72.1632 23.6948 71.8682 24.2848C71.5732 24.8748 71.1589 25.3338 70.6253 25.6619C70.0917 25.9901 69.4669 26.1541 68.751 26.1541ZM68.756 24.9062C69.22 24.9062 69.6045 24.7836 69.9094 24.5384C70.2143 24.2931 70.4397 23.9666 70.5855 23.5589C70.7347 23.1513 70.8093 22.7022 70.8093 22.2116C70.8093 21.7244 70.7347 21.277 70.5855 20.8693C70.4397 20.4583 70.2143 20.1286 69.9094 19.88C69.6045 19.6314 69.22 19.5071 68.756 19.5071C68.2887 19.5071 67.9009 19.6314 67.5926 19.88C67.2877 20.1286 67.0607 20.4583 66.9115 20.8693C66.7657 21.277 66.6928 21.7244 66.6928 22.2116C66.6928 22.7022 66.7657 23.1513 66.9115 23.5589C67.0607 23.9666 67.2877 24.2931 67.5926 24.5384C67.9009 24.7836 68.2887 24.9062 68.756 24.9062ZM73.8859 26V18.3636H75.3227V19.5767H75.4023C75.5415 19.1657 75.7868 18.8426 76.1381 18.6072C76.4927 18.3686 76.8938 18.2493 77.3412 18.2493C77.434 18.2493 77.5434 18.2526 77.6693 18.2592C77.7986 18.2659 77.8997 18.2741 77.9726 18.2841V19.706C77.9129 19.6894 77.8069 19.6712 77.6544 19.6513C77.502 19.6281 77.3495 19.6165 77.197 19.6165C76.8457 19.6165 76.5325 19.6911 76.2574 19.8402C75.9856 19.986 75.7702 20.1899 75.6111 20.4517C75.452 20.7102 75.3725 21.0052 75.3725 21.3366V26H73.8859ZM83.1908 18.3636V19.5568H79.0196V18.3636H83.1908ZM80.1382 16.5341H81.6247V23.7578C81.6247 24.0462 81.6678 24.2633 81.754 24.4091C81.8402 24.5516 81.9512 24.6494 82.0871 24.7024C82.2263 24.7521 82.3771 24.777 82.5395 24.777C82.6588 24.777 82.7632 24.7687 82.8527 24.7521C82.9422 24.7356 83.0118 24.7223 83.0615 24.7124L83.33 25.9403C83.2438 25.9735 83.1212 26.0066 82.9621 26.0398C82.803 26.0762 82.6041 26.0961 82.3655 26.0994C81.9744 26.1061 81.6098 26.0365 81.2718 25.8906C80.9337 25.7448 80.6603 25.5194 80.4515 25.2145C80.2426 24.9096 80.1382 24.5268 80.1382 24.0661V16.5341ZM89.3516 26H87.7209L91.385 15.8182H93.1599L96.8239 26H95.1932L92.3147 17.6676H92.2352L89.3516 26ZM89.6251 22.0128H94.9148V23.3054H89.6251V22.0128ZM103.759 20.228L102.411 20.4666C102.355 20.2943 102.265 20.1302 102.143 19.9744C102.023 19.8187 101.861 19.6911 101.656 19.5916C101.45 19.4922 101.193 19.4425 100.885 19.4425C100.464 19.4425 100.113 19.5369 99.831 19.7259C99.5493 19.9115 99.4084 20.1518 99.4084 20.4467C99.4084 20.7019 99.5029 20.9074 99.6918 21.0632C99.8807 21.219 100.186 21.3466 100.607 21.446L101.82 21.7244C102.522 21.8868 103.046 22.1371 103.391 22.4751C103.735 22.8132 103.908 23.2524 103.908 23.7926C103.908 24.25 103.775 24.6577 103.51 25.0156C103.248 25.3703 102.882 25.6487 102.411 25.8509C101.944 26.053 101.402 26.1541 100.786 26.1541C99.9304 26.1541 99.2328 25.9718 98.6925 25.6072C98.1523 25.2393 97.8208 24.7173 97.6982 24.0412L99.135 23.8224C99.2245 24.197 99.4084 24.4804 99.6868 24.6726C99.9653 24.8615 100.328 24.956 100.776 24.956C101.263 24.956 101.652 24.8549 101.944 24.6527C102.236 24.4472 102.381 24.197 102.381 23.902C102.381 23.6634 102.292 23.4628 102.113 23.3004C101.937 23.138 101.667 23.0154 101.303 22.9325L100.01 22.6491C99.2974 22.4867 98.7704 22.2282 98.429 21.8736C98.091 21.5189 97.9219 21.0698 97.9219 20.5263C97.9219 20.0755 98.0479 19.6811 98.2998 19.343C98.5517 19.005 98.8997 18.7415 99.3438 18.5526C99.7879 18.3603 100.297 18.2642 100.87 18.2642C101.695 18.2642 102.345 18.4432 102.819 18.8011C103.293 19.1558 103.606 19.6314 103.759 20.228Z" fill="#5C5C5C"/>
</g>
<defs>
<filter id="filter0_d_315_100068" x="0" y="0" width="121" height="44" filterUnits="userSpaceOnUse" color-interpolation-filters="sRGB">
<feFlood flood-opacity="0" result="BackgroundImageFix"/>
<feColorMatrix in="SourceAlpha" type="matrix" values="0 0 0 0 0 0 0 0 0 0 0 0 0 0 0 0 0 0 127 0" result="hardAlpha"/>
<feOffset dy="1"/>
<feGaussianBlur stdDeviation="1"/>
<feComposite in2="hardAlpha" operator="out"/>
<feColorMatrix type="matrix" values="0 0 0 0 0.0392157 0 0 0 0 0.0509804 0 0 0 0 0.0784314 0 0 0 0.03 0"/>
<feBlend mode="normal" in2="BackgroundImageFix" result="effect1_dropShadow_315_100068"/>
<feBlend mode="normal" in="SourceGraphic" in2="effect1_dropShadow_315_100068" result="shape"/>
</filter>
</defs>
</svg>
