<svg width="21" height="20" viewBox="0 0 21 20" fill="none" xmlns="http://www.w3.org/2000/svg">
<path d="M3.75 11.5L6.75 13.375L9 10.75L11.25 13.75L12.75 11.875L15 12.25L12.75 10L11.25 11.875L9 8.125L6.375 10.9375L3.75 8.5V3.244C3.75 2.84125 4.08525 2.5 4.4985 2.5H12V7C12 7.19891 12.079 7.38968 12.2197 7.53033C12.3603 7.67098 12.5511 7.75 12.75 7.75H17.25V16.7448C17.2507 16.8432 17.232 16.9409 17.1949 17.0322C17.1579 17.1234 17.1032 17.2065 17.034 17.2766C16.9649 17.3468 16.8826 17.4026 16.7919 17.4409C16.7011 17.4792 16.6037 17.4993 16.5052 17.5H4.49475C4.29736 17.5 4.10804 17.4216 3.9684 17.2821C3.82875 17.1426 3.7502 16.9534 3.75 16.756V11.5ZM17.25 6.25H13.5V2.50225L17.25 6.25Z" fill="#A4A4A4"/>
</svg>
