<svg width="20" height="20" viewBox="0 0 20 20" fill="none" xmlns="http://www.w3.org/2000/svg">
<path d="M4.38446 9.36725C4.40256 8.40837 4.45349 7.79192 4.59675 7.07574C4.80402 6.03949 5.19295 5.41394 5.97133 4.89507L5.27801 3.85498C4.18121 4.58611 3.63255 5.52307 3.37103 6.83057C3.04608 8.45514 3.12243 11.7901 3.12439 11.8734C3.12439 11.8739 3.12439 11.8745 3.12439 11.875C3.12439 13.6009 4.5235 15 6.24939 15C7.97528 15 9.37437 13.6009 9.37437 11.875C9.37437 11.7038 9.36056 11.5356 9.33394 11.3713C9.54044 11.2929 9.76456 11.25 9.99937 11.25C10.2342 11.25 10.4584 11.2929 10.6649 11.3713C10.6382 11.5356 10.6244 11.7038 10.6244 11.875C10.6244 13.6009 12.0235 15 13.7494 15C15.4752 15 16.8744 13.6009 16.8744 11.875C16.8744 11.875 16.957 8.47579 16.628 6.83059C16.3666 5.52312 15.818 4.58616 14.7214 3.85501L14.0279 4.89504C14.8062 5.4139 15.1951 6.03943 15.4022 7.07571C15.5455 7.79195 15.5964 8.40843 15.6145 9.36737C15.0939 8.97956 14.4485 8.75 13.7494 8.75C12.6379 8.75 11.6629 9.33006 11.1091 10.2029C10.7639 10.0718 10.3897 10 9.99937 10C9.60906 10 9.23487 10.0718 8.88975 10.2029C8.33585 9.33006 7.36089 8.75 6.24939 8.75C5.5504 8.75 4.90501 8.9795 4.38446 9.36725ZM4.37439 11.875C4.37439 10.8394 5.21386 10 6.24939 10C7.06629 10 7.76271 10.5227 8.01926 11.2539C8.08718 11.4475 8.12439 11.6562 8.12439 11.875C8.12439 12.9106 7.28492 13.75 6.24939 13.75C5.21386 13.75 4.37439 12.9106 4.37439 11.875ZM11.9795 11.2539C12.2361 10.5227 12.9325 10 13.7494 10C14.7849 10 15.6244 10.8394 15.6244 11.875C15.6244 12.9106 14.7849 13.75 13.7494 13.75C12.7139 13.75 11.8744 12.9106 11.8744 11.875C11.8744 11.6562 11.9116 11.4475 11.9795 11.2539Z" fill="#5C5C5C"/>
</svg>
