<svg width="36" height="36" viewBox="0 0 36 36" fill="none" xmlns="http://www.w3.org/2000/svg">
<g filter="url(#filter0_d_1028_161011)">
<path d="M2.75781 16.6002C2.75781 7.9847 9.74203 1.00049 18.3575 1.00049C26.973 1.00049 33.9572 7.9847 33.9572 16.6002C33.9572 25.2156 26.973 32.1999 18.3575 32.1999C9.74203 32.1999 2.75781 25.2156 2.75781 16.6002Z" fill="white"/>
<path d="M18.3574 1.39014C26.7575 1.39014 33.5673 8.20005 33.5674 16.6001C33.5674 25.0002 26.7575 31.8101 18.3574 31.8101C9.95737 31.81 3.14746 25.0002 3.14746 16.6001C3.1475 8.20008 9.9574 1.39018 18.3574 1.39014Z" stroke="#EBEBEB" stroke-width="0.779984"/>
<path d="M18.2896 11.9155C18.7714 11.5943 19.3974 11.5877 19.886 11.8986L21.9116 13.1876H22.7446C23.0139 13.1876 23.2321 13.4058 23.2321 13.6751V18.0625C23.2321 18.3317 23.0139 18.55 22.7446 18.55H22.0038C22.0328 19.0118 21.8152 19.4812 21.3776 19.7438L18.8946 21.2336C18.5811 21.4217 18.192 21.4173 17.8851 21.2299C17.5438 21.5318 17.0182 21.5651 16.637 21.2655L14.1309 19.2965C13.7573 19.0029 13.6628 18.5014 13.8557 18.1038C13.6201 17.9191 13.4824 17.6362 13.4824 17.3366V13.6751C13.4824 13.4059 13.7007 13.1876 13.9699 13.1876H16.3815L18.2896 11.9155ZM14.5416 17.4021L14.8789 17.1069C15.4786 16.5821 16.3881 16.6341 16.9241 17.2237L18.2414 18.6728C18.6653 19.139 18.7426 19.8241 18.4343 20.3727L20.8759 18.9078C21.0131 18.8255 21.0627 18.661 21.0116 18.5224L18.8534 15.501C18.7322 15.3313 18.5164 15.2575 18.3167 15.3174L17.1051 15.6809C16.5898 15.8355 16.0312 15.6946 15.6508 15.3142L15.5081 15.1715C15.2312 14.8946 15.1595 14.5005 15.2761 14.1626H14.4574V17.3366L14.5416 17.4021ZM19.3626 12.7211C19.1997 12.6175 18.9911 12.6197 18.8304 12.7268L16.1975 14.4821L16.3402 14.6248C16.467 14.7516 16.6532 14.7986 16.825 14.747L18.0365 14.3836C18.6358 14.2038 19.2832 14.4252 19.6468 14.9343L21.533 17.575H22.2571V14.1626H21.9116C21.7262 14.1626 21.5446 14.1097 21.3881 14.0101L19.3626 12.7211ZM15.521 17.8406L14.7333 18.5298L17.2394 20.4989L17.5825 19.8984C17.6873 19.715 17.6621 19.4849 17.52 19.3286L16.2027 17.8796C16.024 17.683 15.7209 17.6657 15.521 17.8406Z" fill="#5C5C5C"/>
</g>
<defs>
<filter id="filter0_d_1028_161011" x="0.757812" y="0.000488281" width="35.1992" height="35.1992" filterUnits="userSpaceOnUse" color-interpolation-filters="sRGB">
<feFlood flood-opacity="0" result="BackgroundImageFix"/>
<feColorMatrix in="SourceAlpha" type="matrix" values="0 0 0 0 0 0 0 0 0 0 0 0 0 0 0 0 0 0 127 0" result="hardAlpha"/>
<feOffset dy="1"/>
<feGaussianBlur stdDeviation="1"/>
<feComposite in2="hardAlpha" operator="out"/>
<feColorMatrix type="matrix" values="0 0 0 0 0.0392157 0 0 0 0 0.0509804 0 0 0 0 0.0784314 0 0 0 0.03 0"/>
<feBlend mode="normal" in2="BackgroundImageFix" result="effect1_dropShadow_1028_161011"/>
<feBlend mode="normal" in="SourceGraphic" in2="effect1_dropShadow_1028_161011" result="shape"/>
</filter>
</defs>
</svg>
