<svg width="36" height="36" viewBox="0 0 36 36" fill="none" xmlns="http://www.w3.org/2000/svg">
<g filter="url(#filter0_d_1028_161007)">
<path d="M2.75781 17.1597C2.75781 8.54428 9.74203 1.56006 18.3575 1.56006C26.973 1.56006 33.9572 8.54428 33.9572 17.1597C33.9572 25.7752 26.973 32.7594 18.3575 32.7594C9.74203 32.7594 2.75781 25.7752 2.75781 17.1597Z" fill="white"/>
<path d="M18.3574 1.94971C26.7575 1.94971 33.5673 8.75962 33.5674 17.1597C33.5674 25.5598 26.7575 32.3696 18.3574 32.3696C9.95737 32.3696 3.14746 25.5597 3.14746 17.1597C3.1475 8.75965 9.9574 1.94975 18.3574 1.94971Z" stroke="#EBEBEB" stroke-width="0.779984"/>
<path d="M17.1731 15.3903C17.4594 15.1039 17.6544 14.7391 17.7334 14.342C17.8124 13.9448 17.7718 13.5331 17.6168 13.159C17.4619 12.7849 17.1994 12.4651 16.8627 12.2402C16.526 12.0152 16.1302 11.8951 15.7252 11.8951C15.3203 11.8951 14.9245 12.0152 14.5878 12.2402C14.2511 12.4651 13.9886 12.7849 13.8337 13.159C13.6787 13.5331 13.6381 13.9448 13.7171 14.342C13.7961 14.7391 13.9911 15.1039 14.2774 15.3903L15.7252 16.8381L17.1731 15.3903ZM15.7252 18.4925L13.4496 16.218C12.9998 15.768 12.6935 15.1947 12.5695 14.5706C12.4455 13.9466 12.5093 13.2997 12.7529 12.7119C12.9964 12.1241 13.4088 11.6217 13.9379 11.2682C14.467 10.9147 15.089 10.7261 15.7252 10.7261C16.3615 10.7261 16.9835 10.9147 17.5126 11.2682C18.0417 11.6217 18.4541 12.1241 18.6976 12.7119C18.9412 13.2997 19.005 13.9466 18.881 14.5706C18.757 15.1947 18.4507 15.768 18.0009 16.218L15.7252 18.4937V18.4925ZM15.7252 14.8199C15.4925 14.8199 15.2693 14.7275 15.1048 14.5629C14.9402 14.3984 14.8478 14.1752 14.8478 13.9424C14.8478 13.7097 14.9402 13.4865 15.1048 13.322C15.2693 13.1574 15.4925 13.065 15.7252 13.065C15.958 13.065 16.1812 13.1574 16.3457 13.322C16.5103 13.4865 16.6027 13.7097 16.6027 13.9424C16.6027 14.1752 16.5103 14.3984 16.3457 14.5629C16.1812 14.7275 15.958 14.8199 15.7252 14.8199ZM20.9901 22.103L22.438 20.6552C22.7243 20.3688 22.9193 20.004 22.9983 19.6068C23.0773 19.2097 23.0367 18.798 22.8817 18.4239C22.7268 18.0498 22.4643 17.73 22.1276 17.5051C21.7909 17.2801 21.3951 17.16 20.9901 17.16C20.5852 17.16 20.1894 17.2801 19.8527 17.5051C19.516 17.73 19.2535 18.0498 19.0986 18.4239C18.9436 18.798 18.903 19.2097 18.982 19.6068C19.061 20.004 19.256 20.3688 19.5423 20.6552L20.9901 22.103ZM23.2657 21.4829L20.9901 23.7574L18.7145 21.4824C18.2647 21.0323 17.9584 20.459 17.8344 19.835C17.7104 19.2109 17.7742 18.564 18.0178 17.9762C18.2613 17.3884 18.6737 16.886 19.2028 16.5325C19.7319 16.179 20.3539 15.9904 20.9901 15.9904C21.6264 15.9904 22.2484 16.179 22.7775 16.5325C23.3066 16.886 23.719 17.3884 23.9625 17.9762C24.2061 18.564 24.2699 19.2109 24.1459 19.835C24.0218 20.459 23.7156 21.0323 23.2657 21.4824V21.4829ZM20.9901 20.0848C20.7574 20.0848 20.5342 19.9924 20.3697 19.8278C20.2051 19.6632 20.1127 19.4401 20.1127 19.2073C20.1127 18.9746 20.2051 18.7514 20.3697 18.5869C20.5342 18.4223 20.7574 18.3299 20.9901 18.3299C21.2229 18.3299 21.4461 18.4223 21.6106 18.5869C21.7752 18.7514 21.8676 18.9746 21.8676 19.2073C21.8676 19.4401 21.7752 19.6632 21.6106 19.8278C21.4461 19.9924 21.2229 20.0848 20.9901 20.0848Z" fill="#5C5C5C"/>
</g>
<defs>
<filter id="filter0_d_1028_161007" x="0.757812" y="0.560059" width="35.1992" height="35.1992" filterUnits="userSpaceOnUse" color-interpolation-filters="sRGB">
<feFlood flood-opacity="0" result="BackgroundImageFix"/>
<feColorMatrix in="SourceAlpha" type="matrix" values="0 0 0 0 0 0 0 0 0 0 0 0 0 0 0 0 0 0 127 0" result="hardAlpha"/>
<feOffset dy="1"/>
<feGaussianBlur stdDeviation="1"/>
<feComposite in2="hardAlpha" operator="out"/>
<feColorMatrix type="matrix" values="0 0 0 0 0.0392157 0 0 0 0 0.0509804 0 0 0 0 0.0784314 0 0 0 0.03 0"/>
<feBlend mode="normal" in2="BackgroundImageFix" result="effect1_dropShadow_1028_161007"/>
<feBlend mode="normal" in="SourceGraphic" in2="effect1_dropShadow_1028_161007" result="shape"/>
</filter>
</defs>
</svg>
