<svg width="15" height="16" viewBox="0 0 15 16" fill="none" xmlns="http://www.w3.org/2000/svg">
<path d="M3.375 0.5H11.625C11.7414 0.5 11.8563 0.527109 11.9604 0.57918C12.0646 0.63125 12.1551 0.706853 12.225 0.8L14.25 3.5V14.75C14.25 14.9489 14.171 15.1397 14.0303 15.2803C13.8897 15.421 13.6989 15.5 13.5 15.5H1.5C1.30109 15.5 1.11032 15.421 0.96967 15.2803C0.829018 15.1397 0.75 14.9489 0.75 14.75V3.5L2.775 0.8C2.84486 0.706853 2.93545 0.63125 3.03959 0.57918C3.14373 0.527109 3.25857 0.5 3.375 0.5ZM12.375 3.5L11.25 2H3.75L2.625 3.5H12.375ZM5.25 6.5H3.75V8C3.75 8.99456 4.14509 9.94839 4.84835 10.6517C5.55161 11.3549 6.50544 11.75 7.5 11.75C8.49456 11.75 9.44839 11.3549 10.1517 10.6517C10.8549 9.94839 11.25 8.99456 11.25 8V6.5H9.75V8C9.75 8.59674 9.51295 9.16903 9.09099 9.59099C8.66903 10.0129 8.09674 10.25 7.5 10.25C6.90326 10.25 6.33097 10.0129 5.90901 9.59099C5.48705 9.16903 5.25 8.59674 5.25 8V6.5Z" fill="#EF4F54"/>
</svg>
