<svg width="20" height="20" viewBox="0 0 20 20" fill="none" xmlns="http://www.w3.org/2000/svg">
<path d="M9.5425 8.79247L6.625 11.7077L3.7075 8.79247C3.1308 8.21551 2.73813 7.4805 2.57912 6.68038C2.42011 5.88026 2.50192 5.05096 2.81418 4.29733C3.12645 3.54369 3.65517 2.89957 4.33348 2.4464C5.01179 1.99322 5.80924 1.75134 6.625 1.75134C7.44077 1.75134 8.23822 1.99322 8.91653 2.4464C9.59484 2.89957 10.1236 3.54369 10.4358 4.29733C10.7481 5.05096 10.8299 5.88026 10.6709 6.68038C10.5119 7.4805 10.1192 8.21551 9.5425 8.79247ZM6.625 7.37497C7.02283 7.37497 7.40436 7.21694 7.68566 6.93563C7.96697 6.65433 8.125 6.2728 8.125 5.87497C8.125 5.47715 7.96697 5.09562 7.68566 4.81431C7.40436 4.53301 7.02283 4.37497 6.625 4.37497C6.22718 4.37497 5.84565 4.53301 5.56434 4.81431C5.28304 5.09562 5.125 5.47715 5.125 5.87497C5.125 6.2728 5.28304 6.65433 5.56434 6.93563C5.84565 7.21694 6.22718 7.37497 6.625 7.37497ZM16.2925 15.5425L13.375 18.4585L10.4575 15.5417C9.8808 14.9648 9.48813 14.2297 9.32912 13.4296C9.17011 12.6295 9.25192 11.8002 9.56418 11.0466C9.87645 10.2929 10.4052 9.64882 11.0835 9.19565C11.7618 8.74247 12.5592 8.50059 13.375 8.50059C14.1908 8.50059 14.9882 8.74247 15.6665 9.19565C16.3448 9.64882 16.8736 10.2929 17.1858 11.0466C17.4981 11.8002 17.5799 12.6295 17.4209 13.4296C17.2619 14.2297 16.8692 14.9648 16.2925 15.5417V15.5425ZM13.375 14.125C13.7728 14.125 14.1544 13.9669 14.4357 13.6856C14.717 13.4043 14.875 13.0228 14.875 12.625C14.875 12.2271 14.717 11.8456 14.4357 11.5643C14.1544 11.283 13.7728 11.125 13.375 11.125C12.9772 11.125 12.5956 11.283 12.3143 11.5643C12.033 11.8456 11.875 12.2271 11.875 12.625C11.875 13.0228 12.033 13.4043 12.3143 13.6856C12.5956 13.9669 12.9772 14.125 13.375 14.125Z" fill="#5C5C5C"/>
</svg>
