<svg width="25" height="26" viewBox="0 0 25 26" fill="none" xmlns="http://www.w3.org/2000/svg">
<g filter="url(#filter0_d_919_58010)">
<path d="M2.27441 11.961C2.27441 6.31191 6.8539 1.73242 12.503 1.73242C18.1521 1.73242 22.7316 6.31191 22.7316 11.961C22.7316 17.6101 18.1521 22.1896 12.503 22.1896C6.8539 22.1896 2.27441 17.6101 2.27441 11.961Z" fill="white"/>
<path d="M12.5029 1.98828C18.0108 1.98828 22.4756 6.4531 22.4756 11.9609C22.4756 17.4688 18.0108 21.9336 12.5029 21.9336C6.9951 21.9336 2.53027 17.4688 2.53027 11.9609C2.5303 6.45312 6.99512 1.98831 12.5029 1.98828Z" stroke="#EBEBEB" stroke-width="0.511429"/>
<path d="M12.8867 11.1943H15.5717L12.1196 16.1808V12.7286H9.43457L12.8867 7.74219V11.1943Z" fill="#5C5C5C"/>
</g>
<defs>
<filter id="filter0_d_919_58010" x="0.274414" y="0.732422" width="24.457" height="24.457" filterUnits="userSpaceOnUse" color-interpolation-filters="sRGB">
<feFlood flood-opacity="0" result="BackgroundImageFix"/>
<feColorMatrix in="SourceAlpha" type="matrix" values="0 0 0 0 0 0 0 0 0 0 0 0 0 0 0 0 0 0 127 0" result="hardAlpha"/>
<feOffset dy="1"/>
<feGaussianBlur stdDeviation="1"/>
<feComposite in2="hardAlpha" operator="out"/>
<feColorMatrix type="matrix" values="0 0 0 0 0.0392157 0 0 0 0 0.0509804 0 0 0 0 0.0784314 0 0 0 0.03 0"/>
<feBlend mode="normal" in2="BackgroundImageFix" result="effect1_dropShadow_919_58010"/>
<feBlend mode="normal" in="SourceGraphic" in2="effect1_dropShadow_919_58010" result="shape"/>
</filter>
</defs>
</svg>
