<svg width="16" height="16" viewBox="0 0 16 16" fill="none" xmlns="http://www.w3.org/2000/svg">
<path d="M13.5315 10.3274C14.0182 9.17109 14.1302 7.89137 13.8518 6.66813C13.5735 5.4449 12.9188 4.33966 11.9797 3.5078C11.0407 2.67595 9.86453 2.15931 8.61665 2.03053C7.36877 1.90175 6.11191 2.16731 5.02277 2.78986L4.27877 1.48711C5.417 0.836573 6.70592 0.495887 8.01693 0.499045C9.32794 0.502204 10.6152 0.849096 11.7503 1.50511C15.1178 3.44911 16.4078 7.61161 14.838 11.0826L15.8445 11.6631L12.7208 13.3236L12.597 9.78811L13.5315 10.3274ZM2.46902 5.67286C1.98238 6.82914 1.87036 8.10885 2.14871 9.33209C2.42706 10.5553 3.08178 11.6606 4.02083 12.4924C4.95987 13.3243 6.13602 13.8409 7.3839 13.9697C8.63178 14.0985 9.88864 13.8329 10.9778 13.2104L11.7218 14.5131C10.5835 15.1637 9.29463 15.5043 7.98362 15.5012C6.67261 15.498 5.38535 15.1511 4.25027 14.4951C0.882774 12.5511 -0.407227 8.38861 1.16252 4.91761L0.155273 4.33786L3.27902 2.67736L3.40277 6.21286L2.46827 5.67361L2.46902 5.67286ZM9.06152 10.1211L6.93827 8.00011L4.81727 10.1211L3.75677 9.06061L6.93902 5.87911L9.06077 8.00011L11.1825 5.87911L12.243 6.93961L9.06077 10.1211H9.06152Z" fill="#A4A4A4"/>
</svg>
