<svg width="20" height="24" viewBox="0 0 20 24" fill="none" xmlns="http://www.w3.org/2000/svg">
<g id="saudi-riyal-symbol">
<path id="saudi-riyal-symbol_2" d="M11.2027 18.1754C11.0059 18.7409 10.8763 19.3564 10.8259 20L14.9782 18.8502C15.175 18.2847 15.3046 17.6692 15.355 17.0256L11.2027 18.1754ZM14.9806 15.4103C15.1774 14.8448 15.307 14.2293 15.3574 13.5856L12.122 14.4823V12.7608L14.9806 11.9672C15.1774 11.4017 15.307 10.7862 15.3574 10.1426L12.122 11.0361V4.84359C11.6252 5.20601 11.1859 5.68717 10.8283 6.25581V11.3923L9.5322 11.7516V4C9.03536 4.36243 8.59613 4.84359 8.2385 5.41222V12.1078L5.34389 12.9108C5.14708 13.4763 5.01747 14.0918 4.96707 14.7354L8.2385 13.8293V15.9977L4.73185 16.9662C4.53743 17.5349 4.40783 18.1504 4.35742 18.794L8.02729 17.7786C8.32491 17.6973 8.58173 17.4692 8.74974 17.1506L9.42179 15.8508C9.4914 15.7165 9.5322 15.554 9.5322 15.379V13.47L10.8259 13.1107V16.56L14.9806 15.4103Z" fill="#A4A4A4"/>
</g>
</svg>
