<svg width="20" height="20" viewBox="0 0 20 20" fill="none" xmlns="http://www.w3.org/2000/svg">
<g id="search-eye-line">
<path id="Vector" d="M14.5232 13.4627L17.7355 16.6742L16.6742 17.7355L13.4627 14.5232C12.2678 15.4812 10.7815 16.0022 9.25 16C5.524 16 2.5 12.976 2.5 9.25C2.5 5.524 5.524 2.5 9.25 2.5C12.976 2.5 16 5.524 16 9.25C16.0022 10.7815 15.4812 12.2678 14.5232 13.4627ZM13.0187 12.9062C13.9706 11.9274 14.5021 10.6153 14.5 9.25C14.5 6.349 12.1502 4 9.25 4C6.349 4 4 6.349 4 9.25C4 12.1502 6.349 14.5 9.25 14.5C10.6153 14.5021 11.9274 13.9706 12.9062 13.0187L13.0187 12.9062ZM10.1335 6.382C9.91235 6.4819 9.71873 6.63396 9.56927 6.82514C9.41981 7.01632 9.31896 7.24091 9.27538 7.47963C9.2318 7.71836 9.24679 7.96409 9.31907 8.19575C9.39134 8.42741 9.51874 8.63807 9.69034 8.80966C9.86193 8.98126 10.0726 9.10866 10.3042 9.18093C10.5359 9.25321 10.7816 9.2682 11.0204 9.22462C11.2591 9.18104 11.4837 9.08019 11.6749 8.93073C11.866 8.78127 12.0181 8.58765 12.118 8.3665C12.3151 9.00672 12.2923 9.69448 12.0531 10.3202C11.814 10.9459 11.3723 11.4736 10.7984 11.8192C10.2246 12.1648 9.55156 12.3083 8.88664 12.227C8.22172 12.1457 7.60315 11.8442 7.12948 11.3705C6.65581 10.8968 6.3543 10.2783 6.27298 9.61336C6.19167 8.94844 6.33523 8.27544 6.6808 7.70158C7.02637 7.12773 7.55406 6.68604 8.17979 6.44689C8.80551 6.20775 9.49328 6.1849 10.1335 6.382Z" fill="#A4A4A4"/>
</g>
</svg>
