<svg width="44" height="44" viewBox="0 0 44 44" fill="none" xmlns="http://www.w3.org/2000/svg">
<g filter="url(#filter0_d_1893_19408)">
<path d="M2 21C2 9.95431 10.9543 1 22 1C33.0457 1 42 9.95431 42 21C42 32.0457 33.0457 41 22 41C10.9543 41 2 32.0457 2 21Z" fill="white"/>
<path d="M22 1.5C32.7696 1.5 41.5 10.2304 41.5 21C41.5 31.7696 32.7696 40.5 22 40.5C11.2304 40.5 2.5 31.7696 2.5 21C2.5 10.2304 11.2304 1.5 22 1.5Z" stroke="#EBEBEB"/>
<path d="M21.1749 13.5752L28.5991 14.6364L29.6596 22.0614L22.7656 28.9554C22.625 29.096 22.4343 29.175 22.2354 29.175C22.0365 29.175 21.8458 29.096 21.7051 28.9554L14.2801 21.5304C14.1395 21.3898 14.0605 21.1991 14.0605 21.0002C14.0605 20.8013 14.1395 20.6106 14.2801 20.4699L21.1749 13.5752ZM21.7051 15.1667L15.8709 21.0002L22.2354 27.3639L28.0689 21.5304L27.2739 15.9617L21.7051 15.1667ZM23.2951 19.9397C23.0138 19.6582 22.8557 19.2765 22.8558 18.8786C22.8559 18.6815 22.8947 18.4864 22.9701 18.3043C23.0456 18.1223 23.1561 17.9569 23.2955 17.8176C23.4349 17.6783 23.6003 17.5678 23.7824 17.4924C23.9645 17.417 24.1596 17.3782 24.3567 17.3783C24.7546 17.3783 25.1363 17.5365 25.4176 17.8179C25.699 18.0994 25.857 18.4811 25.857 18.8791C25.8569 19.2771 25.6987 19.6587 25.4173 19.9401C25.1358 20.2214 24.7541 20.3795 24.3561 20.3794C23.9581 20.3793 23.5765 20.2212 23.2951 19.9397Z" fill="#5C5C5C"/>
</g>
<defs>
<filter id="filter0_d_1893_19408" x="0" y="0" width="44" height="44" filterUnits="userSpaceOnUse" color-interpolation-filters="sRGB">
<feFlood flood-opacity="0" result="BackgroundImageFix"/>
<feColorMatrix in="SourceAlpha" type="matrix" values="0 0 0 0 0 0 0 0 0 0 0 0 0 0 0 0 0 0 127 0" result="hardAlpha"/>
<feOffset dy="1"/>
<feGaussianBlur stdDeviation="1"/>
<feComposite in2="hardAlpha" operator="out"/>
<feColorMatrix type="matrix" values="0 0 0 0 0.0392157 0 0 0 0 0.0509804 0 0 0 0 0.0784314 0 0 0 0.03 0"/>
<feBlend mode="normal" in2="BackgroundImageFix" result="effect1_dropShadow_1893_19408"/>
<feBlend mode="normal" in="SourceGraphic" in2="effect1_dropShadow_1893_19408" result="shape"/>
</filter>
</defs>
</svg>
