<svg width="36" height="36" viewBox="0 0 36 36" fill="none" xmlns="http://www.w3.org/2000/svg">
<g filter="url(#filter0_d_1028_160998)">
<path d="M2.75781 17.1832C2.75781 8.56771 9.74203 1.5835 18.3575 1.5835C26.973 1.5835 33.9572 8.56771 33.9572 17.1832C33.9572 25.7987 26.973 32.7829 18.3575 32.7829C9.74203 32.7829 2.75781 25.7987 2.75781 17.1832Z" fill="white"/>
<path d="M18.3574 1.97314C26.7575 1.97314 33.5673 8.78306 33.5674 17.1831C33.5674 25.5832 26.7575 32.3931 18.3574 32.3931C9.95737 32.393 3.14746 25.5832 3.14746 17.1831C3.1475 8.78308 9.9574 1.97319 18.3574 1.97314Z" stroke="#EBEBEB" stroke-width="0.779984"/>
<path d="M13.9783 16.6896C13.9924 15.9417 14.0321 15.4609 14.1438 14.9023C14.3055 14.094 14.6089 13.6061 15.216 13.2014L14.6752 12.3901C13.8197 12.9604 13.3918 13.6912 13.1878 14.711C12.9343 15.9782 12.9939 18.5794 12.9954 18.6444C12.9954 18.6448 12.9954 18.6452 12.9954 18.6456C12.9954 19.9918 14.0867 21.0831 15.4329 21.0831C16.779 21.0831 17.8703 19.9918 17.8703 18.6456C17.8703 18.5121 17.8595 18.3809 17.8388 18.2528C17.9998 18.1916 18.1747 18.1581 18.3578 18.1581C18.541 18.1581 18.7158 18.1916 18.8769 18.2528C18.8561 18.3809 18.8453 18.5121 18.8453 18.6456C18.8453 19.9918 19.9366 21.0831 21.2827 21.0831C22.6289 21.0831 23.7202 19.9918 23.7202 18.6456C23.7202 18.6456 23.7846 15.9943 23.528 14.7111C23.3241 13.6913 22.8962 12.9604 22.0409 12.3902L21.5 13.2014C22.107 13.6061 22.4104 14.094 22.572 14.9023C22.6837 15.4609 22.7234 15.9418 22.7375 16.6897C22.3315 16.3872 21.8281 16.2082 21.2827 16.2082C20.4158 16.2082 19.6554 16.6606 19.2233 17.3414C18.9541 17.2392 18.6622 17.1832 18.3578 17.1832C18.0534 17.1832 17.7615 17.2392 17.4923 17.3414C17.0603 16.6606 16.2998 16.2082 15.4329 16.2082C14.8877 16.2082 14.3843 16.3872 13.9783 16.6896ZM13.9704 18.6456C13.9704 17.8379 14.6252 17.1832 15.4329 17.1832C16.07 17.1832 16.6132 17.5909 16.8133 18.1612C16.8663 18.3122 16.8953 18.475 16.8953 18.6456C16.8953 19.4533 16.2406 20.1081 15.4329 20.1081C14.6252 20.1081 13.9704 19.4533 13.9704 18.6456ZM19.9023 18.1612C20.1024 17.5909 20.6456 17.1832 21.2827 17.1832C22.0905 17.1832 22.7452 17.8379 22.7452 18.6456C22.7452 19.4533 22.0905 20.1081 21.2827 20.1081C20.4751 20.1081 19.8203 19.4533 19.8203 18.6456C19.8203 18.475 19.8493 18.3122 19.9023 18.1612Z" fill="#5C5C5C"/>
</g>
<defs>
<filter id="filter0_d_1028_160998" x="0.757812" y="0.583496" width="35.1992" height="35.1992" filterUnits="userSpaceOnUse" color-interpolation-filters="sRGB">
<feFlood flood-opacity="0" result="BackgroundImageFix"/>
<feColorMatrix in="SourceAlpha" type="matrix" values="0 0 0 0 0 0 0 0 0 0 0 0 0 0 0 0 0 0 127 0" result="hardAlpha"/>
<feOffset dy="1"/>
<feGaussianBlur stdDeviation="1"/>
<feComposite in2="hardAlpha" operator="out"/>
<feColorMatrix type="matrix" values="0 0 0 0 0.0392157 0 0 0 0 0.0509804 0 0 0 0 0.0784314 0 0 0 0.03 0"/>
<feBlend mode="normal" in2="BackgroundImageFix" result="effect1_dropShadow_1028_160998"/>
<feBlend mode="normal" in="SourceGraphic" in2="effect1_dropShadow_1028_160998" result="shape"/>
</filter>
</defs>
</svg>
