<svg width="20" height="20" viewBox="0 0 20 20" fill="none" xmlns="http://www.w3.org/2000/svg">
<path d="M9.91319 3.99411C10.5309 3.58227 11.3335 3.57373 11.9599 3.97233L14.5569 5.62496H15.6249C15.9701 5.62496 16.2499 5.90479 16.2499 6.24996V11.8749C16.2499 12.2201 15.9701 12.4999 15.6249 12.4999H14.6751C14.7122 13.092 14.4333 13.6939 13.8722 14.0306L10.6888 15.9406C10.2869 16.1817 9.78806 16.1761 9.39462 15.9359C8.95694 16.3229 8.28319 16.3656 7.7944 15.9815L4.58142 13.457C4.10242 13.0807 3.98129 12.4377 4.22862 11.9279C3.92655 11.6911 3.75 11.3284 3.75 10.9443V6.25C3.75 5.90483 4.02982 5.625 4.375 5.625H7.46683L9.91319 3.99411ZM5.1079 11.0283L5.54042 10.6498C6.3093 9.977 7.47526 10.0436 8.16251 10.7996L9.85137 12.6574C10.3948 13.2552 10.4939 14.1334 10.0987 14.8369L13.2291 12.9587C13.4049 12.8532 13.4686 12.6423 13.403 12.4646L10.6361 8.59094C10.4806 8.37335 10.204 8.27874 9.94787 8.35558L8.39459 8.82156C7.73391 9.01975 7.01774 8.83919 6.52999 8.35147L6.34701 8.16849C5.99201 7.81348 5.9002 7.30824 6.04959 6.875H5V10.9443L5.1079 11.0283ZM11.2888 5.02691C11.08 4.89404 10.8125 4.89689 10.6066 5.03417L7.23089 7.28461L7.41387 7.46759C7.57646 7.63017 7.81518 7.69035 8.03541 7.62428L9.58869 7.15829C10.3571 6.92778 11.187 7.21162 11.6532 7.86439L14.0715 11.2499H14.9999V6.87496H14.5569C14.3191 6.87496 14.0863 6.80718 13.8857 6.67954L11.2888 5.02691ZM6.36355 11.5905L5.35371 12.4741L8.56668 14.9986L9.00662 14.2287C9.141 13.9936 9.10862 13.6986 8.92644 13.4982L7.23758 11.6404C7.0085 11.3884 6.61984 11.3663 6.36355 11.5905Z" fill="#5C5C5C"/>
</svg>
