<svg width="20" height="20" viewBox="0 0 20 20" fill="none" xmlns="http://www.w3.org/2000/svg">
<path d="M14.5571 6.24996H15.0001C15.3453 6.24996 15.6251 6.52979 15.6251 6.87496V11.2499C15.6251 11.5951 15.3453 11.8749 15.0001 11.8749H13.7501L11.1449 8.22767C10.8341 7.79248 10.2808 7.60326 9.76856 7.75693L8.21528 8.22292C7.77482 8.35506 7.29738 8.23469 6.97221 7.90952L6.78923 7.72654C6.51034 7.44766 6.55632 6.98335 6.88448 6.76457L10.2601 4.51414C10.672 4.23958 11.207 4.23389 11.6246 4.49962L14.2216 6.15225C14.3219 6.21607 14.4383 6.24996 14.5571 6.24996ZM5.64193 11.4342L4.63208 12.3178C4.33744 12.5756 4.34966 13.0377 4.65751 13.2796L7.87048 15.8041C8.17053 16.0398 8.60995 15.954 8.79925 15.6227L9.23919 14.8528C9.50794 14.3825 9.44319 13.7926 9.07881 13.3918L7.38998 11.5341C6.93182 11.0301 6.15451 10.9857 5.64193 11.4342ZM6.90348 5.625H4.375C4.02983 5.625 3.75 5.90482 3.75 6.25V10.9474C3.75 11.2026 3.82797 11.4483 3.96887 11.654C3.98381 11.6399 3.9991 11.6259 4.01473 11.6122L5.02458 10.7286C5.92161 9.94375 7.28189 10.0214 8.08368 10.9034L9.77256 12.7612C10.4102 13.4626 10.5235 14.4949 10.0532 15.3179L9.64425 16.0336C9.99606 16.1669 10.3969 16.1369 10.7306 15.9366L13.4864 14.2832C13.7991 14.0955 13.8854 13.681 13.6735 13.3841L10.3818 8.77256C10.3041 8.66378 10.1658 8.61647 10.0377 8.65489L8.48441 9.12087C7.7136 9.35212 6.87808 9.1415 6.30904 8.57244L6.12606 8.38945C5.42884 7.69224 5.54378 6.53147 6.36419 5.98452L6.90348 5.625Z" fill="#5C5C5C"/>
</svg>
