<svg width="21" height="20" viewBox="0 0 21 20" fill="none" xmlns="http://www.w3.org/2000/svg">
<path d="M6.375 2.5H14.625C14.7414 2.5 14.8563 2.52711 14.9604 2.57918C15.0646 2.63125 15.1551 2.70685 15.225 2.8L17.25 5.5V16.75C17.25 16.9489 17.171 17.1397 17.0303 17.2803C16.8897 17.421 16.6989 17.5 16.5 17.5H4.5C4.30109 17.5 4.11032 17.421 3.96967 17.2803C3.82902 17.1397 3.75 16.9489 3.75 16.75V5.5L5.775 2.8C5.84486 2.70685 5.93545 2.63125 6.03959 2.57918C6.14373 2.52711 6.25857 2.5 6.375 2.5ZM15.375 5.5L14.25 4H6.75L5.625 5.5H15.375ZM8.25 8.5H6.75V10C6.75 10.9946 7.14509 11.9484 7.84835 12.6517C8.55161 13.3549 9.50544 13.75 10.5 13.75C11.4946 13.75 12.4484 13.3549 13.1517 12.6517C13.8549 11.9484 14.25 10.9946 14.25 10V8.5H12.75V10C12.75 10.5967 12.5129 11.169 12.091 11.591C11.669 12.0129 11.0967 12.25 10.5 12.25C9.90326 12.25 9.33097 12.0129 8.90901 11.591C8.48705 11.169 8.25 10.5967 8.25 10V8.5Z" fill="#EF4F54"/>
</svg>
