<svg width="20" height="20" viewBox="0 0 20 20" fill="none" xmlns="http://www.w3.org/2000/svg">
<path d="M13.75 10.75C14.3433 10.75 14.9234 10.9259 15.4167 11.2556C15.9101 11.5852 16.2946 12.0538 16.5216 12.6019C16.7487 13.1501 16.8081 13.7533 16.6924 14.3353C16.5766 14.9172 16.2909 15.4518 15.8713 15.8713C15.4518 16.2909 14.9172 16.5766 14.3353 16.6924C13.7533 16.8081 13.1501 16.7487 12.6019 16.5216C12.0538 16.2946 11.5852 15.9101 11.2556 15.4167C10.9259 14.9234 10.75 14.3433 10.75 13.75H9.25C9.24972 14.4778 8.98485 15.1807 8.50473 15.7278C8.02462 16.2748 7.36202 16.6286 6.64038 16.7233C5.91873 16.818 5.18727 16.6472 4.58226 16.2426C3.97726 15.8379 3.53998 15.2272 3.3519 14.5241C3.16382 13.821 3.23776 13.0735 3.55995 12.4208C3.88214 11.7682 4.4306 11.2549 5.10315 10.9767C5.7757 10.6985 6.52647 10.6742 7.21557 10.9085C7.90468 11.1427 8.48512 11.6195 8.84875 12.25H11.1512C11.4145 11.7937 11.7933 11.4149 12.2495 11.1516C12.7057 10.8882 13.2232 10.7497 13.75 10.75ZM6.25 12.25C5.85218 12.25 5.47064 12.408 5.18934 12.6893C4.90804 12.9706 4.75 13.3522 4.75 13.75C4.75 14.1478 4.90804 14.5294 5.18934 14.8107C5.47064 15.092 5.85218 15.25 6.25 15.25C6.64782 15.25 7.02936 15.092 7.31066 14.8107C7.59196 14.5294 7.75 14.1478 7.75 13.75C7.75 13.3522 7.59196 12.9706 7.31066 12.6893C7.02936 12.408 6.64782 12.25 6.25 12.25ZM13.75 12.25C13.3522 12.25 12.9706 12.408 12.6893 12.6893C12.408 12.9706 12.25 13.3522 12.25 13.75C12.25 14.1478 12.408 14.5294 12.6893 14.8107C12.9706 15.092 13.3522 15.25 13.75 15.25C14.1478 15.25 14.5294 15.092 14.8107 14.8107C15.092 14.5294 15.25 14.1478 15.25 13.75C15.25 13.3522 15.092 12.9706 14.8107 12.6893C14.5294 12.408 14.1478 12.25 13.75 12.25ZM13 3.25C13.7956 3.25 14.5587 3.56607 15.1213 4.12868C15.6839 4.69129 16 5.45435 16 6.25V8.5H17.5V10H2.5V8.5H4V6.25C4 5.45435 4.31607 4.69129 4.87868 4.12868C5.44129 3.56607 6.20435 3.25 7 3.25H13ZM13 4.75H7C6.2095 4.75 5.5 5.4625 5.5 6.25V8.5H14.5V6.25C14.5 5.4595 13.7875 4.75 13 4.75Z" fill="#5C5C5C"/>
</svg>
