<svg width="15" height="16" viewBox="0 0 15 16" fill="none" xmlns="http://www.w3.org/2000/svg">
<path d="M0.75 9.5L3.75 11.375L6 8.75L8.25 11.75L9.75 9.875L12 10.25L9.75 8L8.25 9.875L6 6.125L3.375 8.9375L0.75 6.5V1.244C0.75 0.84125 1.08525 0.5 1.4985 0.5H9V5C9 5.19891 9.07902 5.38968 9.21967 5.53033C9.36032 5.67098 9.55109 5.75 9.75 5.75H14.25V14.7448C14.2507 14.8432 14.232 14.9409 14.1949 15.0322C14.1579 15.1234 14.1032 15.2065 14.034 15.2766C13.9649 15.3468 13.8826 15.4026 13.7919 15.4409C13.7011 15.4792 13.6037 15.4993 13.5052 15.5H1.49475C1.29736 15.5 1.10804 15.4216 0.968397 15.2821C0.828751 15.1426 0.750199 14.9534 0.75 14.756V9.5ZM14.25 4.25H10.5V0.50225L14.25 4.25Z" fill="#A4A4A4"/>
</svg>
