<svg width="20" height="20" viewBox="0 0 20 20" fill="none" xmlns="http://www.w3.org/2000/svg">
<path d="M9.99976 2.5C14.142 2.5 17.4998 5.85775 17.4998 10C17.4998 14.1423 14.142 17.5 9.99976 17.5C5.85751 17.5 2.49976 14.1423 2.49976 10C2.49976 5.85775 5.85751 2.5 9.99976 2.5ZM9.99976 4C8.40846 4 6.88233 4.63214 5.75712 5.75736C4.6319 6.88258 3.99976 8.4087 3.99976 10C3.99976 11.5913 4.6319 13.1174 5.75712 14.2426C6.88233 15.3679 8.40846 16 9.99976 16C11.5911 16 13.1172 15.3679 14.2424 14.2426C15.3676 13.1174 15.9998 11.5913 15.9998 10C15.9998 8.4087 15.3676 6.88258 14.2424 5.75736C13.1172 4.63214 11.5911 4 9.99976 4ZM7.74976 7C8.57851 7 9.32851 7.336 9.87151 7.87975L8.81101 8.94025C8.60132 8.73035 8.3341 8.58735 8.04313 8.52933C7.75217 8.47132 7.45054 8.50089 7.17638 8.61431C6.90222 8.72773 6.66786 8.91991 6.50293 9.16653C6.338 9.41316 6.24992 9.70315 6.24981 9.99984C6.24971 10.2965 6.33759 10.5866 6.50234 10.8333C6.6671 11.0801 6.90132 11.2724 7.1754 11.386C7.44948 11.4997 7.75109 11.5294 8.04209 11.4716C8.3331 11.4138 8.60042 11.271 8.81026 11.0612L9.87076 12.121C9.45106 12.5401 8.9166 12.8254 8.33486 12.9409C7.75312 13.0563 7.15021 12.9969 6.60225 12.7699C6.0543 12.543 5.58589 12.1587 5.25618 11.6657C4.92647 11.1727 4.75024 10.5931 4.74976 10C4.74976 8.344 6.09376 7 7.74976 7ZM12.9998 7C13.8285 7 14.5785 7.336 15.1215 7.87975L14.061 8.94025C13.8513 8.73035 13.5841 8.58735 13.2931 8.52933C13.0022 8.47132 12.7005 8.50089 12.4264 8.61431C12.1522 8.72773 11.9179 8.91991 11.7529 9.16653C11.588 9.41316 11.4999 9.70315 11.4998 9.99984C11.4997 10.2965 11.5876 10.5866 11.7523 10.8333C11.9171 11.0801 12.1513 11.2724 12.4254 11.386C12.6995 11.4997 13.0011 11.5294 13.2921 11.4716C13.5831 11.4138 13.8504 11.271 14.0603 11.0612L15.1208 12.121C14.7011 12.5401 14.1666 12.8254 13.5849 12.9409C13.0031 13.0563 12.4002 12.9969 11.8523 12.7699C11.3043 12.543 10.8359 12.1587 10.5062 11.6657C10.1765 11.1727 10.0002 10.5931 9.99976 10C9.99976 8.344 11.3438 7 12.9998 7Z" fill="#A4A4A4"/>
</svg>
