<svg width="21" height="20" viewBox="0 0 21 20" fill="none" xmlns="http://www.w3.org/2000/svg">
<path d="M10.9543 2.5C15.0958 2.5 18.4543 5.4835 18.4543 9.16675C18.4537 10.2717 18.0145 11.3311 17.2332 12.1123C16.4518 12.8936 15.3923 13.3326 14.2873 13.333H12.8128C12.1213 13.333 11.5626 13.8918 11.5626 14.5833C11.5626 14.8997 11.6878 15.1915 11.8791 15.4083C12.0793 15.6333 12.2046 15.925 12.2046 16.2498C12.2046 16.942 11.6293 17.5 10.9543 17.5C6.81285 17.5 3.45435 14.1415 3.45435 10C3.45435 5.8585 6.81285 2.5 10.9543 2.5ZM10.0626 14.5833C10.0623 14.222 10.1332 13.8642 10.2713 13.5304C10.4095 13.1966 10.612 12.8933 10.8675 12.6379C11.1229 12.3824 11.4262 12.1799 11.76 12.0417C12.0938 11.9036 12.4516 11.8327 12.8128 11.833H14.2873C14.9943 11.8326 15.6722 11.5517 16.1722 11.0519C16.6723 10.5522 16.9536 9.87445 16.9543 9.1675C16.9543 6.35425 14.3053 4 10.9543 4C9.40603 3.99859 7.9171 4.59577 6.79888 5.66669C5.68066 6.73761 5.01971 8.19935 4.95424 9.74628C4.88877 11.2932 5.42383 12.8056 6.44757 13.9671C7.47131 15.1287 8.90445 15.8496 10.4473 15.979C10.1962 15.557 10.0633 15.0751 10.0626 14.584V14.5833ZM7.57935 10C7.28098 10 6.99483 9.88147 6.78385 9.6705C6.57287 9.45952 6.45435 9.17337 6.45435 8.875C6.45435 8.57663 6.57287 8.29048 6.78385 8.0795C6.99483 7.86853 7.28098 7.75 7.57935 7.75C7.87771 7.75 8.16386 7.86853 8.37484 8.0795C8.58582 8.29048 8.70435 8.57663 8.70435 8.875C8.70435 9.17337 8.58582 9.45952 8.37484 9.6705C8.16386 9.88147 7.87771 10 7.57935 10ZM14.3293 10C14.031 10 13.7448 9.88147 13.5339 9.6705C13.3229 9.45952 13.2043 9.17337 13.2043 8.875C13.2043 8.57663 13.3229 8.29048 13.5339 8.0795C13.7448 7.86853 14.031 7.75 14.3293 7.75C14.6277 7.75 14.9139 7.86853 15.1248 8.0795C15.3358 8.29048 15.4543 8.57663 15.4543 8.875C15.4543 9.17337 15.3358 9.45952 15.1248 9.6705C14.9139 9.88147 14.6277 10 14.3293 10ZM10.9543 7.75C10.656 7.75 10.3698 7.63147 10.1589 7.4205C9.94787 7.20952 9.82935 6.92337 9.82935 6.625C9.82935 6.32663 9.94787 6.04048 10.1589 5.8295C10.3698 5.61853 10.656 5.5 10.9543 5.5C11.2527 5.5 11.5389 5.61853 11.7498 5.8295C11.9608 6.04048 12.0793 6.32663 12.0793 6.625C12.0793 6.92337 11.9608 7.20952 11.7498 7.4205C11.5389 7.63147 11.2527 7.75 10.9543 7.75Z" fill="#A4A4A4"/>
</svg>
