<svg width="21" height="20" viewBox="0 0 21 20" fill="none" xmlns="http://www.w3.org/2000/svg">
<path d="M5.85305 7.52282C5.48569 8.27074 5.27954 9.11194 5.27954 9.99988C5.27954 13.1064 7.79794 15.6249 10.9045 15.6249C11.793 15.6249 12.6348 15.4184 13.3831 15.0506C13.9286 15.2839 14.4575 15.4369 14.9398 15.4762C15.5034 15.5222 16.092 15.4165 16.5182 14.9904C16.9882 14.5203 17.0686 13.8555 16.9845 13.2329C16.9078 12.6648 16.6846 12.0335 16.3583 11.3821C16.4702 10.9393 16.5295 10.4761 16.5295 9.99988C16.5295 6.89325 14.0112 4.37485 10.9045 4.37485C10.4289 4.37485 9.96623 4.43403 9.52393 4.54568C8.87167 4.21857 8.23957 3.99477 7.67085 3.91765C7.04765 3.83316 6.38208 3.91324 5.91155 4.38377C5.48498 4.81034 5.37955 5.39966 5.42585 5.9639C5.46549 6.44682 5.619 6.97648 5.85305 7.52282ZM6.73104 6.22853C6.70042 6.0957 6.68082 5.97316 6.67167 5.86165C6.64159 5.49521 6.72783 5.33525 6.79543 5.26765C6.86987 5.19322 7.05952 5.09621 7.50291 5.15632C7.6263 5.17305 7.76048 5.20112 7.90454 5.24086C7.46932 5.51573 7.07456 5.84859 6.73104 6.22853ZM15.6623 13.0018C15.7015 13.1447 15.7292 13.2778 15.7457 13.4002C15.8055 13.8428 15.7086 14.0321 15.6343 14.1065C15.5667 14.174 15.407 14.2601 15.0414 14.2303C14.9307 14.2213 14.8092 14.202 14.6775 14.1718C15.0562 13.8292 15.388 13.4356 15.6623 13.0018ZM13.3303 13.6414C12.2824 13.0926 11.0652 12.1891 9.88904 11.0129C8.71417 9.83807 7.81137 8.6222 7.2623 7.57512C7.81927 6.74035 8.65532 6.10814 9.63537 5.8116C10.0363 5.6903 10.4622 5.62485 10.9045 5.62485C13.3208 5.62485 15.2795 7.5836 15.2795 9.99988C15.2795 10.4426 15.214 10.8689 15.0924 11.2703C14.7959 12.2494 14.1642 13.0847 13.3303 13.6414ZM11.9078 14.2594C11.5859 14.3349 11.25 14.3749 10.9045 14.3749C8.4883 14.3749 6.52954 12.4161 6.52954 9.99988C6.52954 9.65469 6.5694 9.31925 6.64472 8.99763C7.24756 9.94557 8.05126 10.9429 9.00514 11.8968C9.96017 12.8518 10.9588 13.6563 11.9078 14.2594Z" fill="#A4A4A4"/>
</svg>
