<svg width="16" height="16" viewBox="0 0 16 16" fill="none" xmlns="http://www.w3.org/2000/svg">
<path d="M1.50854 7.99998C2.07254 4.92798 4.76474 2.59998 7.99995 2.59998C11.2351 2.59998 13.9267 4.92798 14.4913 7.99998C13.9273 11.072 11.2351 13.4 7.99995 13.4C4.76474 13.4 2.07314 11.072 1.50854 7.99998ZM7.99995 11C8.79559 11 9.55866 10.6839 10.1213 10.1213C10.6839 9.55869 10.9999 8.79563 10.9999 7.99998C10.9999 7.20433 10.6839 6.44126 10.1213 5.87866C9.55866 5.31605 8.79559 4.99998 7.99995 4.99998C7.2043 4.99998 6.44123 5.31605 5.87862 5.87866C5.31602 6.44126 4.99995 7.20433 4.99995 7.99998C4.99995 8.79563 5.31602 9.55869 5.87862 10.1213C6.44123 10.6839 7.2043 11 7.99995 11ZM7.99995 9.79998C7.52256 9.79998 7.06472 9.61033 6.72715 9.27277C6.38959 8.9352 6.19995 8.47737 6.19995 7.99998C6.19995 7.52259 6.38959 7.06475 6.72715 6.72718C7.06472 6.38962 7.52256 6.19998 7.99995 6.19998C8.47733 6.19998 8.93517 6.38962 9.27274 6.72718C9.6103 7.06475 9.79995 7.52259 9.79995 7.99998C9.79995 8.47737 9.6103 8.9352 9.27274 9.27277C8.93517 9.61033 8.47733 9.79998 7.99995 9.79998Z" fill="#7B7B7B"/>
</svg>
