<svg width="20" height="20" viewBox="0 0 20 20" fill="none" xmlns="http://www.w3.org/2000/svg">
<path d="M6.93394 6.05006L13.9499 13.0661C14.6085 12.2191 15 11.1557 15 10C15 7.23857 12.7614 5 10 5C8.84431 5 7.78087 5.39152 6.93394 6.05006ZM13.0661 13.9499L6.05006 6.93394C5.39152 7.78087 5 8.84431 5 10C5 12.7614 7.23857 15 10 15C11.1557 15 12.2191 14.6085 13.0661 13.9499ZM5.58058 5.58058C6.71092 4.45024 8.27428 3.75 10 3.75C13.4517 3.75 16.25 6.54822 16.25 10C16.25 11.7257 15.5498 13.2891 14.4194 14.4194C13.2891 15.5498 11.7257 16.25 10 16.25C6.54822 16.25 3.75 13.4517 3.75 10C3.75 8.27428 4.45024 6.71092 5.58058 5.58058Z" fill="#FB3748"/>
</svg>
