<svg width="20" height="20" viewBox="0 0 20 20" fill="none" xmlns="http://www.w3.org/2000/svg">
<path d="M8.75444 3.81485C7.87846 3.53129 6.92619 3.92572 6.50729 4.74566L6.00367 5.73139C5.94384 5.84852 5.84858 5.94377 5.73145 6.00361L4.74572 6.50722C3.92578 6.92613 3.53135 7.8784 3.81492 8.75437L4.15583 9.8075C4.19633 9.93262 4.19633 10.0674 4.15583 10.1925L3.81492 11.2456C3.53135 12.1216 3.92578 13.0739 4.74572 13.4928L5.73145 13.9964C5.84858 14.0562 5.94384 14.1515 6.00367 14.2686L6.50729 15.2544C6.92619 16.0743 7.87846 16.4688 8.75444 16.1852L9.80756 15.8442C9.93269 15.8038 10.0674 15.8038 10.1926 15.8442L11.2457 16.1852C12.1217 16.4688 13.0739 16.0743 13.4929 15.2544L13.9964 14.2686C14.0563 14.1515 14.1516 14.0562 14.2687 13.9964L15.2544 13.4928C16.0744 13.0739 16.4688 12.1216 16.1852 11.2456L15.8443 10.1925C15.8038 10.0674 15.8038 9.93262 15.8443 9.8075L16.1852 8.75437C16.4688 7.8784 16.0744 6.92613 15.2544 6.50722L14.2687 6.00361C14.1516 5.94377 14.0563 5.84852 13.9964 5.73139L13.4929 4.74566C13.0739 3.92572 12.1217 3.53129 11.2457 3.81485L10.1926 4.15577C10.0674 4.19627 9.93269 4.19627 9.80756 4.15577L8.75444 3.81485ZM7.62042 5.31437C7.76006 5.04105 8.07749 4.90957 8.36948 5.0041L9.42262 5.34501C9.798 5.46652 10.2021 5.46652 10.5775 5.34501L11.6307 5.0041C11.9226 4.90957 12.2401 5.04106 12.3797 5.31436L12.8833 6.3001C13.0628 6.65146 13.3486 6.93724 13.7 7.11675L14.6857 7.62036C14.959 7.76 15.0905 8.07742 14.996 8.36942L14.6551 9.42256C14.5336 9.79794 14.5336 10.2021 14.6551 10.5774L14.996 11.6306C15.0905 11.9226 14.959 12.24 14.6857 12.3796L13.7 12.8832C13.3486 13.0627 13.0628 13.3486 12.8833 13.6999L12.3797 14.6856C12.2401 14.9589 11.9226 15.0904 11.6307 14.9959L10.5775 14.655C10.2021 14.5335 9.798 14.5335 9.42262 14.655L8.36948 14.9959C8.07749 15.0904 7.76006 14.9589 7.62042 14.6856L7.11681 13.6999C6.9373 13.3486 6.65152 13.0627 6.30016 12.8832L5.31443 12.3796C5.04112 12.24 4.90963 11.9226 5.00416 11.6306L5.34507 10.5774C5.46658 10.2021 5.46658 9.79794 5.34507 9.42256L5.00416 8.36942C4.90963 8.07742 5.04112 7.76 5.31443 7.62036L6.30016 7.11675C6.65152 6.93724 6.9373 6.65146 7.11681 6.3001L7.62042 5.31437ZM6.72481 9.84837L9.37644 12.5L13.7959 8.08061L12.912 7.19672L9.37644 10.7322L7.6087 8.96444L6.72481 9.84837Z" fill="#171717"/>
</svg>
