<svg width="72" height="72" viewBox="0 0 72 72" fill="none" xmlns="http://www.w3.org/2000/svg">
<rect width="72" height="72" rx="36" fill="#F5F5F5"/>
<rect x="17.1479" y="19.5232" width="32.0955" height="40.4865" rx="3.05155" fill="#EBEBEB" stroke="#A4A4A4" stroke-miterlimit="10"/>
<path d="M20.6755 17.7002V51.3621C20.6755 54.3126 23.0657 56.7027 26.0162 56.7027H49.1044C51.1308 56.7027 52.7712 55.0623 52.7712 53.0359V17.7002C52.7712 16.88 52.1069 16.2157 51.2867 16.2157H22.1601C21.3399 16.2157 20.6755 16.88 20.6755 17.7002Z" fill="white" stroke="#A4A4A4" stroke-miterlimit="10"/>
<rect x="30.1968" y="14.1154" width="13.0528" height="4.20244" rx="1.52577" fill="#D1D1D1" stroke="#A4A4A4" stroke-miterlimit="10"/>
<path d="M34.054 12.4054C34.054 10.9277 35.2519 9.72974 36.7296 9.72974C38.2074 9.72974 39.4053 10.9277 39.4053 12.4054V14.1081H34.054V12.4054Z" fill="#D1D1D1" stroke="#A4A4A4" stroke-miterlimit="10"/>
<ellipse cx="36.7232" cy="12.1579" rx="1.21193" ry="1.21193" fill="white"/>
<path d="M52.9592 19.5231H53.2423C54.9277 19.5231 56.2939 20.8893 56.2939 22.5746V26.5496C56.2939 28.2349 54.9277 29.6012 53.2423 29.6012H52.9592V19.5231Z" fill="#EBEBEB" stroke="#A4A4A4" stroke-miterlimit="10"/>
<path d="M52.9592 42.7916H53.2423C54.9277 42.7916 56.2939 44.1578 56.2939 45.8432V49.8182C56.2939 51.5035 54.9277 52.8697 53.2423 52.8697H52.9592V42.7916Z" fill="#EBEBEB" stroke="#A4A4A4" stroke-miterlimit="10"/>
<path d="M29.2076 28.8825H26.8271" stroke="#A4A4A4" stroke-linecap="round" stroke-linejoin="round"/>
<path fill-rule="evenodd" clip-rule="evenodd" d="M26.6451 28.7658C25.9404 28.2679 25.5179 27.3986 25.6667 26.4417C25.8278 25.4074 26.6899 24.5817 27.7298 24.4599C29.1731 24.2905 30.3979 25.4141 30.3979 26.8233C30.3979 27.6268 29.9988 28.3357 29.389 28.7666C29.2795 28.844 29.2076 28.9638 29.2076 29.0979V30.1957C29.2076 30.7436 28.7637 31.1876 28.2158 31.1876H27.819C27.2711 31.1876 26.8272 30.7436 26.8272 30.1957V29.0995C26.8272 28.9642 26.755 28.8436 26.6451 28.7658Z" stroke="#A4A4A4" stroke-linecap="round" stroke-linejoin="round"/>
<path d="M31.1914 24.8397L31.6635 24.3676" stroke="#A4A4A4" stroke-linecap="round" stroke-linejoin="round"/>
<path d="M24.8435 28.8071L24.3713 29.2793" stroke="#A4A4A4" stroke-linecap="round" stroke-linejoin="round"/>
<path d="M25.2399 24.443L24.7678 23.9708" stroke="#A4A4A4" stroke-linecap="round" stroke-linejoin="round"/>
<path d="M31.1914 28.8071L31.6635 29.2793" stroke="#A4A4A4" stroke-linecap="round" stroke-linejoin="round"/>
<path d="M31.5881 26.8234H32.2586" stroke="#A4A4A4" stroke-linecap="round" stroke-linejoin="round"/>
<path d="M23.7761 26.8234H24.4466" stroke="#A4A4A4" stroke-linecap="round" stroke-linejoin="round"/>
<path d="M26.8271 29.9974H29.156" stroke="#A4A4A4" stroke-linecap="round" stroke-linejoin="round"/>
<rect x="34.6553" y="24.9607" width="14.1707" height="1.80066" rx="0.762887" fill="#EBEBEB"/>
<rect x="34.6553" y="28.4724" width="8.17717" height="1.80066" rx="0.762887" fill="#EBEBEB"/>
<path d="M26.0161 56.7027L51.3015 56.6916C53.0458 56.6916 54.4598 55.2813 54.4598 53.537C54.4598 51.9893 53.339 50.6978 51.8656 50.4343L51.7654 50.4157L27.0924 46.1254C29.5307 46.6227 31.3604 48.7753 31.3604 51.3621C31.3604 54.3126 28.9703 56.7027 26.0161 56.7027Z" fill="#D1D1D1" stroke="#A4A4A4" stroke-miterlimit="10"/>
<circle cx="52.9593" cy="16.892" r="5.96397" fill="#EBEBEB" stroke="#A4A4A4" stroke-miterlimit="10"/>
<path fill-rule="evenodd" clip-rule="evenodd" d="M49.1292 21.4636C49.2964 19.6466 50.7273 18.1956 52.5351 17.9972C51.5719 17.8007 50.8472 16.9488 50.8472 15.9276C50.8472 14.7611 51.7929 13.8154 52.9594 13.8154C54.1259 13.8154 55.0716 14.7611 55.0716 15.9276C55.0716 16.9488 54.3469 17.8007 53.3838 17.9972C55.1916 18.1955 56.6225 19.6466 56.7898 21.4635C55.7536 22.3326 54.4176 22.856 52.9594 22.856C51.5013 22.856 50.1653 22.3327 49.1292 21.4636Z" fill="#A4A4A4"/>
<path d="M52.5351 17.9972L52.5896 18.4942C52.8345 18.4673 53.0233 18.2662 53.0346 18.0201C53.0459 17.7741 52.8763 17.5565 52.635 17.5072L52.5351 17.9972ZM49.1292 21.4636L48.6313 21.4178C48.6162 21.5811 48.6822 21.7413 48.8078 21.8467L49.1292 21.4636ZM53.3838 17.9972L53.2838 17.5072C53.0425 17.5565 52.873 17.7741 52.8843 18.0201C52.8956 18.2662 53.0844 18.4673 53.3292 18.4942L53.3838 17.9972ZM56.7898 21.4635L57.1111 21.8466C57.2367 21.7412 57.3027 21.581 57.2877 21.4177L56.7898 21.4635ZM52.5351 17.9972L52.4806 17.5001C50.437 17.7244 48.8203 19.3637 48.6313 21.4178L49.1292 21.4636L49.627 21.5094C49.7725 19.9295 51.0177 18.6667 52.5896 18.4942L52.5351 17.9972ZM50.8472 15.9276H50.3472C50.3472 17.1911 51.2438 18.2441 52.4352 18.4871L52.5351 17.9972L52.635 17.5072C51.9001 17.3574 51.3472 16.7065 51.3472 15.9276H50.8472ZM52.9594 13.8154V13.3154C51.5167 13.3154 50.3472 14.4849 50.3472 15.9276H50.8472H51.3472C51.3472 15.0372 52.069 14.3154 52.9594 14.3154V13.8154ZM55.0716 15.9276H55.5716C55.5716 14.4849 54.4021 13.3154 52.9594 13.3154V13.8154V14.3154C53.8498 14.3154 54.5716 15.0372 54.5716 15.9276H55.0716ZM53.3838 17.9972L53.4837 18.4871C54.675 18.2441 55.5716 17.1911 55.5716 15.9276H55.0716H54.5716C54.5716 16.7065 54.0188 17.3573 53.2838 17.5072L53.3838 17.9972ZM56.7898 21.4635L57.2877 21.4177C57.0986 19.3636 55.4819 17.7244 53.4383 17.5001L53.3838 17.9972L53.3292 18.4942C54.9012 18.6667 56.1464 19.9295 56.2919 21.5094L56.7898 21.4635ZM56.7898 21.4635L56.4685 21.0804C55.519 21.8768 54.2958 22.356 52.9594 22.356V22.856V23.356C54.5395 23.356 55.9882 22.7884 57.1111 21.8466L56.7898 21.4635ZM52.9594 22.856V22.356C51.6231 22.356 50.3999 21.8769 49.4505 21.0805L49.1292 21.4636L48.8078 21.8467C49.9307 22.7885 51.3794 23.356 52.9594 23.356V22.856Z" fill="#A4A4A4"/>
<circle cx="19.0404" cy="45.3486" r="5.96397" fill="white" stroke="#A4A4A4" stroke-miterlimit="10"/>
<path fill-rule="evenodd" clip-rule="evenodd" d="M15.21 49.9201C15.3772 48.1034 16.8079 46.6525 18.6154 46.4538C17.6525 46.2572 16.928 45.4054 16.928 44.3844C16.928 43.2179 17.8737 42.2722 19.0402 42.2722C20.2067 42.2722 21.1524 43.2179 21.1524 44.3844C21.1524 45.4054 20.428 46.2572 19.4651 46.4538C21.2727 46.6524 22.7033 48.1034 22.8706 49.9202C21.8344 50.7893 20.4985 51.3126 19.0403 51.3126C17.5821 51.3126 16.2461 50.7892 15.21 49.9201Z" fill="#A4A4A4"/>
<path d="M18.6154 46.4538L18.67 46.9509C18.9148 46.924 19.1035 46.7228 19.1149 46.4768C19.1262 46.2308 18.9567 46.0132 18.7154 45.964L18.6154 46.4538ZM15.21 49.9201L14.7121 49.8743C14.697 50.0376 14.763 50.1978 14.8886 50.3032L15.21 49.9201ZM19.4651 46.4538L19.365 45.9639C19.1237 46.0132 18.9543 46.2308 18.9656 46.4768C18.9769 46.7228 19.1657 46.924 19.4105 46.9508L19.4651 46.4538ZM22.8706 49.9202L23.1919 50.3033C23.3175 50.198 23.3835 50.0377 23.3685 49.8744L22.8706 49.9202ZM18.6154 46.4538L18.5608 45.9568C16.5175 46.1814 14.9012 47.8205 14.7121 49.8743L15.21 49.9201L15.7079 49.966C15.8533 48.3862 17.0983 47.1236 18.67 46.9509L18.6154 46.4538ZM16.928 44.3844H16.428C16.428 45.6477 17.3243 46.7005 18.5154 46.9437L18.6154 46.4538L18.7154 45.964C17.9807 45.8139 17.428 45.1631 17.428 44.3844H16.928ZM19.0402 42.2722V41.7722C17.5975 41.7722 16.428 42.9417 16.428 44.3844H16.928H17.428C17.428 43.494 18.1498 42.7722 19.0402 42.7722V42.2722ZM21.1524 44.3844H21.6524C21.6524 42.9417 20.4829 41.7722 19.0402 41.7722V42.2722V42.7722C19.9306 42.7722 20.6524 43.494 20.6524 44.3844H21.1524ZM19.4651 46.4538L19.5651 46.9437C20.7561 46.7005 21.6524 45.6477 21.6524 44.3844H21.1524H20.6524C20.6524 45.1631 20.0998 45.8139 19.365 45.9639L19.4651 46.4538ZM22.8706 49.9202L23.3685 49.8744C23.1794 47.8205 21.563 46.1813 19.5197 45.9568L19.4651 46.4538L19.4105 46.9508C20.9823 47.1235 22.2273 48.3863 22.3727 49.9661L22.8706 49.9202ZM22.8706 49.9202L22.5493 49.5371C21.5998 50.3335 20.3767 50.8126 19.0403 50.8126V51.3126V51.8126C20.6203 51.8126 22.0691 51.2451 23.1919 50.3033L22.8706 49.9202ZM19.0403 51.3126V50.8126C17.7039 50.8126 16.4808 50.3334 15.5313 49.537L15.21 49.9201L14.8886 50.3032C16.0115 51.245 17.4603 51.8126 19.0403 51.8126V51.3126Z" fill="#A4A4A4"/>
<path d="M11.1247 22.7388C11.1247 22.7388 8.20578 22.7487 8.20578 25.6577C8.20578 22.7487 5.28687 22.7388 5.28687 22.7388C5.28687 22.7388 8.20578 22.7288 8.20578 19.8198C8.20578 22.7288 11.1247 22.7388 11.1247 22.7388Z" fill="white" stroke="#A4A4A4" stroke-linecap="round" stroke-linejoin="round"/>
<path d="M68.6618 46.395C68.6618 46.395 65.7429 46.4049 65.7429 49.3139C65.7429 46.4049 62.824 46.395 62.824 46.395C62.824 46.395 65.7429 46.3851 65.7429 43.4761C65.7429 46.3851 68.6618 46.395 68.6618 46.395Z" fill="white" stroke="#A4A4A4" stroke-linecap="round" stroke-linejoin="round"/>
<ellipse cx="28.5788" cy="38.9589" rx="1.65991" ry="1.6599" fill="#EBEBEB"/>
<circle cx="36.7234" cy="38.9589" r="1.6599" fill="#EBEBEB"/>
<ellipse cx="44.8679" cy="38.9589" rx="1.65991" ry="1.6599" fill="#EBEBEB"/>
</svg>
