<svg width="16" height="16" viewBox="0 0 16 16" fill="none" xmlns="http://www.w3.org/2000/svg">
<path d="M8.77674 12.3044C8.62166 12.7245 8.51954 13.1818 8.47982 13.66L11.7516 12.8058C11.9067 12.3856 12.0088 11.9284 12.0485 11.4502L8.77674 12.3044ZM11.7535 10.2502C11.9086 9.83005 12.0107 9.37278 12.0504 8.89462L9.50107 9.56079V8.28184L11.7535 7.69226C11.9086 7.27213 12.0107 6.81487 12.0504 6.33671L9.50107 7.00056V2.40003C9.10959 2.66928 8.7635 3.02674 8.48172 3.44919V7.26517L7.46047 7.5321V1.77332C7.06899 2.04257 6.7229 2.40003 6.44112 2.82248V7.79672L4.16034 8.39325C4.00526 8.81338 3.90313 9.27065 3.86342 9.74881L6.44112 9.07567V10.6866L3.67808 11.4061C3.5249 11.8286 3.42277 12.2858 3.38306 12.764L6.27469 12.0096C6.5092 11.9493 6.71156 11.7798 6.84394 11.5431L7.37348 10.5775C7.42832 10.4777 7.46047 10.357 7.46047 10.227V8.80874L8.47982 8.54181V11.1044L11.7535 10.2502Z" fill="#5C5C5C"/>
</svg>
