<svg width="20" height="20" viewBox="0 0 20 20" fill="none" xmlns="http://www.w3.org/2000/svg">
<path d="M5.93768 2.9552H13.6419C13.7507 2.9552 13.8579 2.98052 13.9551 3.02914C14.0524 3.07777 14.137 3.14837 14.2022 3.23535L16.0933 5.75674V16.2625C16.0933 16.4483 16.0195 16.6264 15.8881 16.7578C15.7568 16.8891 15.5786 16.9629 15.3929 16.9629H4.18671C4.00096 16.9629 3.82281 16.8891 3.69147 16.7578C3.56012 16.6264 3.48633 16.4483 3.48633 16.2625V5.75674L5.37737 3.23535C5.44261 3.14837 5.5272 3.07777 5.62446 3.02914C5.72171 2.98052 5.82895 2.9552 5.93768 2.9552ZM14.6925 7.15751H4.8871V15.5621H14.6925V7.15751ZM14.3423 5.75674L13.2917 4.35597H6.28787L5.23729 5.75674H14.3423ZM7.68864 8.55829V9.95906C7.68864 10.5163 7.91001 11.0508 8.30406 11.4448C8.6981 11.8388 9.23254 12.0602 9.7898 12.0602C10.3471 12.0602 10.8815 11.8388 11.2755 11.4448C11.6696 11.0508 11.891 10.5163 11.891 9.95906V8.55829H13.2917V9.95906C13.2917 10.8878 12.9228 11.7786 12.266 12.4353C11.6093 13.092 10.7186 13.461 9.7898 13.461C8.86103 13.461 7.9703 13.092 7.31356 12.4353C6.65682 11.7786 6.28787 10.8878 6.28787 9.95906V8.55829H7.68864Z" fill="#5C5C5C"/>
</svg>
