<svg width="20" height="25" viewBox="0 0 20 25" fill="none" xmlns="http://www.w3.org/2000/svg">
<g clip-path="url(#clip0_1833_356100)">
<path d="M19.8879 17.8199V2.23107C19.8879 1.00072 18.8867 0 17.6564 0H2.23153C1.00119 0 0 1.00119 0 2.23107V19.6541V22.6706C0 23.9014 1.00072 24.9026 2.23107 24.9026H17.6559C18.8867 24.9026 19.8879 23.9014 19.8879 22.6706V17.8231C19.8879 17.8231 19.8879 17.8208 19.8879 17.8199Z" fill="white"/>
<path d="M2.17283 16.455H17.7146C18.0269 16.455 18.3133 16.5664 18.5356 16.7507V2.2758C18.5356 1.79115 18.141 1.39844 17.6545 1.39844H2.23336C1.74686 1.39844 1.35229 1.79115 1.35229 2.2758V16.7507C1.57452 16.5664 1.86097 16.455 2.1733 16.455" fill="#005E4B"/>
<path d="M16.124 3.24213C16.124 3.09844 16.0057 2.98571 15.8551 2.98571C15.7045 2.98571 15.5862 3.09844 15.5862 3.24213C15.5862 3.38581 15.7017 3.49854 15.8551 3.49854C16.0085 3.49854 16.124 3.38859 16.124 3.24213ZM14.9731 5.37202H16.7847V4.76862C16.7847 4.60553 16.7532 4.49419 16.6821 4.40733C16.604 4.31215 16.4783 4.26364 16.3079 4.26364H14.9731V5.37202ZM11.484 6.61206C11.3971 6.61206 11.3121 6.60051 11.2229 6.57603L11.173 6.56263L11.2802 6.17176L11.3301 6.1847C11.3999 6.20272 11.4253 6.20549 11.4729 6.20549C11.6508 6.20549 11.7099 6.14589 11.7099 5.79152V3.61867H12.1183V5.37248H14.5647V3.61867H14.9731V3.85707H16.3079C16.6197 3.85707 16.8249 3.93931 16.994 4.13243C17.1224 4.27704 17.1935 4.50297 17.1935 4.76862V5.77859H12.0735L12.0749 5.8003C12.0901 6.10847 12.0328 6.33208 11.9053 6.46514C11.7649 6.6116 11.5754 6.6116 11.4844 6.6116L11.484 6.61206ZM10.8154 6.32146C10.8154 6.17962 10.699 6.06873 10.5502 6.06873C10.4015 6.06873 10.2892 6.17962 10.2892 6.32146C10.2892 6.46329 10.4015 6.57002 10.5502 6.57002C10.699 6.57002 10.8154 6.4656 10.8154 6.32146ZM10.0771 6.32146C10.0771 6.17962 9.96255 6.06873 9.81609 6.06873C9.66963 6.06873 9.55459 6.17962 9.55459 6.32146C9.55459 6.46329 9.66686 6.57002 9.81609 6.57002C9.96532 6.57002 10.0771 6.46329 10.0771 6.32146ZM7.77999 6.31406C7.77999 6.17269 7.66171 6.06134 7.5111 6.06134C7.36048 6.06134 7.2422 6.17222 7.2422 6.31406C7.2422 6.4559 7.35771 6.57048 7.5111 6.57048C7.66449 6.57048 7.77999 6.46006 7.77999 6.31406ZM3.85748 2.89746C3.85748 2.75794 3.7429 2.64844 3.59644 2.64844C3.44999 2.64844 3.33541 2.75747 3.33541 2.89746C3.33541 3.03745 3.44768 3.14972 3.59644 3.14972C3.74521 3.14972 3.85748 3.04115 3.85748 2.89746ZM4.59578 2.89746C4.59578 2.75794 4.47935 2.64844 4.33059 2.64844C4.18182 2.64844 4.06955 2.75747 4.06955 2.89746C4.06955 3.03745 4.18182 3.14972 4.33059 3.14972C4.47935 3.14972 4.59578 3.04115 4.59578 2.89746ZM3.8852 4.02524C3.51328 4.02524 3.11179 4.28351 3.11179 4.70071C3.11179 5.16457 3.50034 5.37248 3.8852 5.37248H4.13377V4.02524H3.8852ZM3.94018 5.77859C3.02724 5.77859 2.70337 5.19784 2.70337 4.70025C2.70337 4.06313 3.24115 3.61821 4.01087 3.61821H4.13377V3.42878H4.54219V5.37155H7.30689V3.61774H7.71531V5.37155H10.2924V3.61774H10.6925V5.77813H3.94018V5.77859Z" fill="white"/>
<path d="M17.1931 7.14844H16.7846V10.3239H17.1931V7.14844ZM4.12544 8.57006V9.91729H3.87688C3.49202 9.91729 3.10346 9.70939 3.10346 9.24552C3.10346 8.82832 3.50495 8.57006 3.87688 8.57006H4.12544ZM13.6573 8.57006V9.91729H13.0571L13.0525 9.91452C12.785 9.75836 12.6316 9.51303 12.6316 9.24183C12.6316 8.80568 13.0146 8.57052 13.3745 8.57052H13.6573V8.57006ZM8.01422 9.51811C8.01422 9.93993 7.68989 10.2578 7.25929 10.2578C6.85133 10.2578 6.53161 9.93254 6.53161 9.51811C6.53161 9.10368 6.85133 8.77057 7.25929 8.77057C7.69682 8.77057 8.01422 9.08474 8.01422 9.51811ZM8.09369 10.3299L8.09969 10.3239H16.0172V7.14844H15.6088V9.91729H14.0657V8.16348H13.5002C12.7245 8.16348 12.2232 8.58669 12.2232 9.24183C12.2232 9.48854 12.3017 9.7043 12.456 9.8831L12.4856 9.91729H10.5428V8.16348H10.1344V9.91729H8.35334L8.36258 9.89003C8.40231 9.77453 8.42218 9.65071 8.42218 9.52227C8.42218 8.86205 7.92228 8.36446 7.25929 8.36446C6.5963 8.36446 6.12273 8.87314 6.12273 9.52227C6.12273 9.64609 6.1426 9.77037 6.18141 9.8905L6.19018 9.91775H4.5334V7.97452H4.12498V8.16395H4.00208C3.23237 8.16395 2.69458 8.60887 2.69458 9.24598C2.69458 9.76714 3.03832 10.3243 4.00208 10.3243H6.44152L6.44753 10.3303C6.66236 10.5489 6.95066 10.669 7.25883 10.669C7.56699 10.669 7.88024 10.5456 8.09322 10.3303M13.9594 7.59012C13.9594 7.4506 13.843 7.34156 13.6942 7.34156C13.5455 7.34156 13.4332 7.4506 13.4332 7.59012C13.4332 7.72965 13.5455 7.84238 13.6942 7.84238C13.843 7.84238 13.9594 7.73381 13.9594 7.59012ZM13.2216 7.59012C13.2216 7.4506 13.1065 7.34156 12.9601 7.34156C12.8136 7.34156 12.6991 7.4506 12.6991 7.59012C12.6991 7.72965 12.8113 7.84238 12.9601 7.84238C13.1089 7.84238 13.2216 7.73381 13.2216 7.59012ZM10.9425 10.8667C10.9425 10.7249 10.826 10.614 10.6773 10.614C10.5285 10.614 10.4162 10.7249 10.4162 10.8667C10.4162 11.0086 10.5285 11.1153 10.6773 11.1153C10.826 11.1153 10.9425 11.0109 10.9425 10.8667ZM10.2042 10.8667C10.2042 10.7249 10.0896 10.614 9.94313 10.614C9.79667 10.614 9.68209 10.7249 9.68209 10.8667C9.68209 11.0086 9.79436 11.1153 9.94313 11.1153C10.0919 11.1153 10.2042 11.0086 10.2042 10.8667ZM3.84916 7.44274C3.84916 7.30321 3.73458 7.19371 3.58812 7.19371C3.44166 7.19371 3.32708 7.30321 3.32708 7.44274C3.32708 7.58227 3.43935 7.695 3.58812 7.695C3.73689 7.695 3.84916 7.58643 3.84916 7.44274ZM4.32226 7.695C4.17303 7.695 4.06122 7.58643 4.06122 7.44274C4.06122 7.29905 4.1758 7.19371 4.32226 7.19371C4.46872 7.19371 4.58746 7.30321 4.58746 7.44274C4.58746 7.58227 4.47334 7.695 4.32226 7.695Z" fill="white"/>
<path d="M17.1929 11.6953H16.7844V14.8707H17.1929V11.6953ZM9.45873 13.3558H10.7501C10.9201 13.3558 11.0462 13.4043 11.1243 13.4995C11.195 13.5859 11.2269 13.6972 11.2269 13.8608V14.4642H9.4592V13.3558H9.45873ZM14.2739 14.065C14.2739 14.4868 13.9495 14.8047 13.5194 14.8047C13.0892 14.8047 12.7917 14.4799 12.7917 14.065C12.7917 13.6501 13.1114 13.3179 13.5194 13.3179C13.9569 13.3179 14.2739 13.6321 14.2739 14.065ZM14.3538 14.8767L14.3598 14.8707H16.0175V11.6953H15.6091V14.4642H14.6134L14.6227 14.4369C14.6624 14.3214 14.6823 14.1976 14.6823 14.0691C14.6823 13.4089 14.1824 12.9113 13.5194 12.9113C12.8564 12.9113 12.3833 13.42 12.3833 14.0691C12.3833 14.1934 12.4032 14.3172 12.442 14.4374L12.4507 14.4642H11.6357V13.8608C11.6357 13.5947 11.5651 13.3687 11.4366 13.2246C11.2675 13.0315 11.0624 12.9492 10.7505 12.9492H9.4592V12.7104H9.05077V14.4642H8.06761V11.6953H7.65918V14.8707H12.7021L12.7081 14.8767C12.9229 15.0953 13.2112 15.2154 13.5194 15.2154C13.8275 15.2154 14.1408 15.092 14.3538 14.8767ZM10.5662 12.3343C10.5662 12.1906 10.4479 12.0779 10.2973 12.0779C10.1467 12.0779 10.0284 12.1906 10.0284 12.3343C10.0284 12.478 10.1439 12.5907 10.2973 12.5907C10.4507 12.5907 10.5662 12.4803 10.5662 12.3343ZM6.56467 12.1333C6.56467 11.9896 6.4464 11.8769 6.29578 11.8769C6.14516 11.8769 6.02689 11.9896 6.02689 12.1333C6.02689 12.277 6.14239 12.3897 6.29578 12.3897C6.44917 12.3897 6.56467 12.2793 6.56467 12.1333ZM4.13355 13.1169V14.4637H3.88499C3.50013 14.4637 3.11157 14.2563 3.11157 13.7924C3.11157 13.3752 3.51306 13.1169 3.88499 13.1169H4.13355ZM6.63213 13.1169V14.4637H6.03197L6.02735 14.4609C5.75984 14.3048 5.60599 14.0594 5.60599 13.7882C5.60599 13.4625 5.86657 13.1169 6.34937 13.1169H6.63213ZM7.04055 14.8707V12.7104H6.47504C5.69932 12.7104 5.19757 13.1336 5.19757 13.7887C5.19757 14.0354 5.27611 14.2512 5.43043 14.43L5.45999 14.4642H4.54243V12.5214H4.13401V12.7108H4.01112C3.2414 12.7108 2.70361 13.1557 2.70361 13.7929C2.70361 14.314 3.04689 14.8712 4.01112 14.8712H7.04055V14.8707ZM3.85726 11.9896C3.85726 11.8501 3.74268 11.7411 3.59623 11.7411C3.44977 11.7411 3.33519 11.8501 3.33519 11.9896C3.33519 12.1291 3.44746 12.2423 3.59623 12.2423C3.74499 12.2423 3.85726 12.1338 3.85726 11.9896ZM4.33037 12.2419C4.18114 12.2419 4.06887 12.1333 4.06887 11.9892C4.06887 11.845 4.18391 11.7406 4.33037 11.7406C4.47683 11.7406 4.59556 11.8496 4.59556 11.9892C4.59556 12.1287 4.48145 12.2419 4.33037 12.2419Z" fill="white"/>
<path d="M17.6568 23.5014H2.23102C1.74544 23.5014 1.35181 23.1078 1.35181 22.6222V17.8011C1.35181 17.3155 1.74544 16.9219 2.23102 16.9219H17.6563C18.1419 16.9219 18.5355 17.3155 18.5355 17.8011V22.6222C18.5355 23.1078 18.1419 23.5014 17.6563 23.5014" fill="#D19E2C"/>
<path d="M5.12509 21.4359L6.16463 17.9297H7.62228C7.13856 19.3827 6.10133 22.4967 6.08932 22.4967H4.16041C4.14886 22.4967 3.11117 19.3827 2.62744 17.9297H4.0851L5.12463 21.4359H5.12509Z" fill="white"/>
<path d="M17.2571 17.9297H12.4263L12.7908 18.9771H14.3349V22.4953H15.72V18.9771H17.2599L17.2571 17.9297Z" fill="white"/>
<path d="M12.3592 19.6028L12.2118 19.2812C11.4536 19.7775 10.1965 21.2735 10.1965 21.2735L9.73538 20.7532L9.56813 21.3173L9.54688 21.4001C9.72244 21.6518 10.2039 22.4964 10.2039 22.4964C11.3132 20.4765 12.3596 19.6028 12.3596 19.6028" fill="#005E4B"/>
<path d="M10.0284 18.99L10.5029 20.5909C10.7921 20.2716 11.1733 19.8692 11.5387 19.5389C11.2375 18.6393 10.9982 17.9297 10.9926 17.9297H9.06373C9.05218 17.9297 8.01449 21.0437 7.53076 22.4967H8.98842L10.028 18.9905L10.0284 18.99Z" fill="white"/>
<path d="M10.8643 21.8045L11.068 22.4915H12.5257C12.3478 21.9574 12.0955 21.1988 11.8465 20.4531C11.5711 20.7793 11.2297 21.227 10.8643 21.8041" fill="white"/>
</g>
<defs>
<clipPath id="clip0_1833_356100">
<rect width="19.8879" height="24.9026" fill="white"/>
</clipPath>
</defs>
</svg>
