<svg width="20" height="20" viewBox="0 0 20 20" fill="none" xmlns="http://www.w3.org/2000/svg">
<g id="account-pin-box-line">
<path id="Vector" d="M11.6822 16.2714L10.2549 17.6987L8.82757 16.2714H5.25576C4.87816 16.2714 4.51603 16.1214 4.24903 15.8544C3.98203 15.5874 3.83203 15.2253 3.83203 14.8477V4.84951C3.83203 4.06307 4.46932 3.42578 5.25576 3.42578H15.254C16.0404 3.42578 16.6777 4.06307 16.6777 4.84951V14.8477C16.6777 15.2253 16.5277 15.5874 16.2607 15.8544C15.9937 16.1214 15.6316 16.2714 15.254 16.2714H11.6822ZM15.2504 14.8441V4.85308H5.25933V14.8441H9.41847L10.2549 15.6805L11.0913 14.8441H15.2504ZM7.38029 14.259C6.94138 14.0688 6.52274 13.835 6.13069 13.561C6.58333 12.8595 7.20471 12.2828 7.93793 11.8835C8.67115 11.4843 9.4928 11.2754 10.3277 11.2759C12.0404 11.2759 13.5512 12.1373 14.4511 13.4504C14.0666 13.7349 13.6544 13.9799 13.2208 14.1819C12.8903 13.7237 12.4556 13.3507 11.9526 13.0936C11.4495 12.8365 10.8926 12.7027 10.3277 12.7032C9.10375 12.7032 8.02257 13.3198 7.38029 14.259ZM10.2549 10.5623C9.92685 10.5623 9.60205 10.4977 9.29901 10.3721C8.99597 10.2466 8.72061 10.0626 8.48867 9.83068C8.25674 9.59874 8.07275 9.32339 7.94723 9.02035C7.8217 8.7173 7.7571 8.3925 7.7571 8.06449C7.7571 7.73648 7.8217 7.41168 7.94723 7.10864C8.07275 6.8056 8.25674 6.53024 8.48867 6.2983C8.72061 6.06637 8.99597 5.88238 9.29901 5.75686C9.60205 5.63133 9.92685 5.56673 10.2549 5.56673C10.9173 5.56673 11.5526 5.82988 12.0211 6.2983C12.4895 6.76673 12.7526 7.40204 12.7526 8.06449C12.7526 8.72694 12.4895 9.36226 12.0211 9.83068C11.5526 10.2991 10.9173 10.5623 10.2549 10.5623ZM10.2549 9.13496C10.5388 9.13496 10.811 9.02218 11.0118 8.82143C11.2126 8.62068 11.3253 8.3484 11.3253 8.06449C11.3253 7.78059 11.2126 7.50831 11.0118 7.30755C10.811 7.1068 10.5388 6.99402 10.2549 6.99402C9.97096 6.99402 9.69868 7.1068 9.49793 7.30755C9.29717 7.50831 9.18439 7.78059 9.18439 8.06449C9.18439 8.3484 9.29717 8.62068 9.49793 8.82143C9.69868 9.02218 9.97096 9.13496 10.2549 9.13496Z" fill="#5C5C5C"/>
</g>
</svg>
