<svg width="20" height="20" viewBox="0 0 20 20" fill="none" xmlns="http://www.w3.org/2000/svg">
<g id="calculator-line">
<path id="Vector" d="M4.54568 2.95703H15.964C16.1533 2.95703 16.3348 3.03222 16.4687 3.16605C16.6025 3.29989 16.6777 3.48141 16.6777 3.67068V16.5163C16.6777 16.7056 16.6025 16.8871 16.4687 17.021C16.3348 17.1548 16.1533 17.23 15.964 17.23H4.54568C4.35641 17.23 4.17489 17.1548 4.04105 17.021C3.90722 16.8871 3.83203 16.7056 3.83203 16.5163V3.67068C3.83203 3.48141 3.90722 3.29989 4.04105 3.16605C4.17489 3.03222 4.35641 2.95703 4.54568 2.95703ZM5.25933 4.38433V15.8027H15.2504V4.38433H5.25933ZM6.68662 5.81162H13.8231V8.66621H6.68662V5.81162ZM6.68662 10.0935H8.11392V11.5208H6.68662V10.0935ZM6.68662 12.9481H8.11392V14.3754H6.68662V12.9481ZM9.54122 10.0935H10.9685V11.5208H9.54122V10.0935ZM9.54122 12.9481H10.9685V14.3754H9.54122V12.9481ZM12.3958 10.0935H13.8231V14.3754H12.3958V10.0935Z" fill="#5C5C5C"/>
</g>
</svg>
