<svg width="20" height="20" viewBox="0 0 20 20" fill="none" xmlns="http://www.w3.org/2000/svg">
<g id="calendar-line">
<path id="Vector" d="M13.8234 3.54448H16.678C16.8672 3.54448 17.0488 3.61967 17.1826 3.75351C17.3164 3.88734 17.3916 4.06886 17.3916 4.25813V15.6765C17.3916 15.8658 17.3164 16.0473 17.1826 16.1811C17.0488 16.315 16.8672 16.3901 16.678 16.3901H3.8323C3.64303 16.3901 3.46151 16.315 3.32767 16.1811C3.19384 16.0473 3.11865 15.8658 3.11865 15.6765V4.25813C3.11865 4.06886 3.19384 3.88734 3.32767 3.75351C3.46151 3.61967 3.64303 3.54448 3.8323 3.54448H6.68689V2.11719H8.11419V3.54448H12.3961V2.11719H13.8234V3.54448ZM12.3961 4.97178H8.11419V6.39908H6.68689V4.97178H4.54595V7.82637H15.9643V4.97178H13.8234V6.39908H12.3961V4.97178ZM15.9643 9.25367H4.54595V14.9629H15.9643V9.25367Z" fill="#5C5C5C"/>
</g>
</svg>
