<svg width="20" height="20" viewBox="0 0 20 20" fill="none" xmlns="http://www.w3.org/2000/svg">
<g id="calendar-check-line">
<path id="Vector" d="M8.11419 2.05859V3.48589H12.3961V2.05859H13.8234V3.48589H16.678C16.8672 3.48589 17.0488 3.56108 17.1826 3.69491C17.3164 3.82875 17.3916 4.01027 17.3916 4.19954V15.6179C17.3916 15.8072 17.3164 15.9887 17.1826 16.1225C17.0488 16.2564 16.8672 16.3316 16.678 16.3316H3.8323C3.64303 16.3316 3.46151 16.2564 3.32767 16.1225C3.19384 15.9887 3.11865 15.8072 3.11865 15.6179V4.19954C3.11865 4.01027 3.19384 3.82875 3.32767 3.69491C3.46151 3.56108 3.64303 3.48589 3.8323 3.48589H6.68689V2.05859H8.11419ZM15.9643 8.48143H4.54595V14.9043H15.9643V8.48143ZM12.4218 9.29213L13.4309 10.3012L9.89831 13.8338L7.37485 11.3103L8.38537 10.3012L9.89902 11.8156L12.4225 9.29213H12.4218ZM6.68689 4.91319H4.54595V7.05413H15.9643V4.91319H13.8234V5.62683H12.3961V4.91319H8.11419V5.62683H6.68689V4.91319Z" fill="#5C5C5C"/>
</g>
</svg>
