<svg width="20" height="20" viewBox="0 0 20 20" fill="none" xmlns="http://www.w3.org/2000/svg">
<g id="global-line">
<path id="Vector" d="M10.2551 17.2886C6.31365 17.2886 3.11865 14.0936 3.11865 10.1521C3.11865 6.21063 6.31365 3.01562 10.2551 3.01562C14.1966 3.01562 17.3916 6.21063 17.3916 10.1521C17.3916 14.0936 14.1966 17.2886 10.2551 17.2886ZM8.62088 15.6236C7.9168 14.1302 7.50892 12.5144 7.41981 10.8658H4.59019C4.72906 11.964 5.18389 12.9982 5.89943 13.8429C6.61497 14.6875 7.56041 15.3062 8.62088 15.6236ZM8.84925 10.8658C8.95701 12.6063 9.45442 14.2413 10.2551 15.6843C11.0775 14.2032 11.5579 12.5567 11.661 10.8658H8.84925ZM15.9201 10.8658H13.0905C13.0013 12.5144 12.5935 14.1302 11.8894 15.6236C12.9499 15.3062 13.8953 14.6875 14.6108 13.8429C15.3264 12.9982 15.7812 11.964 15.9201 10.8658ZM4.59019 9.43846H7.41981C7.50892 7.78978 7.9168 6.17401 8.62088 4.68057C7.56041 4.99805 6.61497 5.6167 5.89943 6.46133C5.18389 7.30596 4.72906 8.34022 4.59019 9.43846ZM8.84996 9.43846H11.6603C11.5574 7.74754 11.0772 6.1011 10.2551 4.61991C9.43278 6.10105 8.95241 7.74748 8.84925 9.43846H8.84996ZM11.8894 4.68057C12.5935 6.17401 13.0013 7.78978 13.0905 9.43846H15.9201C15.7812 8.34022 15.3264 7.30596 14.6108 6.46133C13.8953 5.6167 12.9499 4.99805 11.8894 4.68057Z" fill="#5C5C5C"/>
</g>
</svg>
