<svg width="20" height="20" viewBox="0 0 20 20" fill="none" xmlns="http://www.w3.org/2000/svg">
<g id="map-pin-2-line">
<path id="Vector" d="M10.2549 18.4006L5.71321 13.859C4.81497 12.9607 4.20326 11.8163 3.95544 10.5704C3.70762 9.32446 3.83482 8.03305 4.32095 6.85943C4.80708 5.68582 5.63031 4.68271 6.68654 3.97697C7.74277 3.27122 8.98455 2.89453 10.2549 2.89453C11.5252 2.89453 12.767 3.27122 13.8232 3.97697C14.8794 4.68271 15.7026 5.68582 16.1888 6.85943C16.6749 8.03305 16.8021 9.32446 16.5543 10.5704C16.3065 11.8163 15.6948 12.9607 14.7965 13.859L10.2549 18.4006ZM13.7874 12.8499C14.486 12.1512 14.9617 11.2611 15.1544 10.2921C15.3472 9.32303 15.2482 8.31863 14.8701 7.40584C14.492 6.49306 13.8517 5.71289 13.0302 5.164C12.2087 4.6151 11.2429 4.32213 10.2549 4.32213C9.26686 4.32213 8.30105 4.6151 7.47955 5.164C6.65805 5.71289 6.01776 6.49306 5.63964 7.40584C5.26153 8.31863 5.16257 9.32303 5.35528 10.2921C5.54799 11.2611 6.02372 12.1512 6.72231 12.8499L10.2549 16.3824L13.7874 12.8499ZM10.2549 10.7446C9.87632 10.7446 9.51328 10.5942 9.24562 10.3266C8.97794 10.0589 8.82757 9.69585 8.82757 9.31731C8.82757 8.93876 8.97794 8.57573 9.24562 8.30806C9.51328 8.04039 9.87632 7.89001 10.2549 7.89001C10.6334 7.89001 10.9964 8.04039 11.2641 8.30806C11.5318 8.57573 11.6822 8.93876 11.6822 9.31731C11.6822 9.69585 11.5318 10.0589 11.2641 10.3266C10.9964 10.5942 10.6334 10.7446 10.2549 10.7446Z" fill="#5C5C5C"/>
</g>
</svg>
