<svg width="20" height="20" viewBox="0 0 20 20" fill="none" xmlns="http://www.w3.org/2000/svg">
<g id="account-pin-box-line">
<path id="Vector" d="M11.6831 16.289L10.2558 17.7163L8.82854 16.289H5.25674C4.87914 16.289 4.51701 16.139 4.25001 15.872C3.98301 15.605 3.83301 15.2429 3.83301 14.8653V4.86709C3.83301 4.08065 4.4703 3.44336 5.25674 3.44336H15.2549C16.0414 3.44336 16.6787 4.08065 16.6787 4.86709V14.8653C16.6787 15.2429 16.5287 15.605 16.2617 15.872C15.9947 16.139 15.6325 16.289 15.2549 16.289H11.6831ZM15.2514 14.8617V4.87066H5.2603V14.8617H9.41944L10.2558 15.6981L11.0922 14.8617H15.2514ZM7.38127 14.2765C6.94236 14.0864 6.52372 13.8526 6.13167 13.5786C6.58431 12.8771 7.20568 12.3003 7.93891 11.9011C8.67213 11.5019 9.49378 11.293 10.3286 11.2935C12.0414 11.2935 13.5522 12.1549 14.4521 13.468C14.0675 13.7524 13.6554 13.9975 13.2218 14.1995C12.8913 13.7413 12.4566 13.3683 11.9535 13.1112C11.4505 12.8541 10.8936 12.7203 10.3286 12.7208C9.10473 12.7208 8.02355 13.3374 7.38127 14.2765ZM10.2558 10.5798C9.92783 10.5798 9.60303 10.5152 9.29999 10.3897C8.99694 10.2642 8.72159 10.0802 8.48965 9.84826C8.25771 9.61632 8.07373 9.34097 7.9482 9.03793C7.82268 8.73488 7.75807 8.41008 7.75807 8.08207C7.75807 7.75406 7.82268 7.42926 7.9482 7.12622C8.07373 6.82317 8.25771 6.54782 8.48965 6.31588C8.72159 6.08394 8.99694 5.89996 9.29999 5.77443C9.60303 5.64891 9.92783 5.5843 10.2558 5.5843C10.9183 5.5843 11.5536 5.84746 12.022 6.31588C12.4905 6.78431 12.7536 7.41962 12.7536 8.08207C12.7536 8.74452 12.4905 9.37984 12.022 9.84826C11.5536 10.3167 10.9183 10.5798 10.2558 10.5798ZM10.2558 9.15254C10.5397 9.15254 10.812 9.03976 11.0128 8.83901C11.2135 8.63826 11.3263 8.36598 11.3263 8.08207C11.3263 7.79816 11.2135 7.52589 11.0128 7.32513C10.812 7.12438 10.5397 7.0116 10.2558 7.0116C9.97193 7.0116 9.69965 7.12438 9.4989 7.32513C9.29815 7.52589 9.18537 7.79816 9.18537 8.08207C9.18537 8.36598 9.29815 8.63826 9.4989 8.83901C9.69965 9.03976 9.97193 9.15254 10.2558 9.15254Z" fill="#5C5C5C"/>
</g>
</svg>
