<svg width="21" height="21" viewBox="0 0 21 21" fill="none" xmlns="http://www.w3.org/2000/svg">
<g id="add-circle-line">
<path id="Vector" d="M9.75 10V7H11.25V10H14.25V11.5H11.25V14.5H9.75V11.5H6.75V10H9.75ZM10.5 18.25C6.35775 18.25 3 14.8923 3 10.75C3 6.60775 6.35775 3.25 10.5 3.25C14.6423 3.25 18 6.60775 18 10.75C18 14.8923 14.6423 18.25 10.5 18.25ZM10.5 16.75C12.0913 16.75 13.6174 16.1179 14.7426 14.9926C15.8679 13.8674 16.5 12.3413 16.5 10.75C16.5 9.1587 15.8679 7.63258 14.7426 6.50736C13.6174 5.38214 12.0913 4.75 10.5 4.75C8.9087 4.75 7.38258 5.38214 6.25736 6.50736C5.13214 7.63258 4.5 9.1587 4.5 10.75C4.5 12.3413 5.13214 13.8674 6.25736 14.9926C7.38258 16.1179 8.9087 16.75 10.5 16.75Z" fill="#6CBC45"/>
</g>
</svg>
