<svg width="20" height="20" viewBox="0 0 20 20" fill="none" xmlns="http://www.w3.org/2000/svg">
<g id="calendar-check-line">
<path id="Vector" d="M8.11468 2.07617V3.50347H12.3966V2.07617H13.8239V3.50347H16.6785C16.8677 3.50347 17.0492 3.57866 17.1831 3.71249C17.3169 3.84633 17.3921 4.02784 17.3921 4.21712V15.6355C17.3921 15.8248 17.3169 16.0063 17.1831 16.1401C17.0492 16.2739 16.8677 16.3491 16.6785 16.3491H3.83279C3.64352 16.3491 3.462 16.2739 3.32816 16.1401C3.19433 16.0063 3.11914 15.8248 3.11914 15.6355V4.21712C3.11914 4.02784 3.19433 3.84633 3.32816 3.71249C3.462 3.57866 3.64352 3.50347 3.83279 3.50347H6.68738V2.07617H8.11468ZM15.9648 8.499H4.54644V14.9218H15.9648V8.499ZM12.4223 9.30971L13.4314 10.3188L9.8988 13.8514L7.37534 11.3279L8.38586 10.3188L9.89951 11.8332L12.423 9.30971H12.4223ZM6.68738 4.93076H4.54644V7.07171H15.9648V4.93076H13.8239V5.64441H12.3966V4.93076H8.11468V5.64441H6.68738V4.93076Z" fill="#5C5C5C"/>
</g>
</svg>
