<svg width="20" height="20" viewBox="0 0 20 20" fill="none" xmlns="http://www.w3.org/2000/svg">
<g id="calculator-line">
<path id="Vector" d="M4.54666 2.99805H15.965C16.1543 2.99805 16.3358 3.07323 16.4697 3.20707C16.6035 3.3409 16.6787 3.52242 16.6787 3.71169V16.5574C16.6787 16.7466 16.6035 16.9281 16.4697 17.062C16.3358 17.1958 16.1543 17.271 15.965 17.271H4.54666C4.35738 17.271 4.17587 17.1958 4.04203 17.062C3.9082 16.9281 3.83301 16.7466 3.83301 16.5574V3.71169C3.83301 3.52242 3.9082 3.3409 4.04203 3.20707C4.17587 3.07323 4.35738 2.99805 4.54666 2.99805ZM5.2603 4.42534V15.8437H15.2514V4.42534H5.2603ZM6.6876 5.85264H13.8241V8.70723H6.6876V5.85264ZM6.6876 10.1345H8.1149V11.5618H6.6876V10.1345ZM6.6876 12.9891H8.1149V14.4164H6.6876V12.9891ZM9.54219 10.1345H10.9695V11.5618H9.54219V10.1345ZM9.54219 12.9891H10.9695V14.4164H9.54219V12.9891ZM12.3968 10.1345H13.8241V14.4164H12.3968V10.1345Z" fill="#5C5C5C"/>
</g>
</svg>
