<svg width="20" height="20" viewBox="0 0 20 20" fill="none" xmlns="http://www.w3.org/2000/svg">
<g id="calendar-line">
<path id="Vector" d="M13.8239 3.56401H16.6785C16.8677 3.56401 17.0492 3.6392 17.1831 3.77304C17.3169 3.90687 17.3921 4.08839 17.3921 4.27766V15.696C17.3921 15.8853 17.3169 16.0668 17.1831 16.2007C17.0492 16.3345 16.8677 16.4097 16.6785 16.4097H3.83279C3.64352 16.4097 3.462 16.3345 3.32816 16.2007C3.19433 16.0668 3.11914 15.8853 3.11914 15.696V4.27766C3.11914 4.08839 3.19433 3.90687 3.32816 3.77304C3.462 3.6392 3.64352 3.56401 3.83279 3.56401H6.68738V2.13672H8.11468V3.56401H12.3966V2.13672H13.8239V3.56401ZM12.3966 4.99131H8.11468V6.41861H6.68738V4.99131H4.54644V7.8459H15.9648V4.99131H13.8239V6.41861H12.3966V4.99131ZM15.9648 9.2732H4.54644V14.9824H15.9648V9.2732Z" fill="#5C5C5C"/>
</g>
</svg>
