<svg width="20" height="21" viewBox="0 0 20 21" fill="none" xmlns="http://www.w3.org/2000/svg">
<g id="exchange-line">
<path id="Vector" d="M10 17.6562C5.85775 17.6562 2.5 14.2985 2.5 10.1562C2.5 6.014 5.85775 2.65625 10 2.65625C14.1423 2.65625 17.5 6.014 17.5 10.1562C17.5 14.2985 14.1423 17.6562 10 17.6562ZM10 16.1562C11.5913 16.1562 13.1174 15.5241 14.2426 14.3989C15.3679 13.2737 16 11.7475 16 10.1562C16 8.56495 15.3679 7.03883 14.2426 5.91361C13.1174 4.78839 11.5913 4.15625 10 4.15625C8.4087 4.15625 6.88258 4.78839 5.75736 5.91361C4.63214 7.03883 4 8.56495 4 10.1562C4 11.7475 4.63214 13.2737 5.75736 14.3989C6.88258 15.5241 8.4087 16.1562 10 16.1562ZM6.25 10.9062H13V12.4062H10V14.6562L6.25 10.9062ZM10 7.90625V5.65625L13.75 9.40625H7V7.90625H10Z" fill="#5C5C5C"/>
</g>
</svg>
