<svg width="20" height="20" viewBox="0 0 20 20" fill="none" xmlns="http://www.w3.org/2000/svg">
<g id="map-pin-2-line">
<path id="Vector" d="M10.2558 18.4319L5.71419 13.8902C4.81595 12.992 4.20424 11.8475 3.95642 10.6016C3.7086 9.35571 3.8358 8.0643 4.32193 6.89068C4.80806 5.71707 5.63129 4.71396 6.68752 4.00822C7.74374 3.30247 8.98553 2.92578 10.2558 2.92578C11.5262 2.92578 12.7679 3.30247 13.8242 4.00822C14.8804 4.71396 15.7036 5.71707 16.1898 6.89068C16.6759 8.0643 16.8031 9.35571 16.5553 10.6016C16.3074 11.8475 15.6957 12.992 14.7975 13.8902L10.2558 18.4319ZM13.7884 12.8811C14.487 12.1825 14.9627 11.2923 15.1554 10.3233C15.3481 9.35428 15.2492 8.34988 14.8711 7.43709C14.493 6.52431 13.8527 5.74414 13.0312 5.19525C12.2097 4.64635 11.2438 4.35338 10.2558 4.35338C9.26784 4.35338 8.30202 4.64635 7.48052 5.19525C6.65902 5.74414 6.01873 6.52431 5.64062 7.43709C5.2625 8.34988 5.16354 9.35428 5.35626 10.3233C5.54897 11.2923 6.0247 12.1825 6.72328 12.8811L10.2558 16.4137L13.7884 12.8811ZM10.2558 10.7759C9.8773 10.7759 9.51426 10.6255 9.24659 10.3578C8.97892 10.0901 8.82855 9.7271 8.82855 9.34856C8.82855 8.97001 8.97892 8.60698 9.24659 8.33931C9.51426 8.07164 9.8773 7.92126 10.2558 7.92126C10.6344 7.92126 10.9974 8.07164 11.2651 8.33931C11.5328 8.60698 11.6831 8.97001 11.6831 9.34856C11.6831 9.7271 11.5328 10.0901 11.2651 10.3578C10.9974 10.6255 10.6344 10.7759 10.2558 10.7759Z" fill="#5C5C5C"/>
</g>
</svg>
