<svg width="20" height="20" viewBox="0 0 20 20" fill="none" xmlns="http://www.w3.org/2000/svg">
<g id="pin-distance-line">
<path id="Vector" d="M8.48125 7.73183C8.84834 7.36471 9.09832 6.89698 9.19958 6.38779C9.30085 5.87859 9.24885 5.35081 9.05016 4.87117C8.85147 4.39153 8.51502 3.98157 8.08335 3.69315C7.65167 3.40472 7.14417 3.25077 6.625 3.25077C6.10584 3.25077 5.59833 3.40472 5.16666 3.69315C4.73498 3.98157 4.39853 4.39153 4.19984 4.87117C4.00116 5.35081 3.94916 5.87859 4.05042 6.38779C4.15169 6.89698 4.40167 7.36471 4.76875 7.73183L6.625 9.58808L8.48125 7.73183ZM6.625 11.7091L3.7075 8.79308C3.1308 8.21612 2.73813 7.48111 2.57912 6.68099C2.42011 5.88087 2.50192 5.05157 2.81418 4.29794C3.12645 3.5443 3.65517 2.90018 4.33348 2.44701C5.01179 1.99383 5.80924 1.75195 6.625 1.75195C7.44077 1.75195 8.23822 1.99383 8.91653 2.44701C9.59484 2.90018 10.1236 3.5443 10.4358 4.29794C10.7481 5.05157 10.8299 5.88087 10.6709 6.68099C10.5119 7.48111 10.1192 8.21612 9.5425 8.79308L6.625 11.7106V11.7091ZM6.625 7.00058C6.32663 7.00058 6.04048 6.88206 5.82951 6.67108C5.61853 6.4601 5.5 6.17395 5.5 5.87558C5.5 5.57722 5.61853 5.29107 5.82951 5.08009C6.04048 4.86911 6.32663 4.75058 6.625 4.75058C6.92337 4.75058 7.20952 4.86911 7.4205 5.08009C7.63148 5.29107 7.75 5.57722 7.75 5.87558C7.75 6.17395 7.63148 6.4601 7.4205 6.67108C7.20952 6.88206 6.92337 7.00058 6.625 7.00058ZM13.375 16.3381L15.2313 14.4818C15.5983 14.1147 15.8483 13.647 15.9496 13.1378C16.0508 12.6286 15.9988 12.1008 15.8002 11.6212C15.6015 11.1415 15.265 10.7316 14.8333 10.4431C14.4017 10.1547 13.8942 10.0008 13.375 10.0008C12.8558 10.0008 12.3483 10.1547 11.9167 10.4431C11.485 10.7316 11.1485 11.1415 10.9498 11.6212C10.7512 12.1008 10.6992 12.6286 10.8004 13.1378C10.9017 13.647 11.1517 14.1147 11.5188 14.4818L13.375 16.3381ZM16.2925 15.5431L13.375 18.4591L10.4575 15.5423C9.8808 14.9654 9.48813 14.2304 9.32912 13.4302C9.17011 12.6301 9.25192 11.8008 9.56418 11.0472C9.87645 10.2936 10.4052 9.64943 11.0835 9.19626C11.7618 8.74308 12.5592 8.5012 13.375 8.5012C14.1908 8.5012 14.9882 8.74308 15.6665 9.19626C16.3448 9.64943 16.8736 10.2936 17.1858 11.0472C17.4981 11.8008 17.5799 12.6301 17.4209 13.4302C17.2619 14.2304 16.8692 14.9654 16.2925 15.5423V15.5431ZM13.375 13.7506C13.0766 13.7506 12.7905 13.6321 12.5795 13.4211C12.3685 13.2101 12.25 12.924 12.25 12.6256C12.25 12.3272 12.3685 12.0411 12.5795 11.8301C12.7905 11.6191 13.0766 11.5006 13.375 11.5006C13.6734 11.5006 13.9595 11.6191 14.1705 11.8301C14.3815 12.0411 14.5 12.3272 14.5 12.6256C14.5 12.924 14.3815 13.2101 14.1705 13.4211C13.9595 13.6321 13.6734 13.7506 13.375 13.7506Z" fill="#5C5C5C"/>
</g>
</svg>
