<svg width="20" height="21" viewBox="0 0 20 21" fill="none" xmlns="http://www.w3.org/2000/svg">
<g id="store-2-line">
<path id="Vector" d="M16.75 11.6815V16.75H17.5V18.25H2.5V16.75H3.25V11.6815C2.78828 11.3733 2.40978 10.9559 2.14811 10.4663C1.88645 9.97674 1.74969 9.43012 1.75 8.875C1.75 8.25475 1.918 7.657 2.22475 7.14775L4.25875 3.625C4.32457 3.51099 4.41925 3.41631 4.53326 3.35049C4.64727 3.28466 4.7766 3.25 4.90825 3.25H15.0925C15.2241 3.25 15.3535 3.28466 15.4675 3.35049C15.5815 3.41631 15.6762 3.51099 15.742 3.625L17.7685 7.1365C18.2159 7.87965 18.3597 8.76665 18.1701 9.6131C17.9804 10.4596 17.4718 11.2004 16.75 11.6815ZM15.25 12.229C14.7343 12.2868 14.2123 12.2249 13.7244 12.048C13.2366 11.8711 12.7962 11.584 12.4375 11.209C12.1227 11.5383 11.7443 11.8004 11.3254 11.9794C10.9065 12.1585 10.4556 12.2508 10 12.2508C9.54451 12.251 9.0937 12.1589 8.67477 11.9801C8.25584 11.8013 7.87747 11.5395 7.5625 11.2105C7.20372 11.5853 6.76328 11.8723 6.27547 12.0491C5.78765 12.2259 5.26562 12.2877 4.75 12.2297V16.75H15.25V12.2297V12.229ZM5.34175 4.75L3.517 7.90975C3.33968 8.34786 3.33436 8.83677 3.5021 9.27864C3.66984 9.7205 3.99826 10.0827 4.42164 10.2928C4.84501 10.5029 5.33211 10.5453 5.78544 10.4116C6.23876 10.2779 6.62488 9.97795 6.8665 9.57175C7.11775 8.944 8.0065 8.944 8.2585 9.57175C8.39747 9.92006 8.6377 10.2187 8.94814 10.4291C9.25859 10.6395 9.62499 10.7519 10 10.7519C10.375 10.7519 10.7414 10.6395 11.0519 10.4291C11.3623 10.2187 11.6025 9.92006 11.7415 9.57175C11.9928 8.944 12.8815 8.944 13.1335 9.57175C13.2308 9.81134 13.3767 10.0282 13.5619 10.2087C13.747 10.3892 13.9676 10.5295 14.2096 10.6206C14.4515 10.7118 14.7098 10.7519 14.968 10.7385C15.2263 10.7251 15.479 10.6584 15.7102 10.5426C15.9414 10.4268 16.1462 10.2644 16.3117 10.0656C16.4771 9.8669 16.5997 9.63607 16.6716 9.38768C16.7435 9.13929 16.7633 8.8787 16.7297 8.62229C16.6961 8.36588 16.6098 8.1192 16.4762 7.89775L14.6575 4.75H5.3425H5.34175Z" fill="#5C5C5C"/>
</g>
</svg>
