<svg width="19" height="19" viewBox="0 0 19 19" fill="none" xmlns="http://www.w3.org/2000/svg">
<path d="M9.14489 6.51518H10.4821V13.2014H9.14489V6.51518ZM11.8194 9.18967H13.1566V13.2014H11.8194V9.18967ZM6.47039 10.5269H7.80764V13.2014H6.47039V10.5269ZM11.8194 4.50931H5.13315V15.2073H14.4939V7.1838H11.8194V4.50931ZM3.7959 3.83533C3.7959 3.46893 4.09477 3.17206 4.46385 3.17206H12.488L15.8311 6.51518V15.8712C15.8317 15.959 15.8151 16.0461 15.782 16.1275C15.749 16.2088 15.7003 16.2829 15.6386 16.3454C15.5769 16.4079 15.5036 16.4577 15.4227 16.4918C15.3418 16.526 15.255 16.5439 15.1672 16.5445H4.45984C4.28425 16.5433 4.11618 16.4731 3.99195 16.3489C3.86772 16.2248 3.7973 16.0568 3.7959 15.8813V3.83533Z" fill="#5C5C5C"/>
</svg>
