<svg width="188" height="93" viewBox="0 0 188 93" fill="none" xmlns="http://www.w3.org/2000/svg">
<mask id="path-1-outside-1_1833_355912" maskUnits="userSpaceOnUse" x="0.117401" y="-1.31177" width="188" height="96" fill="black">
<rect fill="white" x="0.117401" y="-1.31177" width="188" height="96"/>
<path d="M2.1174 92.8097C2.1174 80.7121 4.5002 68.733 9.12973 57.5563C13.7593 46.3796 20.5449 36.2242 29.0992 27.67C37.6534 19.1157 47.8088 12.3301 58.9855 7.70056C70.1622 3.07102 82.1413 0.688231 94.2389 0.688232C106.336 0.688234 118.316 3.07103 129.492 7.70057C140.669 12.3301 150.824 19.1157 159.379 27.67C167.933 36.2243 174.718 46.3797 179.348 57.5564C183.978 68.733 186.36 80.7121 186.36 92.8097H167.936C167.936 83.1317 166.03 73.5484 162.326 64.607C158.623 55.6657 153.194 47.5414 146.351 40.6979C139.507 33.8545 131.383 28.426 122.442 24.7224C113.5 21.0188 103.917 19.1125 94.2389 19.1125C84.5608 19.1125 74.9775 21.0188 66.0362 24.7224C57.0948 28.426 48.9705 33.8545 42.1271 40.6979C35.2837 47.5413 29.8552 55.6656 26.1516 64.607C22.4479 73.5484 20.5417 83.1316 20.5417 92.8097H2.1174Z"/>
</mask>
<path d="M2.1174 92.8097C2.1174 80.7121 4.5002 68.733 9.12973 57.5563C13.7593 46.3796 20.5449 36.2242 29.0992 27.67C37.6534 19.1157 47.8088 12.3301 58.9855 7.70056C70.1622 3.07102 82.1413 0.688231 94.2389 0.688232C106.336 0.688234 118.316 3.07103 129.492 7.70057C140.669 12.3301 150.824 19.1157 159.379 27.67C167.933 36.2243 174.718 46.3797 179.348 57.5564C183.978 68.733 186.36 80.7121 186.36 92.8097H167.936C167.936 83.1317 166.03 73.5484 162.326 64.607C158.623 55.6657 153.194 47.5414 146.351 40.6979C139.507 33.8545 131.383 28.426 122.442 24.7224C113.5 21.0188 103.917 19.1125 94.2389 19.1125C84.5608 19.1125 74.9775 21.0188 66.0362 24.7224C57.0948 28.426 48.9705 33.8545 42.1271 40.6979C35.2837 47.5413 29.8552 55.6656 26.1516 64.607C22.4479 73.5484 20.5417 83.1316 20.5417 92.8097H2.1174Z" fill="#EBEBEB"/>
<path d="M2.1174 92.8097C2.1174 80.7121 4.5002 68.733 9.12973 57.5563C13.7593 46.3796 20.5449 36.2242 29.0992 27.67C37.6534 19.1157 47.8088 12.3301 58.9855 7.70056C70.1622 3.07102 82.1413 0.688231 94.2389 0.688232C106.336 0.688234 118.316 3.07103 129.492 7.70057C140.669 12.3301 150.824 19.1157 159.379 27.67C167.933 36.2243 174.718 46.3797 179.348 57.5564C183.978 68.733 186.36 80.7121 186.36 92.8097H167.936C167.936 83.1317 166.03 73.5484 162.326 64.607C158.623 55.6657 153.194 47.5414 146.351 40.6979C139.507 33.8545 131.383 28.426 122.442 24.7224C113.5 21.0188 103.917 19.1125 94.2389 19.1125C84.5608 19.1125 74.9775 21.0188 66.0362 24.7224C57.0948 28.426 48.9705 33.8545 42.1271 40.6979C35.2837 47.5413 29.8552 55.6656 26.1516 64.607C22.4479 73.5484 20.5417 83.1316 20.5417 92.8097H2.1174Z" stroke="white" stroke-width="2.97166" mask="url(#path-1-outside-1_1833_355912)"/>
</svg>
