<svg width="96" height="93" viewBox="0 0 96 93" fill="none" xmlns="http://www.w3.org/2000/svg">
<mask id="path-1-outside-1_1833_355914" maskUnits="userSpaceOnUse" x="0.117401" y="-1.31177" width="96" height="96" fill="black">
<rect fill="white" x="0.117401" y="-1.31177" width="96" height="96"/>
<path d="M2.1174 92.8097C2.1174 68.3776 11.823 44.9461 29.0992 27.67C46.3753 10.3939 69.8067 0.688232 94.2389 0.688232V19.1125C74.6932 19.1125 55.948 26.877 42.1271 40.6979C28.3062 54.5188 20.5417 73.264 20.5417 92.8097H2.1174Z"/>
</mask>
<path d="M2.1174 92.8097C2.1174 68.3776 11.823 44.9461 29.0992 27.67C46.3753 10.3939 69.8067 0.688232 94.2389 0.688232V19.1125C74.6932 19.1125 55.948 26.877 42.1271 40.6979C28.3062 54.5188 20.5417 73.264 20.5417 92.8097H2.1174Z" fill="#335CFF"/>
<path d="M2.1174 92.8097C2.1174 68.3776 11.823 44.9461 29.0992 27.67C46.3753 10.3939 69.8067 0.688232 94.2389 0.688232V19.1125C74.6932 19.1125 55.948 26.877 42.1271 40.6979C28.3062 54.5188 20.5417 73.264 20.5417 92.8097H2.1174Z" stroke="white" stroke-width="2.97166" mask="url(#path-1-outside-1_1833_355914)"/>
</svg>
