<svg width="19" height="19" viewBox="0 0 19 19" fill="none" xmlns="http://www.w3.org/2000/svg">
<path d="M9.14525 6.51511H10.4825V13.2013H9.14525V6.51511ZM11.8197 9.18961H13.157V13.2013H11.8197V9.18961ZM6.47076 10.5269H7.80801V13.2013H6.47076V10.5269ZM11.8197 4.50924H5.13351V15.2072H14.4942V7.18374H11.8197V4.50924ZM3.79626 3.83527C3.79626 3.46887 4.09514 3.172 4.46422 3.172H12.4884L15.8315 6.51511V15.8712C15.8321 15.959 15.8154 16.046 15.7824 16.1274C15.7494 16.2088 15.7006 16.2828 15.639 16.3453C15.5773 16.4078 15.5039 16.4576 15.4231 16.4918C15.3422 16.526 15.2554 16.5439 15.1675 16.5445H4.46021C4.28461 16.5432 4.11655 16.473 3.99232 16.3489C3.86809 16.2248 3.79767 16.0568 3.79626 15.8812V3.83527Z" fill="#5C5C5C"/>
</svg>
