<svg width="19" height="19" viewBox="0 0 19 19" fill="none" xmlns="http://www.w3.org/2000/svg">
<path d="M9.80162 16.5445C6.10881 16.5445 3.11539 13.551 3.11539 9.85823C3.11539 6.86414 5.08315 4.33005 7.79575 3.47823V4.89838C6.64634 5.36511 5.6948 6.21671 5.10391 7.30751C4.51302 8.39831 4.3195 9.66053 4.55644 10.8782C4.79338 12.096 5.44607 13.1935 6.40285 13.9832C7.35963 14.7728 8.56106 15.2055 9.80162 15.2072C10.8673 15.2072 11.9086 14.889 12.7923 14.2934C13.6759 13.6978 14.3616 12.8519 14.7615 11.8641H16.1816C15.3298 14.5767 12.7957 16.5445 9.80162 16.5445ZM16.4544 10.5269H9.133V3.20543C9.35298 3.18336 9.5763 3.172 9.80162 3.172C13.4944 3.172 16.4879 6.16542 16.4879 9.85823C16.4879 10.0836 16.4765 10.3069 16.4544 10.5269ZM10.4702 4.5507V9.18961H15.1092C14.9603 8.01123 14.4237 6.91584 13.5839 6.07599C12.744 5.23613 11.6486 4.69952 10.4702 4.5507Z" fill="#5C5C5C"/>
</svg>
