<svg width="16" height="16" viewBox="0 0 16 16" fill="none" xmlns="http://www.w3.org/2000/svg">
<path d="M9.28272 12.5433C9.12764 12.9634 9.02552 13.4207 8.98581 13.8988L12.2576 13.0447C12.4126 12.6245 12.5148 12.1673 12.5545 11.6891L9.28272 12.5433ZM12.2595 10.4891C12.4145 10.0689 12.5167 9.61167 12.5564 9.13351L10.007 9.79969V8.52073L12.2595 7.93116C12.4145 7.51103 12.5167 7.05376 12.5564 6.5756L10.007 7.23945V2.63892C9.61557 2.90817 9.26948 3.26563 8.9877 3.68808V7.50406L7.96645 7.771V2.01221C7.57497 2.28146 7.22889 2.63892 6.9471 3.06137V8.03561L4.66632 8.63214C4.51124 9.05227 4.40912 9.50954 4.3694 9.9877L6.9471 9.31456V10.9254L4.18406 11.645C4.03088 12.0675 3.92875 12.5247 3.88904 13.0029L6.78067 12.2485C7.01518 12.1882 7.21754 12.0187 7.34992 11.782L7.87946 10.8164C7.9343 10.7165 7.96645 10.5958 7.96645 10.4659V9.04763L8.98581 8.7807V11.3433L12.2595 10.4891Z" fill="#5C5C5C"/>
</svg>
