<svg width="19" height="19" viewBox="0 0 19 19" fill="none" xmlns="http://www.w3.org/2000/svg">
<path d="M5.6304 3.08704H12.9853C13.0891 3.08704 13.1914 3.1112 13.2843 3.15762C13.3771 3.20405 13.4579 3.27145 13.5202 3.35449L15.3254 5.76153V15.7909C15.3254 15.9682 15.255 16.1383 15.1296 16.2637C15.0042 16.3891 14.8342 16.4595 14.6568 16.4595H3.95885C3.78152 16.4595 3.61145 16.3891 3.48606 16.2637C3.36067 16.1383 3.29022 15.9682 3.29022 15.7909V5.76153L5.09551 3.35449C5.15779 3.27145 5.23854 3.20405 5.33139 3.15762C5.42423 3.1112 5.5266 3.08704 5.6304 3.08704ZM13.9882 7.09878H4.62747V15.1223H13.9882V7.09878ZM13.6539 5.76153L12.651 4.42428H5.96472L4.96178 5.76153H13.6539ZM7.30196 8.43602V9.77327C7.30196 10.3053 7.5133 10.8155 7.88947 11.1916C8.26564 11.5678 8.77584 11.7791 9.30783 11.7791C9.83982 11.7791 10.35 11.5678 10.7262 11.1916C11.1024 10.8155 11.3137 10.3053 11.3137 9.77327V8.43602H12.651V9.77327C12.651 10.6599 12.2987 11.5103 11.6718 12.1372C11.0448 12.7642 10.1945 13.1164 9.30783 13.1164C8.42118 13.1164 7.57085 12.7642 6.94389 12.1372C6.31694 11.5103 5.96472 10.6599 5.96472 9.77327V8.43602H7.30196Z" fill="#5C5C5C"/>
</svg>
