<svg width="16" height="15" viewBox="0 0 16 15" fill="none" xmlns="http://www.w3.org/2000/svg">
<path d="M13.3628 8.16171V11.9272H13.92V13.0416H2.77627V11.9272H3.33346V8.16171C2.99044 7.93276 2.70925 7.62266 2.51485 7.25894C2.32045 6.89522 2.21886 6.48913 2.21909 6.07672C2.21909 5.61593 2.3439 5.17185 2.57178 4.79352L4.08287 2.17642C4.13178 2.09172 4.20211 2.02138 4.28681 1.97248C4.37151 1.92358 4.46759 1.89783 4.5654 1.89783H12.1314C12.2292 1.89783 12.3253 1.92358 12.41 1.97248C12.4947 2.02138 12.5651 2.09172 12.614 2.17642L14.1195 4.78517C14.4519 5.33727 14.5587 5.99623 14.4178 6.62507C14.2769 7.25392 13.899 7.80427 13.3628 8.16171ZM12.2484 8.56846C11.8653 8.61144 11.4775 8.56542 11.1151 8.43399C10.7527 8.30255 10.4255 8.08925 10.159 7.81069C9.92509 8.05533 9.64404 8.25004 9.3328 8.38306C9.02157 8.51607 8.6866 8.58464 8.34813 8.58462C8.00975 8.58479 7.67483 8.51639 7.3636 8.38357C7.05237 8.25075 6.77128 8.05624 6.53728 7.8118C6.27074 8.09027 5.94353 8.30346 5.58112 8.4348C5.21872 8.56613 4.83089 8.61207 4.44783 8.56902V11.9272H12.2484V8.56902V8.56846ZM4.88745 3.0122L3.53182 5.35963C3.40009 5.6851 3.39613 6.04832 3.52075 6.37659C3.64536 6.70486 3.88935 6.97396 4.20388 7.13002C4.51842 7.28609 4.88029 7.31762 5.21707 7.2183C5.55386 7.11897 5.8407 6.89612 6.02021 6.59435C6.20687 6.12799 6.86713 6.12799 7.05435 6.59435C7.15759 6.85312 7.33606 7.07498 7.5667 7.23127C7.79733 7.38757 8.06953 7.47111 8.34813 7.47111C8.62674 7.47111 8.89894 7.38757 9.12957 7.23127C9.36021 7.07498 9.53868 6.85312 9.64192 6.59435C9.82858 6.12799 10.4888 6.12799 10.6761 6.59435C10.7484 6.77234 10.8567 6.93345 10.9943 7.06755C11.1319 7.20166 11.2957 7.30585 11.4755 7.37359C11.6553 7.44132 11.8471 7.47114 12.039 7.46116C12.2308 7.45117 12.4185 7.40161 12.5903 7.31559C12.7621 7.22956 12.9142 7.10893 13.0372 6.96128C13.1601 6.81362 13.2511 6.64214 13.3046 6.4576C13.358 6.27307 13.3727 6.07947 13.3477 5.88898C13.3228 5.69849 13.2587 5.51523 13.1594 5.35071L11.8083 3.0122H4.88801H4.88745Z" fill="#335CFF"/>
</svg>
