<svg width="16" height="15" viewBox="0 0 16 15" fill="none" xmlns="http://www.w3.org/2000/svg">
<path d="M13.7297 11.9272V13.0416H2.586V11.9272H3.14318V8.16171C2.80016 7.93276 2.51897 7.62266 2.32457 7.25894C2.13018 6.89522 2.02858 6.48913 2.02881 6.07672C2.02881 5.61593 2.15362 5.17185 2.38151 4.79352L3.8926 2.17642C3.9415 2.09172 4.01183 2.02138 4.09654 1.97248C4.18124 1.92358 4.27732 1.89783 4.37512 1.89783H11.9412C12.039 1.89783 12.135 1.92358 12.2197 1.97248C12.3044 2.02138 12.3748 2.09172 12.4237 2.17642L13.9292 4.78517C14.2616 5.33727 14.3684 5.99623 14.2275 6.62507C14.0866 7.25392 13.7088 7.80427 13.1725 8.16171V11.9272H13.7297ZM4.69717 3.0122L3.34154 5.35963C3.20981 5.6851 3.20585 6.04832 3.33047 6.37659C3.45508 6.70486 3.69907 6.97396 4.01361 7.13002C4.32814 7.28609 4.69001 7.31762 5.02679 7.2183C5.36358 7.11897 5.65043 6.89612 5.82993 6.59435C6.01659 6.12799 6.67686 6.12799 6.86407 6.59435C6.96732 6.85312 7.14578 7.07498 7.37642 7.23127C7.60705 7.38757 7.87925 7.47111 8.15786 7.47111C8.43646 7.47111 8.70866 7.38757 8.9393 7.23127C9.16993 7.07498 9.3484 6.85312 9.45164 6.59435C9.6383 6.12799 10.2986 6.12799 10.4858 6.59435C10.5581 6.77234 10.6664 6.93345 10.804 7.06755C10.9416 7.20166 11.1054 7.30585 11.2852 7.37359C11.465 7.44132 11.6568 7.47114 11.8487 7.46116C12.0405 7.45117 12.2283 7.40161 12.4001 7.31559C12.5718 7.22956 12.724 7.10893 12.8469 6.96128C12.9698 6.81362 13.0608 6.64214 13.1143 6.4576C13.1677 6.27307 13.1824 6.07947 13.1575 5.88898C13.1325 5.69849 13.0684 5.51523 12.9692 5.35071L11.618 3.0122H4.69773H4.69717Z" fill="#5C5C5C"/>
</svg>
