<svg width="16" height="16" viewBox="0 0 16 16" fill="none" xmlns="http://www.w3.org/2000/svg">
<path d="M12.5 6V8H11.5V6.5H9V4H4.5V12H7.5V13H3.9967C3.72248 13 3.5 12.778 3.5 12.5041V3.4959C3.5 3.22766 3.72435 3 4.00111 3H9.4984L12.5 6ZM8.89285 9.66345C8.9123 9.29985 9.1929 9.00415 9.555 8.96565L9.99035 8.91945C10.042 8.91395 10.0907 8.89225 10.1294 8.8575L10.4551 8.56495C10.726 8.32155 11.1335 8.3109 11.4167 8.53975L11.7572 8.8149C11.7977 8.84755 11.8474 8.86665 11.8994 8.86945L12.3365 8.89285C12.7001 8.9123 12.9959 9.1929 13.0344 9.555L13.0806 9.99035C13.0861 10.042 13.1077 10.0907 13.1425 10.1294L13.4351 10.4551C13.6784 10.726 13.6891 11.1335 13.4602 11.4167L13.1851 11.7572C13.1524 11.7977 13.1334 11.8474 13.1306 11.8994L13.1072 12.3365C13.0877 12.7001 12.8071 12.9959 12.445 13.0344L12.0097 13.0806C11.958 13.0861 11.9093 13.1077 11.8706 13.1425L11.5449 13.4351C11.274 13.6784 10.8665 13.6891 10.5833 13.4602L10.2428 13.1851C10.2023 13.1524 10.1526 13.1334 10.1006 13.1306L9.66345 13.1072C9.29985 13.0877 9.00415 12.8071 8.96565 12.445L8.91945 12.0097C8.91395 11.958 8.89225 11.9093 8.8575 11.8706L8.56495 11.5449C8.32155 11.274 8.3109 10.8665 8.53975 10.5833L8.8149 10.2428C8.84755 10.2023 8.86665 10.1526 8.86945 10.1006L8.89285 9.66345ZM12.5152 10.5152L11.9848 9.98485L10.75 11.2197L10.0152 10.4848L9.48485 11.0152L10.75 12.2803L12.5152 10.5152Z" fill="#1FC16B"/>
</svg>
