<svg width="16" height="16" viewBox="0 0 16 16" fill="none" xmlns="http://www.w3.org/2000/svg">
<path d="M4.69961 2H11.2996C11.3928 2 11.4846 2.02169 11.5679 2.06334C11.6513 2.105 11.7237 2.16548 11.7796 2.24L13.3996 4.4V13.4C13.3996 13.5591 13.3364 13.7117 13.2239 13.8243C13.1114 13.9368 12.9587 14 12.7996 14H3.19961C3.04048 14 2.88787 13.9368 2.77535 13.8243C2.66282 13.7117 2.59961 13.5591 2.59961 13.4V4.4L4.21961 2.24C4.2755 2.16548 4.34797 2.105 4.43128 2.06334C4.51459 2.02169 4.60646 2 4.69961 2ZM12.1996 5.6H3.79961V12.8H12.1996V5.6ZM11.8996 4.4L10.9996 3.2H4.99961L4.09961 4.4H11.8996ZM6.19961 6.8V8C6.19961 8.47739 6.38925 8.93523 6.72682 9.27279C7.06438 9.61036 7.52222 9.8 7.99961 9.8C8.477 9.8 8.93484 9.61036 9.2724 9.27279C9.60997 8.93523 9.79961 8.47739 9.79961 8V6.8H10.9996V8C10.9996 8.79565 10.6835 9.55871 10.1209 10.1213C9.55832 10.6839 8.79526 11 7.99961 11C7.20396 11 6.4409 10.6839 5.87829 10.1213C5.31568 9.55871 4.99961 8.79565 4.99961 8V6.8H6.19961Z" fill="#47C2FF"/>
</svg>
