<svg width="20" height="20" viewBox="0 0 20 20" fill="none" xmlns="http://www.w3.org/2000/svg">
<path d="M2.5 3.99475C2.50137 3.79778 2.58018 3.60926 2.71938 3.46991C2.85859 3.33056 3.04704 3.25157 3.244 3.25H16.756C17.167 3.25 17.5 3.58375 17.5 3.99475V16.0052C17.4986 16.2022 17.4198 16.3907 17.2806 16.5301C17.1414 16.6694 16.953 16.7484 16.756 16.75H3.244C3.04661 16.7498 2.85737 16.6712 2.71787 16.5316C2.57836 16.392 2.5 16.2026 2.5 16.0052V3.99475ZM9.25 4.75H4V15.25H9.25V4.75ZM10.75 4.75V15.25H16V4.75H10.75ZM11.5 6.25H15.25V7.75H11.5V6.25ZM11.5 8.5H15.25V10H11.5V8.5Z" fill="#171717"/>
</svg>
