<svg width="20" height="21" viewBox="0 0 20 21" fill="none" xmlns="http://www.w3.org/2000/svg">
<path d="M10.75 10.5H13L10 13.5L7 10.5H9.25V7.5H10.75V10.5ZM12.25 4.5H4.75V16.5H15.25V7.5H12.25V4.5ZM3.25 3.744C3.25 3.333 3.58525 3 3.99925 3H13L16.75 6.75V17.2448C16.7507 17.3432 16.732 17.4409 16.6949 17.5322C16.6579 17.6234 16.6032 17.7065 16.534 17.7766C16.4649 17.8468 16.3826 17.9026 16.2919 17.9409C16.2011 17.9792 16.1037 17.9993 16.0052 18H3.99475C3.79778 17.9986 3.60926 17.9198 3.46991 17.7806C3.33056 17.6414 3.25157 17.453 3.25 17.256V3.744Z" fill="#A4A4A4"/>
</svg>
