<svg width="20" height="21" viewBox="0 0 20 21" fill="none" xmlns="http://www.w3.org/2000/svg">
<path fill-rule="evenodd" clip-rule="evenodd" d="M10 16.75C13.4518 16.75 16.25 13.9518 16.25 10.5C16.25 7.04822 13.4518 4.25 10 4.25C6.54822 4.25 3.75 7.04822 3.75 10.5C3.75 13.9518 6.54822 16.75 10 16.75ZM11.1158 13.7086L11.2156 13.3006C11.164 13.3249 11.0807 13.3526 10.9665 13.3841C10.852 13.4157 10.7489 13.4318 10.6583 13.4318C10.4654 13.4318 10.3295 13.4001 10.2507 13.3366C10.1724 13.273 10.1333 13.1534 10.1333 12.9783C10.1333 12.9089 10.1451 12.8054 10.1697 12.67C10.1936 12.5337 10.2211 12.4126 10.2516 12.3067L10.6242 10.9876C10.6607 10.8665 10.6857 10.7334 10.6992 10.5882C10.7129 10.4432 10.7193 10.3418 10.7193 10.2843C10.7193 10.0061 10.6218 9.78041 10.4268 9.60629C10.2317 9.43229 9.95393 9.34529 9.59396 9.34529C9.39365 9.34529 9.18188 9.38088 8.95776 9.452C8.73363 9.52294 8.49933 9.6084 8.25421 9.7082L8.15415 10.1165C8.22719 10.0895 8.31419 10.0604 8.41598 10.0303C8.51732 10.0004 8.61674 9.98489 8.71347 9.98489C8.91096 9.98489 9.04399 10.0186 9.1137 10.0849C9.18342 10.1514 9.21844 10.2697 9.21844 10.4388C9.21844 10.5324 9.20736 10.6363 9.18438 10.7492C9.16172 10.8628 9.13342 10.983 9.10013 11.1098L8.72595 12.4342C8.69266 12.5734 8.66834 12.6979 8.65304 12.8084C8.63786 12.9189 8.63057 13.0272 8.63057 13.1326C8.63057 13.4048 8.73114 13.6292 8.93222 13.8063C9.13329 13.9826 9.41523 14.0714 9.77769 14.0714C10.0137 14.0714 10.2209 14.0406 10.3992 13.9785C10.5773 13.9167 10.8164 13.8268 11.1158 13.7086ZM11.0495 8.3502C11.2235 8.18882 11.3101 7.99254 11.3101 7.76272C11.3101 7.53341 11.2236 7.33675 11.0495 7.17331C10.8758 7.01032 10.6666 6.92857 10.4219 6.92857C10.1765 6.92857 9.96635 7.01013 9.79107 7.17331C9.61579 7.33675 9.52796 7.53334 9.52796 7.76272C9.52796 7.99254 9.61579 8.18875 9.79107 8.3502C9.96667 8.51217 10.1764 8.59321 10.4219 8.59321C10.6666 8.59321 10.8758 8.51217 11.0495 8.3502Z" fill="#D1D1D1"/>
</svg>
