<svg width="16" height="16" viewBox="0 0 16 16" fill="none" xmlns="http://www.w3.org/2000/svg">
<path d="M7.99957 2C8.1587 2 8.31132 2.06321 8.42384 2.17574C8.53636 2.28826 8.59957 2.44087 8.59957 2.6V4.4C8.59957 4.55913 8.53636 4.71174 8.42384 4.82426C8.31132 4.93679 8.1587 5 7.99957 5C7.84044 5 7.68783 4.93679 7.57531 4.82426C7.46279 4.71174 7.39957 4.55913 7.39957 4.4V2.6C7.39957 2.44087 7.46279 2.28826 7.57531 2.17574C7.68783 2.06321 7.84044 2 7.99957 2ZM7.99957 11C8.1587 11 8.31132 11.0632 8.42384 11.1757C8.53636 11.2883 8.59957 11.4409 8.59957 11.6V13.4C8.59957 13.5591 8.53636 13.7117 8.42384 13.8243C8.31132 13.9368 8.1587 14 7.99957 14C7.84044 14 7.68783 13.9368 7.57531 13.8243C7.46279 13.7117 7.39957 13.5591 7.39957 13.4V11.6C7.39957 11.4409 7.46279 11.2883 7.57531 11.1757C7.68783 11.0632 7.84044 11 7.99957 11ZM13.1956 5C13.2751 5.13781 13.2967 5.30158 13.2555 5.45528C13.2143 5.60898 13.1138 5.74003 12.976 5.8196L11.4172 6.7196C11.3489 6.75962 11.2734 6.78574 11.195 6.79646C11.1166 6.80718 11.0369 6.80228 10.9604 6.78206C10.8839 6.76183 10.8121 6.72668 10.7493 6.67861C10.6864 6.63055 10.6337 6.57052 10.5941 6.502C10.5546 6.43347 10.5289 6.35779 10.5187 6.27933C10.5085 6.20086 10.514 6.12115 10.5347 6.04478C10.5554 5.96842 10.5911 5.89691 10.6395 5.83438C10.688 5.77184 10.7484 5.71951 10.8172 5.6804L12.376 4.7804C12.5138 4.70084 12.6775 4.67928 12.8313 4.72046C12.985 4.76164 13.116 4.8622 13.1956 5ZM5.40157 9.5C5.48113 9.63781 5.5027 9.80158 5.46151 9.95528C5.42033 10.109 5.31978 10.24 5.18197 10.3196L3.62317 11.2196C3.55491 11.2596 3.47941 11.2857 3.40101 11.2965C3.32261 11.3072 3.24287 11.3023 3.16637 11.2821C3.08987 11.2618 3.01812 11.2267 2.95527 11.1786C2.89241 11.1305 2.83968 11.0705 2.80012 11.002C2.76055 10.9335 2.73493 10.8578 2.72473 10.7793C2.71453 10.7009 2.71996 10.6211 2.74069 10.5448C2.76142 10.4684 2.79705 10.3969 2.84553 10.3344C2.89401 10.2718 2.95439 10.2195 3.02317 10.1804L4.58197 9.2804C4.71978 9.20084 4.88355 9.17928 5.03725 9.22046C5.19096 9.26164 5.32201 9.3622 5.40157 9.5ZM13.1956 11C13.116 11.1378 12.985 11.2384 12.8313 11.2795C12.6775 11.3207 12.5138 11.2992 12.376 11.2196L10.8172 10.3196C10.6805 10.2395 10.581 10.1085 10.5406 9.95535C10.5001 9.80217 10.5218 9.6392 10.601 9.50198C10.6802 9.36477 10.8105 9.26446 10.9634 9.22295C11.1163 9.18144 11.2794 9.20209 11.4172 9.2804L12.976 10.1804C13.1138 10.26 13.2143 10.391 13.2555 10.5447C13.2967 10.6984 13.2751 10.8622 13.1956 11ZM5.40157 6.5C5.32201 6.6378 5.19096 6.73836 5.03725 6.77954C4.88355 6.82072 4.71978 6.79916 4.58197 6.7196L3.02317 5.8196C2.95439 5.78049 2.89401 5.72816 2.84553 5.66562C2.79705 5.60309 2.76142 5.53158 2.74069 5.45522C2.71996 5.37885 2.71453 5.29914 2.72473 5.22067C2.73493 5.14221 2.76055 5.06653 2.80012 4.998C2.83968 4.92948 2.89241 4.86945 2.95527 4.82139C3.01812 4.77332 3.08987 4.73817 3.16637 4.71794C3.24287 4.69772 3.32261 4.69282 3.40101 4.70354C3.47941 4.71426 3.55491 4.74038 3.62317 4.7804L5.18197 5.6804C5.31978 5.75997 5.42033 5.89102 5.46151 6.04472C5.5027 6.19842 5.48113 6.36219 5.40157 6.5Z" fill="#262626"/>
</svg>
