<svg width="21" height="20" viewBox="0 0 21 20" fill="none" xmlns="http://www.w3.org/2000/svg">
<path d="M10.5 3.25C9.88125 3.25 9.375 3.75625 9.375 4.375C9.375 4.99375 9.88125 5.5 10.5 5.5C11.1187 5.5 11.625 4.99375 11.625 4.375C11.625 3.75625 11.1187 3.25 10.5 3.25ZM10.5 14.5C9.88125 14.5 9.375 15.0063 9.375 15.625C9.375 16.2437 9.88125 16.75 10.5 16.75C11.1187 16.75 11.625 16.2437 11.625 15.625C11.625 15.0063 11.1187 14.5 10.5 14.5ZM10.5 8.875C9.88125 8.875 9.375 9.38125 9.375 10C9.375 10.6188 9.88125 11.125 10.5 11.125C11.1187 11.125 11.625 10.6188 11.625 10C11.625 9.38125 11.1187 8.875 10.5 8.875Z" fill="#5C5C5C"/>
</svg>
