<svg width="20" height="20" viewBox="0 0 20 20" fill="none" xmlns="http://www.w3.org/2000/svg">
<path d="M8.75456 3.81485C7.87858 3.53129 6.92631 3.92572 6.50741 4.74566L6.00379 5.73139C5.94396 5.84852 5.8487 5.94377 5.73158 6.00361L4.74584 6.50722C3.92591 6.92613 3.53147 7.8784 3.81504 8.75437L4.15595 9.8075C4.19645 9.93262 4.19645 10.0674 4.15595 10.1925L3.81504 11.2456C3.53147 12.1216 3.92591 13.0739 4.74584 13.4928L5.73158 13.9964C5.8487 14.0562 5.94396 14.1515 6.00379 14.2686L6.50741 15.2544C6.92631 16.0743 7.87858 16.4688 8.75456 16.1852L9.80768 15.8442C9.93281 15.8038 10.0676 15.8038 10.1927 15.8442L11.2458 16.1852C12.1218 16.4688 13.0741 16.0743 13.493 15.2544L13.9966 14.2686C14.0564 14.1515 14.1517 14.0562 14.2688 13.9964L15.2546 13.4928C16.0745 13.0739 16.4689 12.1216 16.1854 11.2456L15.8444 10.1925C15.8039 10.0674 15.8039 9.93262 15.8444 9.8075L16.1854 8.75437C16.4689 7.8784 16.0745 6.92613 15.2546 6.50722L14.2688 6.00361C14.1517 5.94377 14.0564 5.84852 13.9966 5.73139L13.493 4.74566C13.0741 3.92572 12.1218 3.53129 11.2458 3.81485L10.1927 4.15577C10.0676 4.19627 9.93281 4.19627 9.80768 4.15577L8.75456 3.81485ZM7.62054 5.31437C7.76018 5.04105 8.07761 4.90957 8.3696 5.0041L9.42275 5.34501C9.79812 5.46652 10.2022 5.46652 10.5776 5.34501L11.6308 5.0041C11.9227 4.90957 12.2402 5.04106 12.3798 5.31436L12.8834 6.3001C13.0629 6.65146 13.3487 6.93724 13.7001 7.11675L14.6858 7.62036C14.9591 7.76 15.0906 8.07742 14.9961 8.36942L14.6552 9.42256C14.5337 9.79794 14.5337 10.2021 14.6552 10.5774L14.9961 11.6306C15.0906 11.9226 14.9591 12.24 14.6858 12.3796L13.7001 12.8832C13.3487 13.0627 13.0629 13.3486 12.8834 13.6999L12.3798 14.6856C12.2402 14.9589 11.9227 15.0904 11.6308 14.9959L10.5776 14.655C10.2022 14.5335 9.79812 14.5335 9.42275 14.655L8.3696 14.9959C8.07761 15.0904 7.76018 14.9589 7.62054 14.6856L7.11693 13.6999C6.93742 13.3486 6.65164 13.0627 6.30028 12.8832L5.31455 12.3796C5.04124 12.24 4.90976 11.9226 5.00428 11.6306L5.34519 10.5774C5.46671 10.2021 5.46671 9.79794 5.34519 9.42256L5.00428 8.36942C4.90976 8.07742 5.04124 7.76 5.31455 7.62036L6.30028 7.11675C6.65164 6.93724 6.93742 6.65146 7.11693 6.3001L7.62054 5.31437ZM6.72493 9.84837L9.37656 12.5L13.796 8.08061L12.9121 7.19672L9.37656 10.7322L7.60882 8.96444L6.72493 9.84837Z" fill="#171717"/>
</svg>
