<svg width="11" height="12" viewBox="0 0 11 12" fill="none" xmlns="http://www.w3.org/2000/svg">
<g id="pin-distance-line">
<path id="Vector" d="M4.47471 4.93299C4.66291 4.74477 4.79107 4.50497 4.84299 4.24392C4.89491 3.98286 4.86825 3.71227 4.76638 3.46637C4.66452 3.22046 4.49202 3.01028 4.27071 2.86241C4.0494 2.71454 3.7892 2.63561 3.52304 2.63561C3.25687 2.63561 2.99668 2.71454 2.77536 2.86241C2.55405 3.01028 2.38155 3.22046 2.27969 3.46637C2.17783 3.71227 2.15117 3.98286 2.20308 4.24392C2.255 4.50497 2.38316 4.74477 2.57136 4.93299L3.52304 5.88467L4.47471 4.93299ZM3.52304 6.97207L2.02727 5.47708C1.73161 5.18128 1.53029 4.80445 1.44877 4.39424C1.36725 3.98403 1.40919 3.55886 1.56928 3.17248C1.72938 2.7861 2.00044 2.45587 2.3482 2.22353C2.69596 1.9912 3.1048 1.86719 3.52304 1.86719C3.94127 1.86719 4.35011 1.9912 4.69787 2.22353C5.04563 2.45587 5.31669 2.7861 5.47679 3.17248C5.63689 3.55886 5.67882 3.98403 5.5973 4.39424C5.51578 4.80445 5.31446 5.18128 5.0188 5.47708L3.52304 6.97284V6.97207ZM3.52304 4.55809C3.37007 4.55809 3.22336 4.49732 3.1152 4.38916C3.00703 4.28099 2.94626 4.13429 2.94626 3.98132C2.94626 3.82835 3.00703 3.68164 3.1152 3.57348C3.22336 3.46531 3.37007 3.40454 3.52304 3.40454C3.676 3.40454 3.82271 3.46531 3.93087 3.57348C4.03904 3.68164 4.09981 3.82835 4.09981 3.98132C4.09981 4.13429 4.03904 4.28099 3.93087 4.38916C3.82271 4.49732 3.676 4.55809 3.52304 4.55809ZM6.98367 9.3453L7.93534 8.39362C8.12354 8.2054 8.2517 7.96561 8.30362 7.70455C8.35554 7.44349 8.32888 7.1729 8.22701 6.927C8.12515 6.68109 7.95265 6.47092 7.73134 6.32304C7.51003 6.17517 7.24984 6.09625 6.98367 6.09625C6.7175 6.09625 6.45731 6.17517 6.236 6.32304C6.01468 6.47092 5.84219 6.68109 5.74032 6.927C5.63846 7.1729 5.6118 7.44349 5.66372 7.70455C5.71563 7.96561 5.84379 8.2054 6.03199 8.39362L6.98367 9.3453ZM8.47943 8.93771L6.98367 10.4327L5.48791 8.93733C5.19224 8.64152 4.99092 8.2647 4.9094 7.85449C4.82788 7.44427 4.86982 7.0191 5.02991 6.63273C5.19001 6.24635 5.46107 5.91612 5.80883 5.68378C6.1566 5.45144 6.56544 5.32744 6.98367 5.32744C7.4019 5.32744 7.81074 5.45144 8.1585 5.68378C8.50626 5.91612 8.77733 6.24635 8.93742 6.63273C9.09752 7.0191 9.13946 7.44427 9.05794 7.85449C8.97642 8.2647 8.7751 8.64152 8.47943 8.93733V8.93771ZM6.98367 8.01872C6.8307 8.01872 6.68399 7.95795 6.57583 7.84979C6.46766 7.74162 6.4069 7.59492 6.4069 7.44195C6.4069 7.28898 6.46766 7.14228 6.57583 7.03411C6.68399 6.92594 6.8307 6.86518 6.98367 6.86518C7.13664 6.86518 7.28334 6.92594 7.39151 7.03411C7.49967 7.14228 7.56044 7.28898 7.56044 7.44195C7.56044 7.59492 7.49967 7.74162 7.39151 7.84979C7.28334 7.95795 7.13664 8.01872 6.98367 8.01872Z" fill="#5C5C5C"/>
</g>
</svg>
