<svg width="24" height="25" viewBox="0 0 24 25" fill="none" xmlns="http://www.w3.org/2000/svg">
<path d="M12.7405 4.4324L20.8854 18.7027C20.9605 18.8342 21 18.9833 21 19.1351C21 19.2869 20.9605 19.4361 20.8855 19.5676C20.8104 19.699 20.7025 19.8082 20.5725 19.8841C20.4425 19.96 20.2951 20 20.145 20H3.85501C3.70492 20 3.55748 19.96 3.4275 19.8841C3.29752 19.8082 3.18959 19.699 3.11455 19.5676C3.0395 19.4361 3 19.2869 3 19.1351C3 18.9833 3.03951 18.8342 3.11455 18.7027L11.2595 4.4324C11.3346 4.30093 11.4425 4.19176 11.5725 4.11586C11.7025 4.03996 11.8499 4 12 4C12.1501 4 12.2975 4.03996 12.4275 4.11586C12.5575 4.19176 12.6654 4.30093 12.7405 4.4324ZM11.145 15.6757V17.4054H12.855V15.6757H11.145ZM11.145 9.6216V13.9459H12.855V9.6216H11.145Z" fill="#FA7319"/>
</svg>
