<svg width="20" height="20" viewBox="0 0 20 20" fill="none" xmlns="http://www.w3.org/2000/svg">
<path d="M8.5 3.25H11.5C13.0913 3.25 14.6174 3.88214 15.7426 5.00736C16.8679 6.13258 17.5 7.6587 17.5 9.25C17.5 10.8413 16.8679 12.3674 15.7426 13.4926C14.6174 14.6179 13.0913 15.25 11.5 15.25V17.875C7.75 16.375 2.5 14.125 2.5 9.25C2.5 7.6587 3.13214 6.13258 4.25736 5.00736C5.38258 3.88214 6.9087 3.25 8.5 3.25ZM10 13.75H11.5C12.0909 13.75 12.6761 13.6336 13.2221 13.4075C13.768 13.1813 14.2641 12.8498 14.682 12.432C15.0998 12.0141 15.4313 11.518 15.6575 10.9721C15.8836 10.4261 16 9.84095 16 9.25C16 8.65905 15.8836 8.07389 15.6575 7.52792C15.4313 6.98196 15.0998 6.48588 14.682 6.06802C14.2641 5.65016 13.768 5.31869 13.2221 5.09254C12.6761 4.8664 12.0909 4.75 11.5 4.75H8.5C7.30653 4.75 6.16193 5.22411 5.31802 6.06802C4.47411 6.91193 4 8.05653 4 9.25C4 11.9575 5.8465 13.7245 10 15.61V13.75Z" fill="#A4A4A4"/>
</svg>
