<svg width="18" height="18" viewBox="0 0 18 18" fill="none" xmlns="http://www.w3.org/2000/svg">
<path d="M9.00078 2.92505C8.44391 2.92505 7.98828 3.38067 7.98828 3.93755C7.98828 4.49442 8.44391 4.95005 9.00078 4.95005C9.55766 4.95005 10.0133 4.49442 10.0133 3.93755C10.0133 3.38067 9.55766 2.92505 9.00078 2.92505ZM9.00078 13.05C8.44391 13.05 7.98828 13.5057 7.98828 14.0625C7.98828 14.6194 8.44391 15.075 9.00078 15.075C9.55766 15.075 10.0133 14.6194 10.0133 14.0625C10.0133 13.5057 9.55766 13.05 9.00078 13.05ZM9.00078 7.98755C8.44391 7.98755 7.98828 8.44317 7.98828 9.00005C7.98828 9.55692 8.44391 10.0125 9.00078 10.0125C9.55766 10.0125 10.0133 9.55692 10.0133 9.00005C10.0133 8.44317 9.55766 7.98755 9.00078 7.98755Z" fill="#5C5C5C"/>
</svg>
