<svg width="20" height="20" viewBox="0 0 20 20" fill="none" xmlns="http://www.w3.org/2000/svg">
<path d="M8.75358 3.81492C7.87761 3.53135 6.92534 3.92578 6.50643 4.74572L6.00282 5.73145C5.94298 5.84858 5.84772 5.94384 5.7306 6.00367L4.74487 6.50729C3.92493 6.92619 3.53049 7.87846 3.81406 8.75444L4.15497 9.80756C4.19547 9.93269 4.19547 10.0674 4.15497 10.1926L3.81406 11.2457C3.53049 12.1217 3.92493 13.0739 4.74487 13.4929L5.7306 13.9964C5.84772 14.0563 5.94298 14.1516 6.00282 14.2687L6.50643 15.2544C6.92534 16.0744 7.87761 16.4688 8.75358 16.1852L9.80671 15.8443C9.93183 15.8038 10.0666 15.8038 10.1917 15.8443L11.2448 16.1852C12.1208 16.4688 13.0731 16.0744 13.492 15.2544L13.9956 14.2687C14.0555 14.1516 14.1507 14.0563 14.2678 13.9964L15.2536 13.4929C16.0735 13.0739 16.468 12.1217 16.1844 11.2457L15.8435 10.1926C15.803 10.0674 15.803 9.93269 15.8435 9.80756L16.1844 8.75444C16.468 7.87846 16.0735 6.92619 15.2536 6.50729L14.2678 6.00367C14.1507 5.94384 14.0555 5.84858 13.9956 5.73145L13.492 4.74572C13.0731 3.92578 12.1208 3.53135 11.2448 3.81492L10.1917 4.15583C10.0666 4.19633 9.93183 4.19633 9.80671 4.15583L8.75358 3.81492ZM7.61957 5.31443C7.75921 5.04112 8.07663 4.90963 8.36862 5.00416L9.42177 5.34507C9.79714 5.46658 10.2013 5.46658 10.5766 5.34507L11.6298 5.00416C11.9218 4.90963 12.2392 5.04112 12.3788 5.31442L12.8825 6.30016C13.062 6.65152 13.3478 6.9373 13.6991 7.11681L14.6848 7.62042C14.9581 7.76006 15.0896 8.07749 14.9951 8.36948L14.6542 9.42262C14.5327 9.798 14.5327 10.2021 14.6542 10.5775L14.9951 11.6307C15.0896 11.9226 14.9581 12.2401 14.6848 12.3797L13.6991 12.8833C13.3478 13.0628 13.062 13.3486 12.8825 13.7L12.3788 14.6857C12.2392 14.959 11.9218 15.0905 11.6298 14.996L10.5766 14.6551C10.2013 14.5336 9.79714 14.5336 9.42177 14.6551L8.36862 14.996C8.07663 15.0905 7.75921 14.959 7.61957 14.6857L7.11596 13.7C6.93644 13.3486 6.65067 13.0628 6.29931 12.8833L5.31357 12.3797C5.04026 12.2401 4.90878 11.9226 5.00331 11.6307L5.34421 10.5775C5.46573 10.2021 5.46573 9.798 5.34421 9.42262L5.00331 8.36948C4.90878 8.07749 5.04026 7.76006 5.31357 7.62042L6.29931 7.11681C6.65067 6.9373 6.93644 6.65152 7.11596 6.30016L7.61957 5.31443ZM6.72396 9.84843L9.37558 12.5001L13.795 8.08067L12.9111 7.19679L9.37558 10.7323L7.60784 8.9645L6.72396 9.84843Z" fill="white"/>
</svg>
