<svg width="20" height="20" viewBox="0 0 20 20" fill="none" xmlns="http://www.w3.org/2000/svg">
<g id="dice-line">
<path id="Vector" d="M9.37369 3.48755C9.76113 3.26326 10.2389 3.26326 10.6263 3.48755L15.3138 6.20137C15.6998 6.42486 15.9375 6.8371 15.9375 7.28315V12.7168C15.9375 13.1628 15.6998 13.5751 15.3138 13.7986L10.6263 16.5124C10.2389 16.7367 9.76113 16.7367 9.37369 16.5124L4.68621 13.7986C4.30018 13.5751 4.0625 13.1628 4.0625 12.7168V7.28315C4.0625 6.83711 4.30018 6.42486 4.68621 6.20137L9.37369 3.48755ZM5.3125 7.28315V7.28614L9.37631 9.63888C9.76231 9.86238 10 10.2746 10 10.7206V15.4306L14.6875 12.7168V7.28315L10 4.56934L5.3125 7.28315ZM6.33255 10.1874C6.33254 9.84225 6.0902 9.4225 5.79127 9.24988C5.49235 9.07731 5.25003 9.21719 5.25004 9.56238C5.25005 9.90756 5.49239 10.3273 5.79131 10.4999C6.09024 10.6725 6.33256 10.5326 6.33255 10.1874ZM7.95562 14.2488C8.25455 14.4214 8.49687 14.2815 8.49686 13.9363C8.49684 13.5911 8.25451 13.1714 7.95558 12.9988C7.65666 12.8262 7.41433 12.9661 7.41434 13.3113C7.41436 13.6564 7.65669 14.0762 7.95562 14.2488ZM5.79131 12.9993C6.09024 13.1719 6.33256 13.032 6.33255 12.6868C6.33254 12.3416 6.0902 11.9219 5.79127 11.7493C5.49235 11.5767 5.25003 11.7166 5.25004 12.0618C5.25005 12.4069 5.49239 12.8267 5.79131 12.9993ZM7.95532 11.7496C8.25424 11.9222 8.49656 11.7823 8.49655 11.4371C8.49654 11.0919 8.25421 10.6722 7.95528 10.4996C7.65635 10.327 7.41403 10.4669 7.41404 10.8121C7.41405 11.1573 7.65639 11.577 7.95532 11.7496ZM11.8112 7.49995C12.1101 7.32736 12.1101 7.04756 11.8112 6.87498C11.5122 6.7024 11.0276 6.7024 10.7286 6.87498C10.4297 7.04756 10.4297 7.32736 10.7286 7.49995C11.0276 7.67253 11.5122 7.67253 11.8112 7.49995ZM8.81131 6.87498C9.11025 7.04756 9.11025 7.32736 8.81131 7.49995C8.51239 7.67253 8.02771 7.67253 7.72878 7.49995C7.42984 7.32736 7.42984 7.04756 7.72878 6.87498C8.02771 6.7024 8.51239 6.7024 8.81131 6.87498ZM12.4971 12.0934C12.8708 11.8776 13.1737 11.353 13.1737 10.9215C13.1737 10.4901 12.8708 10.3152 12.4972 10.5309C12.1236 10.7467 11.8207 11.2713 11.8206 11.7028C11.8206 12.1343 12.1235 12.3091 12.4971 12.0934Z" fill="#335CFF"/>
</g>
</svg>
