<svg width="20" height="20" viewBox="0 0 20 20" fill="none" xmlns="http://www.w3.org/2000/svg">
<g id="eye-close-line">
<path id="Vector" d="M8.00658 15.0865L6.55833 14.698L7.14858 12.4938C6.26506 12.1679 5.44392 11.693 4.72083 11.0898L3.10608 12.7053L2.04483 11.644L3.66033 10.0293C2.74839 8.93709 2.13565 7.62684 1.88208 6.22677L3.35808 5.95752C3.92733 9.10902 6.68433 11.5 10.0001 11.5C13.3151 11.5 16.0728 9.10902 16.6421 5.95752L18.1181 6.22602C17.8649 7.62628 17.2524 8.9368 16.3406 10.0293L17.9553 11.644L16.8941 12.7053L15.2793 11.0898C14.5562 11.693 13.7351 12.1679 12.8516 12.4938L13.4418 14.6988L11.9936 15.0865L11.4026 12.8815C10.4743 13.0406 9.52582 13.0406 8.59758 12.8815L8.00658 15.0865Z" fill="#5C5C5C"/>
</g>
</svg>
