<svg width="20" height="20" viewBox="0 0 20 20" fill="none" xmlns="http://www.w3.org/2000/svg">
<g id="hand-heart-line">
<path id="Vector" d="M4.75 7.75003C4.94891 7.75003 5.13968 7.82905 5.28033 7.9697C5.42098 8.11035 5.5 8.30112 5.5 8.50003C6.67836 8.49829 7.82274 8.89473 8.7475 9.62503H10.375C11.374 9.62503 12.2725 10.0593 12.8897 10.7493L15.25 10.75C15.9589 10.7498 16.6534 10.9506 17.2529 11.3291C17.8524 11.7075 18.3323 12.2482 18.637 12.8883C16.8633 15.229 13.9915 16.75 10.75 16.75C8.6575 16.75 6.8875 16.2978 5.455 15.5065C5.40253 15.6513 5.30668 15.7764 5.18051 15.8647C5.05435 15.953 4.90401 16.0003 4.75 16H2.5C2.30109 16 2.11032 15.921 1.96967 15.7804C1.82902 15.6397 1.75 15.4489 1.75 15.25V8.50003C1.75 8.30112 1.82902 8.11035 1.96967 7.9697C2.11032 7.82905 2.30109 7.75003 2.5 7.75003H4.75ZM5.50075 10L5.5 13.7658L5.53375 13.7905C6.88 14.7355 8.6335 15.25 10.75 15.25C13.003 15.25 15.0992 14.383 16.6262 12.9025L16.726 12.8028L16.636 12.7278C16.2818 12.4504 15.8526 12.2858 15.4037 12.2553L15.25 12.25L13.666 12.2493C13.7208 12.4908 13.75 12.742 13.75 13V13.75H7V12.25L12.0925 12.2493L12.067 12.1908C11.9233 11.8904 11.7022 11.6338 11.4264 11.4471C11.1507 11.2605 10.8302 11.1506 10.498 11.1288L10.375 11.125H8.1775C7.82899 10.7686 7.4127 10.4854 6.95314 10.2922C6.49358 10.099 6.00002 9.99967 5.5015 10H5.50075ZM4 9.25003H3.25V14.5H4V9.25003ZM11.2345 3.68128L11.5 3.94753L11.7655 3.68203C11.9394 3.50669 12.1461 3.36742 12.374 3.27221C12.6018 3.17701 12.8462 3.12773 13.0931 3.12723C13.34 3.12672 13.5846 3.17499 13.8128 3.26927C14.041 3.36354 14.2484 3.50196 14.4229 3.67659C14.5975 3.85121 14.7359 4.0586 14.8301 4.28684C14.9243 4.51508 14.9725 4.75968 14.9719 5.00659C14.9713 5.25351 14.922 5.49789 14.8267 5.72568C14.7315 5.95348 14.5921 6.16022 14.4167 6.33403L11.5 9.25003L8.5825 6.33253C8.40716 6.15867 8.26789 5.95189 8.17269 5.72407C8.07748 5.49624 8.02821 5.25186 8.0277 5.00494C8.0272 4.75802 8.07547 4.51343 8.16974 4.28522C8.26402 4.057 8.40244 3.84966 8.57706 3.67509C8.75168 3.50051 8.95907 3.36215 9.18731 3.26794C9.41555 3.17373 9.66015 3.12553 9.90707 3.1261C10.154 3.12668 10.3984 3.17602 10.6262 3.27129C10.854 3.36656 11.0607 3.50589 11.2345 3.68128ZM9.6445 4.74253C9.58234 4.80434 9.5438 4.88598 9.53558 4.97326C9.52736 5.06054 9.54997 5.14794 9.5995 5.22028L9.643 5.27203L11.5 7.12753L13.357 5.27203C13.4191 5.20998 13.4575 5.1281 13.4655 5.04066C13.4734 4.95322 13.4504 4.86576 13.4005 4.79353L13.357 4.74103C13.2949 4.67902 13.2129 4.64078 13.1255 4.63297C13.0381 4.62516 12.9506 4.64827 12.8785 4.69828L12.826 4.74178L11.4992 6.06778L10.174 4.74028L10.123 4.69828C10.0508 4.64836 9.96331 4.62538 9.87587 4.63333C9.78843 4.64128 9.70655 4.67966 9.6445 4.74178V4.74253Z" fill="#5C5C5C"/>
</g>
</svg>
