<svg width="20" height="24" viewBox="0 0 20 24" fill="none" xmlns="http://www.w3.org/2000/svg">
<g id="saudi-riyal-symbol">
<path id="saudi-riyal-symbol_2" d="M11.4879 18.1754C11.2911 18.7409 11.1615 19.3564 11.111 20L15.2634 18.8502C15.4602 18.2847 15.5898 17.6692 15.6402 17.0256L11.4879 18.1754ZM15.2658 15.4103C15.4626 14.8448 15.5922 14.2293 15.6426 13.5856L12.4071 14.4823V12.7608L15.2658 11.9672C15.4626 11.4017 15.5922 10.7862 15.6426 10.1426L12.4071 11.0361V4.84359C11.9103 5.20601 11.4711 5.68717 11.1134 6.25581V11.3923L9.81735 11.7516V4C9.32052 4.36243 8.88129 4.84359 8.52366 5.41222V12.1078L5.62905 12.9108C5.43224 13.4763 5.30263 14.0918 5.25222 14.7354L8.52366 13.8293V15.9977L5.01701 16.9662C4.82259 17.5349 4.69298 18.1504 4.64258 18.794L8.31245 17.7786C8.61007 17.6973 8.86689 17.4692 9.0349 17.1506L9.70695 15.8508C9.77655 15.7165 9.81735 15.554 9.81735 15.379V13.47L11.111 13.1107V16.56L15.2658 15.4103Z" fill="#A4A4A4"/>
</g>
</svg>
