<svg width="20" height="24" viewBox="0 0 20 24" fill="none" xmlns="http://www.w3.org/2000/svg">
<g id="Icon">
<path id="Vector" d="M11.4525 7.00008C11.4525 7.92056 10.8661 8.66675 10.1429 8.66675C9.4197 8.66675 8.83342 7.92056 8.83342 7.00008C8.83342 6.07961 9.4197 5.33341 10.1429 5.33341C10.8661 5.33341 11.4525 6.07961 11.4525 7.00008ZM12.4116 8.66675C12.6344 8.17646 12.762 7.60722 12.762 7.00008C12.762 5.15913 11.5894 3.66675 10.1429 3.66675C8.69646 3.66675 7.52387 5.15913 7.52387 7.00008C7.52387 7.60722 7.65141 8.17646 7.87426 8.66675H5.60266C5.28362 8.66675 5.01102 8.95941 4.95726 9.35966L3.72608 18.5263C3.65773 19.0353 3.96578 19.5001 4.37149 19.5001H15.9143C16.32 19.5001 16.6281 19.0353 16.5597 18.5263L15.3286 9.35966C15.2748 8.95941 15.0022 8.66675 14.6832 8.66675H12.4116ZM10.1429 10.3334H14.1308L15.1382 17.8334H5.14767L6.15499 10.3334H10.1429Z" fill="#A4A4A4"/>
</g>
</svg>
